<svg xmlns="http://www.w3.org/2000/svg" width="858" height="280" fill="none"><circle cx="429.193" cy="40.106" r="40" fill="#3C332B"/><path fill="#fff" d="m433.199 14.87-.621 35.558h-6.836l-.621-35.558zm-4.004 50.472c-2.693 0-4.972-2.21-4.902-4.903-.07-2.692 2.209-4.902 4.902-4.902 2.623 0 4.902 2.21 4.902 4.902s-2.279 4.903-4.902 4.903"/><path fill="#484848" d="M309.267 121.176c0 5.01 2.021 9.873 6.474 11.807l-2.285 2.988c-2.959-1.45-4.936-4.102-6.035-7.383-1.172 3.486-3.223 6.343-6.27 7.852l-2.343-3.047c4.57-2.051 6.65-7.207 6.679-12.217v-3.984h3.78zm12.422-6.035v26.718h-3.692v-15.322h-5.244v-3.017h5.244v-8.379zm25.752 0v26.718h-3.78v-26.718zm-17.256 2.109v6.504h5.742v-6.504h3.691v18.369h-13.183V117.25zm0 15.352h5.742v-5.948h-5.742zm34.892-13.946c0 3.897 3.457 8.086 9.492 9.112l-1.64 3.105c-4.644-.923-8.101-3.53-9.815-6.972-1.772 3.413-5.229 6.035-9.843 6.972l-1.612-3.105c5.918-1.055 9.405-5.244 9.434-9.112v-1.933h3.984zm10.371 16.787v3.077h-24.404v-3.077zm30.557-19.16v2.93h-7.354c.44 2.197 3.194 4.424 8.467 5.01l-1.377 2.929c-4.995-.556-8.335-2.636-9.726-5.39-1.407 2.739-4.717 4.834-9.698 5.39l-1.347-2.929c5.273-.586 7.998-2.842 8.437-5.01h-7.295v-2.93zm2.256 12.129v2.989h-10.049V136h-3.691v-4.599h-10.664v-2.989zm-2.695 9.932v2.988h-18.838v-7.705h3.72v4.717zm26.572-23.203v26.718h-3.78v-26.718zm-17.256 2.109v6.504h5.742v-6.504h3.692v18.369h-13.184V117.25zm0 15.352h5.742v-5.948h-5.742zm52.09-5.362v3.018h-10.313v1.963c4.644.351 7.383 2.021 7.412 4.775-.029 3.076-3.515 4.805-9.287 4.805-5.859 0-9.345-1.729-9.345-4.805 0-2.768 2.768-4.438 7.5-4.775v-1.963h-10.284v-3.018zm-12.188 7.735c-3.691.029-5.566.674-5.537 2.021-.029 1.289 1.846 1.992 5.537 1.992 3.604 0 5.508-.703 5.537-1.992-.029-1.347-1.933-1.992-5.537-2.021m9.991-18.692v2.93h-7.237c.63 1.875 3.34 3.677 8.408 4.102l-1.318 2.929c-5.024-.483-8.423-2.387-9.844-4.98-1.406 2.593-4.746 4.497-9.814 4.98l-1.231-2.929c4.937-.425 7.661-2.242 8.35-4.102h-7.207v-2.93zm33.046-1.142v14.326h-3.75v-14.326zm-14.15 15.498v2.49h10.43v-2.49h3.72v10.869H479.98v-10.869zm0 7.851h10.43v-2.461h-10.43zm-.469-22.236c4.16-.029 7.295 2.578 7.295 6.328 0 3.633-3.135 6.24-7.295 6.24s-7.295-2.607-7.295-6.24c0-3.75 3.135-6.357 7.295-6.328m0 3.105c-2.138 0-3.662 1.202-3.633 3.223-.029 1.992 1.495 3.164 3.633 3.164 2.08 0 3.604-1.172 3.604-3.164 0-2.021-1.524-3.223-3.604-3.223m40.635-4.218v26.66h-3.721v-26.66zm-17.285 2.549v14.326a64 64 0 0 0 11.396-1.143l.469 3.076c-4.687.967-9.082 1.289-13.213 1.26h-2.344V117.69zm41.836-2.549v9.902h3.926v3.047h-3.926v13.769h-3.75v-26.718zm-7.471 2.461v3.017h-8.789v11.69c3.867-.044 7.061-.22 10.606-.85l.41 3.135c-4.131.703-7.764.82-12.481.791h-2.256v-17.783zm15.82 21.767c-1.377 0-2.49-1.113-2.461-2.461-.029-1.347 1.084-2.431 2.461-2.431 1.289 0 2.432 1.084 2.432 2.431 0 1.348-1.143 2.461-2.432 2.461M342.358 222.539v1.599h-14.52v-1.599h6.258v-3.094h-4.658v-8.226h1.951v2.601h7.365v-2.601h1.951v8.226h-4.676v3.094zm-10.969-4.676h7.365v-2.478h-7.365zm24.451-7.699v6.029h2.443v1.6h-2.443v8.279h-1.951v-15.908zm-4.359 1.512v1.582h-5.485v7.295c2.47 0 4.421-.123 6.61-.51l.228 1.652c-2.461.422-4.605.492-7.471.492h-1.318v-10.511zm24.275-1.512v4.658h2.215v1.617h-2.215v5.344h-1.951v-11.619zm.633 13.992v1.582h-10.811v-5.168h1.951v3.586zm-8.701-12.937c2.408 0 4.271 1.669 4.289 4.007-.018 2.303-1.881 3.991-4.289 3.991-2.409 0-4.307-1.688-4.289-3.991-.018-2.338 1.88-4.007 4.289-4.007m0 1.705c-1.336 0-2.391.896-2.373 2.302-.018 1.371 1.037 2.268 2.373 2.268s2.373-.897 2.373-2.268c0-1.406-1.037-2.302-2.373-2.302m24.398-2.76v9.439h-1.951v-3.884h-2.707v-1.6h2.707v-3.955zm-5.379 9.844c3.375 0 5.432 1.107 5.432 3.023s-2.057 3.024-5.432 3.024c-3.357 0-5.414-1.108-5.396-3.024-.018-1.916 2.039-3.023 5.396-3.023m0 1.494c-2.215 0-3.463.527-3.463 1.529 0 .984 1.248 1.512 3.463 1.512s3.481-.528 3.481-1.512c0-1.002-1.266-1.529-3.481-1.529m-2.092-8.614c0 1.934 1.284 3.885 3.744 4.711l-.984 1.547c-1.767-.597-3.023-1.81-3.709-3.304a6.55 6.55 0 0 1-3.92 3.726l-1.019-1.547c2.548-.879 3.902-3.023 3.902-5.115v-.123h-3.305v-1.582h8.578v1.582h-3.287zm15.557 0c0 1.934 1.283 3.885 3.744 4.711l-.984 1.512c-1.776-.58-3.032-1.784-3.727-3.269-.694 1.661-2.021 2.997-3.902 3.621l-1.002-1.547c2.531-.826 3.885-2.936 3.885-5.01v-.211h-3.305v-1.564h8.578v1.564h-3.287zm7.471 7.506v5.661h-1.952v-4.096h-8.876v-1.565zm0-10.23v9.474h-1.952v-3.937h-2.707v-1.6h2.707v-3.937zm15.486.017v11.479h-1.969v-11.479zm.439 13.975v1.582h-10.951V220.5h1.969v3.656zm-9.105-12.937c2.408 0 4.271 1.669 4.271 3.972 0 2.356-1.863 3.99-4.271 3.99-2.426 0-4.289-1.634-4.289-3.99 0-2.303 1.863-3.972 4.289-3.972m0 1.705c-1.354 0-2.391.896-2.373 2.267-.018 1.406 1.019 2.285 2.373 2.285 1.318 0 2.355-.879 2.355-2.285 0-1.371-1.037-2.267-2.355-2.267m21.129 1.054c0 2.953 1.406 5.854 3.937 6.961l-1.177 1.565c-1.802-.879-3.068-2.567-3.744-4.641-.695 2.189-1.987 4.008-3.815 4.94l-1.23-1.582c2.584-1.213 4.025-4.272 4.043-7.243v-2.531h1.986zm7.453-3.814v15.908h-1.934v-9.193h-3.339v-1.582h3.339v-5.133zm15.451 0v15.908h-1.969v-15.908zm-10.424 1.301v3.972h3.85v-3.972h1.934v10.863h-7.735v-10.863zm0 9.263h3.85v-3.761h-3.85zm20.971-8.384c0 2.461 2.408 4.921 5.731 5.502l-.879 1.634c-2.663-.562-4.843-2.171-5.871-4.306-1.055 2.118-3.235 3.735-5.889 4.306l-.861-1.634c3.287-.598 5.677-3.059 5.695-5.502v-1.178h2.074zm6.311 10.072v1.617h-14.52v-1.617zm15.539-5.045v1.476h-14.52v-1.476zm-1.758 2.426v3.621h-9.106v1.107h9.58v1.354h-11.531v-3.727h9.123v-.984h-9.14v-1.371zm-.035-9.282v3.586h-8.948v1.037h9.229v1.336h-11.162v-3.638h8.93v-.967h-8.983v-1.354zm12.304.352c2.409-.018 4.166 1.354 4.166 3.34 0 1.951-1.757 3.34-4.166 3.322-2.39.018-4.13-1.371-4.13-3.322 0-1.986 1.74-3.358 4.13-3.34m0 1.582c-1.3-.018-2.25.668-2.232 1.758-.018 1.072.932 1.723 2.232 1.723 1.354 0 2.303-.651 2.303-1.723 0-1.09-.949-1.776-2.303-1.758m8.104-2.268v15.856h-1.934v-15.856zm-13.272 8.438c2.866 0 6.873-.053 10.301-.563l.141 1.442a35 35 0 0 1-4.184.527v5.537h-1.969v-5.414c-1.467.062-2.847.071-4.042.088zm23.291-5.924v1.565h-7.787v-1.565h2.953v-2.074h1.934v2.074zm-3.867 2.408c2.022 0 3.463 1.53 3.463 3.692 0 2.197-1.441 3.744-3.463 3.744-2.004 0-3.48-1.547-3.463-3.744-.017-2.162 1.459-3.692 3.463-3.692m0 1.618c-1.037 0-1.758.826-1.74 2.074-.018 1.283.703 2.092 1.74 2.074 1.02.018 1.74-.791 1.74-2.074 0-1.248-.72-2.074-1.74-2.074m9.774-6.557v15.891h-1.864v-7.77h-1.546v7.049h-1.829v-14.836h1.829v6.205h1.546v-6.539zm-225.15 35.814c-.017 2.918 1.512 5.836 4.096 6.944l-1.16 1.564c-1.828-.844-3.173-2.531-3.903-4.605-.729 2.241-2.091 4.069-4.025 4.974l-1.195-1.634c2.654-1.143 4.201-4.184 4.201-7.243v-2.531h1.986zm7.207-3.814v15.908h-1.968v-15.908zm10.547 2.18c0 2.461 2.408 4.921 5.731 5.502l-.879 1.634c-2.663-.562-4.843-2.171-5.871-4.306-1.055 2.118-3.235 3.735-5.889 4.306l-.861-1.634c3.287-.598 5.677-3.059 5.695-5.502v-1.178h2.074zm6.311 10.072v1.617h-14.52v-1.617zm7.752-11.268v1.582h-4.166v1.494h3.568v1.512h-3.568v1.635c1.907-.018 3.216-.088 4.763-.369l.211 1.529c-1.828.334-3.34.404-5.801.404h-1.054v-7.787zm6.873-.984v9.51h-1.864v-9.51zm-3.129.264v9.123h-1.863v-3.92h-1.793v-1.582h1.793v-3.621zm3.129 9.914v5.519h-10.723v-5.519zm-8.772 1.546v2.391h6.838v-2.391zm27.598-11.707v4.624h2.144v1.617H357.8v4.5h-1.951v-10.741zm-12.727 8.842c1.196 0 2.576-.009 4.008-.052v-.967c-1.766-.22-2.883-1.073-2.883-2.321 0-1.459 1.53-2.373 3.832-2.355 2.321-.018 3.832.896 3.832 2.355 0 1.24-1.089 2.083-2.83 2.303v.914a48 48 0 0 0 3.991-.334l.158 1.354c-3.393.597-7.102.633-9.897.633zm12.727 2.584v4.448h-1.951v-2.918h-8.772v-1.53zm-3.199-10.177v1.441h-9.123v-1.441h3.603v-1.389h1.951v1.389zm-4.571 3.216c-1.23-.017-1.968.352-1.951 1.037-.017.651.721 1.073 1.951 1.055 1.231.018 1.969-.404 1.969-1.055 0-.685-.738-1.054-1.969-1.037m16.436-1.617c0 1.951 1.266 3.779 3.744 4.535l-.932 1.53c-1.784-.554-3.049-1.688-3.744-3.129-.703 1.67-2.048 2.997-3.955 3.638l-.984-1.547c2.566-.843 3.902-2.9 3.902-5.009v-.194h-3.357v-1.582h8.631v1.582h-3.305zm6.838-2.865v3.814h2.215v1.6h-2.215v4.06h-1.951v-9.474zm-5.168 9.826c3.287 0 5.308 1.107 5.326 3.006-.018 1.916-2.039 3.041-5.326 3.041-3.322 0-5.379-1.125-5.379-3.041 0-1.899 2.057-3.006 5.379-3.006m0 1.529c-2.18 0-3.428.51-3.428 1.477 0 .984 1.248 1.512 3.428 1.512s3.392-.528 3.392-1.512c0-.967-1.212-1.477-3.392-1.477m18.158-8.595c0 1.951 1.266 3.884 3.762 4.711l-.985 1.511c-1.775-.589-3.041-1.784-3.726-3.269-.712 1.626-2.03 2.918-3.885 3.551l-1.037-1.512c2.566-.844 3.902-2.901 3.902-4.992v-.194h-3.357v-1.564h8.631v1.564h-3.305zm6.838-2.76v3.973h2.215v1.634h-2.215v3.973h-1.951v-9.58zm0 10.318v5.573h-1.951v-4.008h-8.631v-1.565zm7.435-9.615c2.057-.018 3.674 1.169 4.079 2.918h2.865v-3.621h1.951v8.525h-1.951v-3.322h-2.848c-.395 1.784-2.03 2.988-4.096 2.988-2.443 0-4.201-1.564-4.201-3.761 0-2.163 1.758-3.745 4.201-3.727m0 1.635c-1.371 0-2.337.808-2.337 2.092 0 1.265.966 2.109 2.337 2.109 1.336 0 2.286-.844 2.303-2.109-.017-1.284-.967-2.092-2.303-2.092m.352 6.926v1.687h6.592v-1.687h1.951v6.433h-10.477v-6.433zm0 4.851h6.592v-1.652h-6.592zm18.018-13.869c3.621 0 5.713.967 5.73 2.725-.017 1.775-2.109 2.724-5.73 2.742-3.621-.018-5.731-.967-5.731-2.742 0-1.758 2.11-2.725 5.731-2.725m0 1.441c-2.426 0-3.692.457-3.674 1.284-.018.878 1.248 1.283 3.674 1.283 2.461 0 3.709-.405 3.709-1.283 0-.827-1.248-1.284-3.709-1.284m7.259 4.87v1.564h-14.484v-1.564zm-1.81 2.636v3.885h-9.035v1.178h9.474v1.494h-11.39v-4.061h9.035v-1.054h-9.053v-1.442zm20.338-8.472v1.564h-4.606c.176 1.494 2.118 2.918 5.186 3.287l-.738 1.547c-2.848-.343-4.949-1.6-5.801-3.322-.853 1.714-2.936 2.979-5.783 3.322l-.721-1.547c3.067-.369 4.983-1.793 5.168-3.287h-4.571v-1.564zm1.318 7.277v1.582h-6.135v2.9h-1.933v-2.9h-6.451v-1.582zm-1.6 5.994v1.582H433.28v-4.553h1.952v2.971zm15.874-13.992v15.908h-1.969v-15.908zm-10.424 1.301v3.972h3.849v-3.972h1.934v10.863h-7.734v-10.863zm0 9.263h3.849v-3.761h-3.849zm25.207-10.564v6.328h2.443v1.617h-2.443v7.946h-1.934v-15.891zm-3.164 2.443v1.565h-9.369v-1.565h3.761v-2.215h1.951v2.215zm-4.623 2.602c2.285 0 3.99 1.547 3.99 3.744s-1.705 3.727-3.99 3.727c-2.321 0-4.026-1.53-4.008-3.727-.018-2.197 1.687-3.744 4.008-3.744m0 1.599c-1.248 0-2.145.844-2.145 2.145s.897 2.127 2.145 2.109c1.213.018 2.109-.808 2.127-2.109-.018-1.301-.914-2.145-2.127-2.145m23.871-5.185v1.529c-.018 1.969-.018 4.184-.633 7.506l-1.969-.211c.615-3.094.615-5.352.633-7.26h-9.492v-1.564zm1.511 10.775v1.6H478.21v-1.6h5.344v-5.519h1.933v5.519zm10.987-1.898c0 1.318.606 2.707 1.969 3.568 1.379-.923 2.021-2.364 2.039-3.568v-.651h1.916v.651c-.018 1.67.966 3.217 3.058 3.885l-.949 1.423c-1.547-.518-2.575-1.529-3.129-2.795-.51 1.249-1.45 2.365-2.883 2.936-1.511-.545-2.461-1.617-2.953-2.883-.571 1.222-1.582 2.215-3.058 2.742l-.967-1.423c2.056-.721 3.041-2.338 3.058-3.885v-.651h1.899zm7.594-10.319v9h-1.969v-9zm-8.667.844c2.444 0 4.272 1.547 4.272 3.78 0 2.214-1.828 3.761-4.272 3.761-2.46 0-4.289-1.547-4.289-3.761 0-2.233 1.829-3.78 4.289-3.78m0 1.653c-1.388 0-2.39.826-2.373 2.127-.017 1.3.985 2.144 2.373 2.144 1.372 0 2.356-.844 2.356-2.144s-.984-2.127-2.356-2.127m14.661 7.013v1.512h6.996v-1.512h1.951v6.17h-10.881v-6.17zm0 4.623h6.996v-1.617h-6.996zm10.81-7.119v1.6h-14.484v-1.6zm-6.24-6.258c0 1.705 2.18 3.498 5.467 3.885l-.686 1.547c-2.663-.36-4.763-1.538-5.783-3.147-1.028 1.618-3.138 2.787-5.783 3.147l-.721-1.547c3.322-.404 5.485-2.127 5.502-3.885v-.597h2.004zm20.566-.773v15.891h-1.933v-15.891zm-10.406 1.547v8.683a39.5 39.5 0 0 0 7.049-.72l.246 1.634c-2.795.58-5.396.756-7.857.756h-1.371v-10.353zm25.154-1.547v6.029h2.444v1.6h-2.444v8.279h-1.951v-15.908zm-4.359 1.512v1.582h-5.484v7.295c2.469 0 4.421-.123 6.609-.51l.229 1.652c-2.461.422-4.606.492-7.471.492h-1.318v-10.511zm9.404 12.955a1.374 1.374 0 0 1-1.371-1.371 1.37 1.37 0 0 1 1.371-1.354c.721 0 1.354.615 1.354 1.354 0 .755-.633 1.371-1.354 1.371"/></svg>