<svg width="858" height="280" viewBox="0 0 858 280" fill="none" xmlns="http://www.w3.org/2000/svg">
<circle cx="429.193" cy="40.1056" r="40" fill="#3C332B"/>
<path d="M433.199 14.8695L432.578 50.4279H425.742L425.121 14.8695H433.199ZM429.195 65.3416C426.502 65.3416 424.223 63.1322 424.293 60.4394C424.223 57.7467 426.502 55.5372 429.195 55.5372C431.818 55.5372 434.097 57.7467 434.097 60.4394C434.097 63.1322 431.818 65.3416 429.195 65.3416Z" fill="white"/>
<path d="M309.267 121.176C309.267 126.186 311.288 131.049 315.741 132.983L313.456 135.971C310.497 134.521 308.52 131.869 307.421 128.588C306.249 132.074 304.198 134.931 301.151 136.44L298.808 133.393C303.378 131.342 305.458 126.186 305.487 121.176V117.192H309.267V121.176ZM321.689 115.141V141.859H317.997V126.537H312.753V123.52H317.997V115.141H321.689ZM347.441 115.141V141.859H343.661V115.141H347.441ZM330.185 117.25V123.754H335.927V117.25H339.618V135.619H326.435V117.25H330.185ZM330.185 132.602H335.927V126.654H330.185V132.602ZM365.077 118.656C365.077 122.553 368.534 126.742 374.569 127.768L372.929 130.873C368.285 129.95 364.828 127.343 363.114 123.901C361.342 127.314 357.885 129.936 353.271 130.873L351.659 127.768C357.577 126.713 361.064 122.524 361.093 118.656V116.723H365.077V118.656ZM375.448 135.443V138.52H351.044V135.443H375.448ZM406.005 116.283V119.213H398.651C399.091 121.41 401.845 123.637 407.118 124.223L405.741 127.152C400.746 126.596 397.406 124.516 396.015 121.762C394.608 124.501 391.298 126.596 386.317 127.152L384.97 124.223C390.243 123.637 392.968 121.381 393.407 119.213H386.112V116.283H406.005ZM408.261 128.412V131.401H398.212V136H394.521V131.401H383.857V128.412H408.261ZM405.566 138.344V141.332H386.728V133.627H390.448V138.344H405.566ZM432.138 115.141V141.859H428.358V115.141H432.138ZM414.882 117.25V123.754H420.624V117.25H424.316V135.619H411.132V117.25H414.882ZM414.882 132.602H420.624V126.654H414.882V132.602ZM466.972 127.24V130.258H456.659V132.221C461.303 132.572 464.042 134.242 464.071 136.996C464.042 140.072 460.556 141.801 454.784 141.801C448.925 141.801 445.439 140.072 445.439 136.996C445.439 134.228 448.207 132.558 452.939 132.221V130.258H442.655V127.24H466.972ZM454.784 134.975C451.093 135.004 449.218 135.649 449.247 136.996C449.218 138.285 451.093 138.988 454.784 138.988C458.388 138.988 460.292 138.285 460.321 136.996C460.292 135.649 458.388 135.004 454.784 134.975ZM464.775 116.283V119.213H457.538C458.168 121.088 460.878 122.89 465.946 123.315L464.628 126.244C459.604 125.761 456.205 123.857 454.784 121.264C453.378 123.857 450.038 125.761 444.97 126.244L443.739 123.315C448.676 122.89 451.4 121.073 452.089 119.213H444.882V116.283H464.775ZM497.821 115.141V129.467H494.071V115.141H497.821ZM483.671 130.639V133.129H494.101V130.639H497.821V141.508H479.98V130.639H483.671ZM483.671 138.49H494.101V136.029H483.671V138.49ZM483.202 116.254C487.362 116.225 490.497 118.832 490.497 122.582C490.497 126.215 487.362 128.822 483.202 128.822C479.042 128.822 475.907 126.215 475.907 122.582C475.907 118.832 479.042 116.225 483.202 116.254ZM483.202 119.359C481.064 119.359 479.54 120.561 479.569 122.582C479.54 124.574 481.064 125.746 483.202 125.746C485.282 125.746 486.806 124.574 486.806 122.582C486.806 120.561 485.282 119.359 483.202 119.359ZM523.837 115.141V141.801H520.116V115.141H523.837ZM506.552 117.69V132.016C510.155 131.972 514.023 131.635 517.948 130.873L518.417 133.949C513.73 134.916 509.335 135.238 505.204 135.209H502.86V117.69H506.552ZM548.388 115.141V125.043H552.314V128.09H548.388V141.859H544.638V115.141H548.388ZM540.917 117.602V120.619H532.128V132.309C535.995 132.265 539.189 132.089 542.734 131.459L543.144 134.594C539.013 135.297 535.38 135.414 530.663 135.385H528.407V117.602H540.917ZM556.737 139.369C555.36 139.369 554.247 138.256 554.276 136.908C554.247 135.561 555.36 134.477 556.737 134.477C558.026 134.477 559.169 135.561 559.169 136.908C559.169 138.256 558.026 139.369 556.737 139.369Z" fill="#484848"/>
<path d="M342.358 222.539V224.138H327.838V222.539H334.096V219.445H329.438V211.219H331.389V213.82H338.754V211.219H340.705V219.445H336.029V222.539H342.358ZM331.389 217.863H338.754V215.385H331.389V217.863ZM355.84 210.164V216.193H358.283V217.793H355.84V226.072H353.889V210.164H355.84ZM351.481 211.676V213.258H345.996V220.553C348.466 220.553 350.417 220.43 352.606 220.043L352.834 221.695C350.373 222.117 348.229 222.187 345.363 222.187H344.045V211.676H351.481ZM375.756 210.164V214.822H377.971V216.439H375.756V221.783H373.805V210.164H375.756ZM376.389 224.156V225.738H365.578V220.57H367.529V224.156H376.389ZM367.688 211.219C370.096 211.219 371.959 212.888 371.977 215.226C371.959 217.529 370.096 219.217 367.688 219.217C365.279 219.217 363.381 217.529 363.399 215.226C363.381 212.888 365.279 211.219 367.688 211.219ZM367.688 212.924C366.352 212.924 365.297 213.82 365.315 215.226C365.297 216.597 366.352 217.494 367.688 217.494C369.024 217.494 370.061 216.597 370.061 215.226C370.061 213.82 369.024 212.924 367.688 212.924ZM392.086 210.164V219.603H390.135V215.719H387.428V214.119H390.135V210.164H392.086ZM386.707 220.008C390.082 220.008 392.139 221.115 392.139 223.031C392.139 224.947 390.082 226.055 386.707 226.055C383.35 226.055 381.293 224.947 381.311 223.031C381.293 221.115 383.35 220.008 386.707 220.008ZM386.707 221.502C384.492 221.502 383.244 222.029 383.244 223.031C383.244 224.015 384.492 224.543 386.707 224.543C388.922 224.543 390.188 224.015 390.188 223.031C390.188 222.029 388.922 221.502 386.707 221.502ZM384.615 212.888C384.615 214.822 385.899 216.773 388.359 217.599L387.375 219.146C385.608 218.549 384.352 217.336 383.666 215.842C382.963 217.538 381.636 218.891 379.746 219.568L378.727 218.021C381.275 217.142 382.629 214.998 382.629 212.906V212.783H379.324V211.201H387.902V212.783H384.615V212.888ZM400.172 212.888C400.172 214.822 401.455 216.773 403.916 217.599L402.932 219.111C401.156 218.531 399.9 217.327 399.205 215.842C398.511 217.503 397.184 218.839 395.303 219.463L394.301 217.916C396.832 217.09 398.186 214.98 398.186 212.906V212.695H394.881V211.131H403.459V212.695H400.172V212.888ZM407.643 220.394V226.055H405.691V221.959H396.815V220.394H407.643ZM407.643 210.164V219.638H405.691V215.701H402.984V214.101H405.691V210.164H407.643ZM423.129 210.181V221.66H421.16V210.181H423.129ZM423.568 224.156V225.738H412.617V220.5H414.586V224.156H423.568ZM414.463 211.219C416.871 211.219 418.734 212.888 418.734 215.191C418.734 217.547 416.871 219.181 414.463 219.181C412.037 219.181 410.174 217.547 410.174 215.191C410.174 212.888 412.037 211.219 414.463 211.219ZM414.463 212.924C413.109 212.924 412.072 213.82 412.09 215.191C412.072 216.597 413.109 217.476 414.463 217.476C415.781 217.476 416.818 216.597 416.818 215.191C416.818 213.82 415.781 212.924 414.463 212.924ZM435.592 213.978C435.592 216.931 436.998 219.832 439.529 220.939L438.352 222.504C436.55 221.625 435.284 219.937 434.608 217.863C433.913 220.052 432.621 221.871 430.793 222.803L429.563 221.221C432.147 220.008 433.588 216.949 433.606 213.978V211.447H435.592V213.978ZM443.045 210.164V226.072H441.111V216.879H437.772V215.297H441.111V210.164H443.045ZM458.496 210.164V226.072H456.527V210.164H458.496ZM448.072 211.465V215.437H451.922V211.465H453.856V222.328H446.121V211.465H448.072ZM448.072 220.728H451.922V216.967H448.072V220.728ZM469.043 212.344C469.043 214.805 471.451 217.265 474.774 217.846L473.895 219.48C471.232 218.918 469.052 217.309 468.024 215.174C466.969 217.292 464.789 218.909 462.135 219.48L461.274 217.846C464.561 217.248 466.951 214.787 466.969 212.344V211.166H469.043V212.344ZM475.354 222.416V224.033H460.834V222.416H475.354ZM490.893 217.371V218.847H476.373V217.371H490.893ZM489.135 219.797V223.418H480.029V224.525H489.609V225.879H478.078V222.152H487.201V221.168H478.061V219.797H489.135ZM489.1 210.515V214.101H480.152V215.138H489.381V216.474H478.219V212.836H487.149V211.869H478.166V210.515H489.1ZM501.404 210.867C503.813 210.849 505.57 212.221 505.57 214.207C505.57 216.158 503.813 217.547 501.404 217.529C499.014 217.547 497.274 216.158 497.274 214.207C497.274 212.221 499.014 210.849 501.404 210.867ZM501.404 212.449C500.104 212.431 499.154 213.117 499.172 214.207C499.154 215.279 500.104 215.93 501.404 215.93C502.758 215.93 503.707 215.279 503.707 214.207C503.707 213.117 502.758 212.431 501.404 212.449ZM509.508 210.181V226.037H507.574V210.181H509.508ZM496.236 218.619C499.102 218.619 503.109 218.566 506.537 218.056L506.678 219.498C505.307 219.762 503.883 219.929 502.494 220.025V225.562H500.525V220.148C499.058 220.21 497.678 220.219 496.483 220.236L496.236 218.619ZM519.527 212.695V214.26H511.74V212.695H514.693V210.621H516.627V212.695H519.527ZM515.66 215.103C517.682 215.103 519.123 216.633 519.123 218.795C519.123 220.992 517.682 222.539 515.66 222.539C513.656 222.539 512.18 220.992 512.197 218.795C512.18 216.633 513.656 215.103 515.66 215.103ZM515.66 216.721C514.623 216.721 513.902 217.547 513.92 218.795C513.902 220.078 514.623 220.887 515.66 220.869C516.68 220.887 517.4 220.078 517.4 218.795C517.4 217.547 516.68 216.721 515.66 216.721ZM525.434 210.164V226.055H523.57V218.285H522.024V225.334H520.195V210.498H522.024V216.703H523.57V210.164H525.434ZM300.284 245.978C300.267 248.896 301.796 251.814 304.38 252.922L303.22 254.486C301.392 253.642 300.047 251.955 299.317 249.881C298.588 252.122 297.226 253.95 295.292 254.855L294.097 253.221C296.751 252.078 298.298 249.037 298.298 245.978V243.447H300.284V245.978ZM307.491 242.164V258.072H305.523V242.164H307.491ZM318.038 244.344C318.038 246.805 320.446 249.265 323.769 249.846L322.89 251.48C320.227 250.918 318.047 249.309 317.019 247.174C315.964 249.292 313.784 250.909 311.13 251.48L310.269 249.846C313.556 249.248 315.946 246.787 315.964 244.344V243.166H318.038V244.344ZM324.349 254.416V256.033H309.829V254.416H324.349ZM332.101 243.148V244.73H327.935V246.224H331.503V247.736H327.935V249.371C329.842 249.353 331.151 249.283 332.698 249.002L332.909 250.531C331.081 250.865 329.569 250.935 327.108 250.935H326.054V243.148H332.101ZM338.974 242.164V251.674H337.11V242.164H338.974ZM335.845 242.428V251.551H333.982V247.631H332.189V246.049H333.982V242.428H335.845ZM338.974 252.342V257.861H328.251V252.342H338.974ZM330.202 253.888V256.279H337.04V253.888H330.202ZM357.8 242.181V246.805H359.944V248.422H357.8V252.922H355.849V242.181H357.8ZM345.073 251.023C346.269 251.023 347.649 251.014 349.081 250.971V250.004C347.315 249.784 346.198 248.931 346.198 247.683C346.198 246.224 347.728 245.31 350.03 245.328C352.351 245.31 353.862 246.224 353.862 247.683C353.862 248.923 352.773 249.766 351.032 249.986V250.9C352.386 250.839 353.748 250.733 355.023 250.566L355.181 251.92C351.788 252.517 348.079 252.553 345.284 252.553L345.073 251.023ZM357.8 253.607V258.055H355.849V255.137H347.077V253.607H357.8ZM354.601 243.43V244.871H345.478V243.43H349.081V242.041H351.032V243.43H354.601ZM350.03 246.646C348.8 246.629 348.062 246.998 348.079 247.683C348.062 248.334 348.8 248.756 350.03 248.738C351.261 248.756 351.999 248.334 351.999 247.683C351.999 246.998 351.261 246.629 350.03 246.646ZM366.466 245.029C366.466 246.98 367.732 248.808 370.21 249.564L369.278 251.094C367.494 250.54 366.229 249.406 365.534 247.965C364.831 249.635 363.486 250.962 361.579 251.603L360.595 250.056C363.161 249.213 364.497 247.156 364.497 245.047V244.853H361.14V243.271H369.771V244.853H366.466V245.029ZM373.304 242.164V245.978H375.519V247.578H373.304V251.638H371.353V242.164H373.304ZM368.136 251.99C371.423 251.99 373.444 253.097 373.462 254.996C373.444 256.912 371.423 258.037 368.136 258.037C364.814 258.037 362.757 256.912 362.757 254.996C362.757 253.097 364.814 251.99 368.136 251.99ZM368.136 253.519C365.956 253.519 364.708 254.029 364.708 254.996C364.708 255.98 365.956 256.508 368.136 256.508C370.316 256.508 371.528 255.98 371.528 254.996C371.528 254.029 370.316 253.519 368.136 253.519ZM386.294 244.924C386.294 246.875 387.56 248.808 390.056 249.635L389.071 251.146C387.296 250.557 386.03 249.362 385.345 247.877C384.633 249.503 383.315 250.795 381.46 251.428L380.423 249.916C382.989 249.072 384.325 247.015 384.325 244.924V244.73H380.968V243.166H389.599V244.73H386.294V244.924ZM393.132 242.164V246.137H395.347V247.771H393.132V251.744H391.181V242.164H393.132ZM393.132 252.482V258.055H391.181V254.047H382.55V252.482H393.132ZM400.567 242.867C402.624 242.849 404.241 244.036 404.646 245.785H407.511V242.164H409.462V250.689H407.511V247.367H404.663C404.268 249.151 402.633 250.355 400.567 250.355C398.124 250.355 396.366 248.791 396.366 246.594C396.366 244.431 398.124 242.849 400.567 242.867ZM400.567 244.502C399.196 244.502 398.23 245.31 398.23 246.594C398.23 247.859 399.196 248.703 400.567 248.703C401.903 248.703 402.853 247.859 402.87 246.594C402.853 245.31 401.903 244.502 400.567 244.502ZM400.919 251.428V253.115H407.511V251.428H409.462V257.861H398.985V251.428H400.919ZM400.919 256.279H407.511V254.627H400.919V256.279ZM418.937 242.41C422.558 242.41 424.65 243.377 424.667 245.135C424.65 246.91 422.558 247.859 418.937 247.877C415.316 247.859 413.206 246.91 413.206 245.135C413.206 243.377 415.316 242.41 418.937 242.41ZM418.937 243.851C416.511 243.851 415.245 244.308 415.263 245.135C415.245 246.013 416.511 246.418 418.937 246.418C421.398 246.418 422.646 246.013 422.646 245.135C422.646 244.308 421.398 243.851 418.937 243.851ZM426.196 248.721V250.285H411.712V248.721H426.196ZM424.386 251.357V255.242H415.351V256.42H424.825V257.914H413.435V253.853H422.47V252.799H413.417V251.357H424.386ZM444.724 242.885V244.449H440.118C440.294 245.943 442.236 247.367 445.304 247.736L444.566 249.283C441.718 248.94 439.617 247.683 438.765 245.961C437.912 247.675 435.829 248.94 432.982 249.283L432.261 247.736C435.328 247.367 437.244 245.943 437.429 244.449H432.858V242.885H444.724ZM446.042 250.162V251.744H439.907V254.644H437.974V251.744H431.523V250.162H446.042ZM444.442 256.156V257.738H433.28V253.185H435.232V256.156H444.442ZM460.316 242.164V258.072H458.347V242.164H460.316ZM449.892 243.465V247.437H453.741V243.465H455.675V254.328H447.941V243.465H449.892ZM449.892 252.728H453.741V248.967H449.892V252.728ZM475.099 242.164V248.492H477.542V250.109H475.099V258.055H473.165V242.164H475.099ZM471.935 244.607V246.172H462.566V244.607H466.327V242.392H468.278V244.607H471.935ZM467.312 247.209C469.597 247.209 471.302 248.756 471.302 250.953C471.302 253.15 469.597 254.68 467.312 254.68C464.991 254.68 463.286 253.15 463.304 250.953C463.286 248.756 464.991 247.209 467.312 247.209ZM467.312 248.808C466.064 248.808 465.167 249.652 465.167 250.953C465.167 252.254 466.064 253.08 467.312 253.062C468.525 253.08 469.421 252.254 469.439 250.953C469.421 249.652 468.525 248.808 467.312 248.808ZM491.183 243.623V245.152C491.165 247.121 491.165 249.336 490.55 252.658L488.581 252.447C489.196 249.353 489.196 247.095 489.214 245.187H479.722V243.623H491.183ZM492.694 254.398V255.998H478.21V254.398H483.554V248.879H485.487V254.398H492.694ZM503.681 252.5C503.681 253.818 504.287 255.207 505.65 256.068C507.029 255.145 507.671 253.704 507.689 252.5V251.849H509.605V252.5C509.587 254.17 510.571 255.717 512.663 256.385L511.714 257.808C510.167 257.29 509.139 256.279 508.585 255.013C508.075 256.262 507.135 257.378 505.702 257.949C504.191 257.404 503.241 256.332 502.749 255.066C502.178 256.288 501.167 257.281 499.691 257.808L498.724 256.385C500.78 255.664 501.765 254.047 501.782 252.5V251.849H503.681V252.5ZM511.275 242.181V251.181H509.306V242.181H511.275ZM502.608 243.025C505.052 243.025 506.88 244.572 506.88 246.805C506.88 249.019 505.052 250.566 502.608 250.566C500.148 250.566 498.319 249.019 498.319 246.805C498.319 244.572 500.148 243.025 502.608 243.025ZM502.608 244.678C501.22 244.678 500.218 245.504 500.235 246.805C500.218 248.105 501.22 248.949 502.608 248.949C503.98 248.949 504.964 248.105 504.964 246.805C504.964 245.504 503.98 244.678 502.608 244.678ZM517.269 251.691V253.203H524.265V251.691H526.216V257.861H515.335V251.691H517.269ZM517.269 256.314H524.265V254.697H517.269V256.314ZM528.079 249.195V250.795H513.595V249.195H528.079ZM521.839 242.937C521.839 244.642 524.019 246.435 527.306 246.822L526.62 248.369C523.957 248.009 521.857 246.831 520.837 245.222C519.809 246.84 517.699 248.009 515.054 248.369L514.333 246.822C517.655 246.418 519.818 244.695 519.835 242.937V242.34H521.839V242.937ZM542.405 242.164V258.055H540.472V242.164H542.405ZM531.999 243.711V252.394C534.232 252.359 536.605 252.157 539.048 251.674L539.294 253.308C536.499 253.888 533.898 254.064 531.437 254.064H530.066V243.711H531.999ZM557.153 242.164V248.193H559.597V249.793H557.153V258.072H555.202V242.164H557.153ZM552.794 243.676V245.258H547.31V252.553C549.779 252.553 551.731 252.43 553.919 252.043L554.148 253.695C551.687 254.117 549.542 254.187 546.677 254.187H545.359V243.676H552.794ZM562.198 256.631C561.443 256.631 560.827 256.015 560.827 255.26C560.827 254.521 561.443 253.906 562.198 253.906C562.919 253.906 563.552 254.521 563.552 255.26C563.552 256.015 562.919 256.631 562.198 256.631Z" fill="#484848"/>
</svg>
