<svg width="1021" height="281" viewBox="0 0 1021 281" fill="none" xmlns="http://www.w3.org/2000/svg">
<circle cx="510.805" cy="40.6289" r="40" fill="#101B49"/>
<path d="M514.81 15.3926L514.189 50.9509H507.353L506.732 15.3926H514.81ZM510.806 65.8647C508.113 65.8647 505.834 63.6552 505.903 60.9625C505.834 58.2697 508.113 56.0603 510.806 56.0603C513.429 56.0603 515.708 58.2697 515.708 60.9625C515.708 63.6552 513.429 65.8647 510.806 65.8647Z" fill="white"/>
<path d="M350.902 124.723C350.902 131.402 353.598 137.887 359.535 140.465L356.488 144.449C352.543 142.516 349.906 138.98 348.441 134.605C346.879 139.254 344.144 143.062 340.082 145.074L336.957 141.012C343.051 138.277 345.824 131.402 345.863 124.723V119.41H350.902V124.723ZM367.465 116.676V152.301H362.543V131.871H355.551V127.848H362.543V116.676H367.465ZM401.801 116.676V152.301H396.762V116.676H401.801ZM378.793 119.488V128.16H386.449V119.488H391.371V143.98H373.793V119.488H378.793ZM378.793 139.957H386.449V132.027H378.793V139.957ZM425.316 121.363C425.316 126.559 429.926 132.145 437.973 133.512L435.785 137.652C429.594 136.422 424.984 132.945 422.699 128.355C420.336 132.906 415.726 136.402 409.574 137.652L407.426 133.512C415.316 132.105 419.965 126.52 420.004 121.363V118.785H425.316V121.363ZM439.144 143.746V147.848H406.605V143.746H439.144ZM479.887 118.199V122.105H470.082C470.668 125.035 474.34 128.004 481.371 128.785L479.535 132.691C472.875 131.949 468.422 129.176 466.566 125.504C464.691 129.156 460.277 131.949 453.637 132.691L451.84 128.785C458.871 128.004 462.504 124.996 463.09 122.105H453.363V118.199H479.887ZM482.894 134.371V138.355H469.496V144.488H464.574V138.355H450.355V134.371H482.894ZM479.301 147.613V151.598H454.183V141.324H459.144V147.613H479.301ZM514.73 116.676V152.301H509.691V116.676H514.73ZM491.723 119.488V128.16H499.379V119.488H504.301V143.98H486.723V119.488H491.723ZM491.723 139.957H499.379V132.027H491.723V139.957ZM561.176 132.809V136.832H547.426V139.449C553.617 139.918 557.269 142.145 557.308 145.816C557.269 149.918 552.621 152.223 544.926 152.223C537.113 152.223 532.465 149.918 532.465 145.816C532.465 142.125 536.156 139.898 542.465 139.449V136.832H528.754V132.809H561.176ZM544.926 143.121C540.004 143.16 537.504 144.02 537.543 145.816C537.504 147.535 540.004 148.473 544.926 148.473C549.73 148.473 552.269 147.535 552.308 145.816C552.269 144.02 549.73 143.16 544.926 143.121ZM558.246 118.199V122.105H548.598C549.437 124.605 553.051 127.008 559.808 127.574L558.051 131.48C551.351 130.836 546.82 128.297 544.926 124.84C543.051 128.297 538.598 130.836 531.84 131.48L530.199 127.574C536.781 127.008 540.414 124.586 541.332 122.105H531.723V118.199H558.246ZM602.308 116.676V135.777H597.308V116.676H602.308ZM583.441 137.34V140.66H597.348V137.34H602.308V151.832H578.519V137.34H583.441ZM583.441 147.809H597.348V144.527H583.441V147.809ZM582.816 118.16C588.363 118.121 592.543 121.598 592.543 126.598C592.543 131.441 588.363 134.918 582.816 134.918C577.269 134.918 573.09 131.441 573.09 126.598C573.09 121.598 577.269 118.121 582.816 118.16ZM582.816 122.301C579.965 122.301 577.933 123.902 577.973 126.598C577.933 129.254 579.965 130.816 582.816 130.816C585.59 130.816 587.621 129.254 587.621 126.598C587.621 123.902 585.59 122.301 582.816 122.301ZM636.996 116.676V152.223H632.035V116.676H636.996ZM613.949 120.074V139.176C618.754 139.117 623.91 138.668 629.144 137.652L629.769 141.754C623.519 143.043 617.66 143.473 612.152 143.434H609.027V120.074H613.949ZM669.73 116.676V129.879H674.965V133.941H669.73V152.301H664.73V116.676H669.73ZM659.769 119.957V123.98H648.051V139.566C653.207 139.508 657.465 139.273 662.191 138.434L662.738 142.613C657.23 143.551 652.387 143.707 646.098 143.668H643.09V119.957H659.769ZM680.863 148.98C679.027 148.98 677.543 147.496 677.582 145.699C677.543 143.902 679.027 142.457 680.863 142.457C682.582 142.457 684.105 143.902 684.105 145.699C684.105 147.496 682.582 148.98 680.863 148.98Z" fill="#484848"/>
<path d="M390.199 225.304V227.525H370.033V225.304H378.724V221.007H372.255V209.581H374.965V213.194H385.194V209.581H387.904V221.007H381.41V225.304H390.199ZM374.965 218.81H385.194V215.367H374.965V218.81ZM408.925 208.116V216.49H412.318V218.712H408.925V230.211H406.215V208.116H408.925ZM402.87 210.216V212.413H395.253V222.545C398.683 222.545 401.393 222.374 404.432 221.837L404.75 224.132C401.332 224.718 398.353 224.815 394.374 224.815H392.543V210.216H402.87ZM436.586 208.116V214.586H439.662V216.832H436.586V224.254H433.876V208.116H436.586ZM437.465 227.55V229.747H422.45V222.569H425.16V227.55H437.465ZM425.38 209.581C428.724 209.581 431.312 211.9 431.337 215.147C431.312 218.346 428.724 220.689 425.38 220.689C422.035 220.689 419.398 218.346 419.423 215.147C419.398 211.9 422.035 209.581 425.38 209.581ZM425.38 211.949C423.524 211.949 422.059 213.194 422.084 215.147C422.059 217.052 423.524 218.297 425.38 218.297C427.235 218.297 428.676 217.052 428.676 215.147C428.676 213.194 427.235 211.949 425.38 211.949ZM459.266 208.116V221.227H456.557V215.831H452.797V213.609H456.557V208.116H459.266ZM451.796 221.788C456.483 221.788 459.34 223.326 459.34 225.987C459.34 228.648 456.483 230.187 451.796 230.187C447.133 230.187 444.276 228.648 444.301 225.987C444.276 223.326 447.133 221.788 451.796 221.788ZM451.796 223.863C448.72 223.863 446.986 224.596 446.986 225.987C446.986 227.354 448.72 228.087 451.796 228.087C454.872 228.087 456.63 227.354 456.63 225.987C456.63 224.596 454.872 223.863 451.796 223.863ZM448.891 211.9C448.891 214.586 450.673 217.296 454.091 218.443L452.724 220.592C450.27 219.762 448.524 218.077 447.572 216.002C446.596 218.358 444.752 220.238 442.128 221.178L440.712 219.029C444.252 217.809 446.132 214.83 446.132 211.925V211.754H441.542V209.557H453.456V211.754H448.891V211.9ZM470.497 211.9C470.497 214.586 472.279 217.296 475.697 218.443L474.33 220.543C471.864 219.737 470.119 218.065 469.154 216.002C468.19 218.309 466.347 220.165 463.734 221.031L462.343 218.883C465.858 217.735 467.738 214.806 467.738 211.925V211.632H463.148V209.459H475.062V211.632H470.497V211.9ZM480.873 222.325V230.187H478.163V224.498H465.834V222.325H480.873ZM480.873 208.116V221.275H478.163V215.807H474.403V213.585H478.163V208.116H480.873ZM502.382 208.141V224.083H499.647V208.141H502.382ZM502.992 227.55V229.747H487.782V222.472H490.516V227.55H502.992ZM490.346 209.581C493.69 209.581 496.278 211.9 496.278 215.099C496.278 218.37 493.69 220.641 490.346 220.641C486.976 220.641 484.389 218.37 484.389 215.099C484.389 211.9 486.976 209.581 490.346 209.581ZM490.346 211.949C488.466 211.949 487.025 213.194 487.05 215.099C487.025 217.052 488.466 218.272 490.346 218.272C492.177 218.272 493.617 217.052 493.617 215.099C493.617 213.194 492.177 211.949 490.346 211.949ZM519.691 213.414C519.691 217.516 521.644 221.544 525.16 223.082L523.524 225.255C521.022 224.034 519.264 221.69 518.324 218.81C517.36 221.849 515.565 224.376 513.026 225.67L511.317 223.473C514.906 221.788 516.908 217.54 516.932 213.414V209.898H519.691V213.414ZM530.043 208.116V230.211H527.357V217.442H522.719V215.245H527.357V208.116H530.043ZM551.503 208.116V230.211H548.768V208.116H551.503ZM537.025 209.923V215.44H542.372V209.923H545.057V225.011H534.315V209.923H537.025ZM537.025 222.789H542.372V217.564H537.025V222.789ZM566.151 211.144C566.151 214.562 569.496 217.979 574.11 218.785L572.89 221.056C569.191 220.274 566.163 218.041 564.735 215.074C563.27 218.016 560.243 220.262 556.557 221.056L555.36 218.785C559.926 217.955 563.246 214.537 563.27 211.144V209.508H566.151V211.144ZM574.916 225.133V227.379H554.75V225.133H574.916ZM596.498 218.126V220.177H576.332V218.126H596.498ZM594.057 221.495V226.524H581.41V228.062H594.716V229.942H578.7V224.767H591.371V223.399H578.676V221.495H594.057ZM594.008 208.604V213.585H581.581V215.025H594.398V216.881H578.895V211.827H591.298V210.484H578.822V208.604H594.008ZM611.098 209.093C614.442 209.068 616.884 210.973 616.884 213.731C616.884 216.441 614.442 218.37 611.098 218.346C607.777 218.37 605.36 216.441 605.36 213.731C605.36 210.973 607.777 209.068 611.098 209.093ZM611.098 211.29C609.291 211.266 607.973 212.218 607.997 213.731C607.973 215.221 609.291 216.124 611.098 216.124C612.977 216.124 614.296 215.221 614.296 213.731C614.296 212.218 612.977 211.266 611.098 211.29ZM622.352 208.141V230.162H619.667V208.141H622.352ZM603.92 219.859C607.899 219.859 613.466 219.786 618.226 219.078L618.422 221.08C616.517 221.446 614.54 221.678 612.611 221.812V229.503H609.877V221.983C607.838 222.069 605.922 222.081 604.262 222.105L603.92 219.859ZM636.268 211.632V213.805H625.453V211.632H629.555V208.751H632.24V211.632H636.268ZM630.897 214.977C633.705 214.977 635.707 217.101 635.707 220.104C635.707 223.155 633.705 225.304 630.897 225.304C628.114 225.304 626.063 223.155 626.088 220.104C626.063 217.101 628.114 214.977 630.897 214.977ZM630.897 217.223C629.457 217.223 628.456 218.37 628.48 220.104C628.456 221.886 629.457 223.009 630.897 222.984C632.313 223.009 633.314 221.886 633.314 220.104C633.314 218.37 632.313 217.223 630.897 217.223ZM644.472 208.116V230.187H641.884V219.396H639.735V229.186H637.196V208.58H639.735V217.198H641.884V208.116H644.472ZM331.764 245.414C331.74 249.467 333.864 253.52 337.453 255.058L335.841 257.23C333.302 256.059 331.434 253.715 330.421 250.834C329.408 253.947 327.516 256.486 324.83 257.743L323.17 255.473C326.857 253.886 329.005 249.662 329.005 245.414V241.898H331.764V245.414ZM341.774 240.116V262.211H339.039V240.116H341.774ZM356.422 243.144C356.422 246.562 359.767 249.979 364.381 250.785L363.161 253.056C359.462 252.274 356.434 250.041 355.006 247.074C353.541 250.016 350.514 252.262 346.828 253.056L345.631 250.785C350.197 249.955 353.517 246.537 353.541 243.144V241.508H356.422V243.144ZM365.187 257.133V259.379H345.021V257.133H365.187ZM375.953 241.483V243.681H370.167V245.756H375.123V247.855H370.167V250.126C372.816 250.102 374.635 250.004 376.784 249.613L377.077 251.737C374.537 252.201 372.438 252.299 369.02 252.299H367.555V241.483H375.953ZM385.499 240.116V253.324H382.911V240.116H385.499ZM381.154 240.482V253.153H378.566V247.709H376.076V245.512H378.566V240.482H381.154ZM385.499 254.252V261.918H370.607V254.252H385.499ZM373.317 256.4V259.721H382.814V256.4H373.317ZM411.647 240.141V246.562H414.625V248.808H411.647V255.058H408.937V240.141H411.647ZM393.971 252.421C395.631 252.421 397.548 252.409 399.537 252.348V251.005C397.084 250.7 395.534 249.516 395.534 247.782C395.534 245.756 397.658 244.486 400.856 244.511C404.078 244.486 406.178 245.756 406.178 247.782C406.178 249.503 404.664 250.675 402.247 250.98V252.25C404.127 252.165 406.019 252.018 407.789 251.786L408.009 253.666C403.297 254.496 398.146 254.545 394.264 254.545L393.971 252.421ZM411.647 256.01V262.187H408.937V258.134H396.754V256.01H411.647ZM407.203 241.874V243.876H394.533V241.874H399.537V239.945H402.247V241.874H407.203ZM400.856 246.342C399.147 246.317 398.121 246.83 398.146 247.782C398.121 248.686 399.147 249.271 400.856 249.247C402.565 249.271 403.59 248.686 403.59 247.782C403.59 246.83 402.565 246.317 400.856 246.342ZM423.683 244.096C423.683 246.806 425.441 249.345 428.883 250.395L427.589 252.519C425.111 251.75 423.353 250.175 422.389 248.173C421.412 250.492 419.545 252.335 416.896 253.227L415.529 251.078C419.093 249.906 420.949 247.05 420.949 244.12V243.852H416.286V241.654H428.273V243.852H423.683V244.096ZM433.18 240.116V245.414H436.256V247.636H433.18V253.275H430.47V240.116H433.18ZM426.002 253.764C430.568 253.764 433.375 255.302 433.4 257.938C433.375 260.6 430.568 262.162 426.002 262.162C421.388 262.162 418.532 260.6 418.532 257.938C418.532 255.302 421.388 253.764 426.002 253.764ZM426.002 255.888C422.975 255.888 421.242 256.596 421.242 257.938C421.242 259.306 422.975 260.038 426.002 260.038C429.03 260.038 430.714 259.306 430.714 257.938C430.714 256.596 429.03 255.888 426.002 255.888ZM451.222 243.949C451.222 246.659 452.98 249.345 456.447 250.492L455.079 252.592C452.614 251.774 450.856 250.114 449.904 248.051C448.915 250.309 447.084 252.104 444.508 252.982L443.068 250.883C446.632 249.711 448.488 246.854 448.488 243.949V243.681H443.825V241.508H455.812V243.681H451.222V243.949ZM460.719 240.116V245.634H463.795V247.904H460.719V253.422H458.009V240.116H460.719ZM460.719 254.447V262.187H458.009V256.62H446.022V254.447H460.719ZM471.046 241.093C473.903 241.068 476.149 242.716 476.71 245.146H480.69V240.116H483.4V251.957H480.69V247.343H476.735C476.185 249.821 473.915 251.493 471.046 251.493C467.653 251.493 465.211 249.32 465.211 246.269C465.211 243.266 467.653 241.068 471.046 241.093ZM471.046 243.363C469.142 243.363 467.799 244.486 467.799 246.269C467.799 248.026 469.142 249.198 471.046 249.198C472.902 249.198 474.22 248.026 474.245 246.269C474.22 244.486 472.902 243.363 471.046 243.363ZM471.535 252.982V255.326H480.69V252.982H483.4V261.918H468.849V252.982H471.535ZM471.535 259.721H480.69V257.426H471.535V259.721ZM496.559 240.458C501.588 240.458 504.494 241.801 504.518 244.242C504.494 246.708 501.588 248.026 496.559 248.051C491.53 248.026 488.6 246.708 488.6 244.242C488.6 241.801 491.53 240.458 496.559 240.458ZM496.559 242.46C493.19 242.46 491.432 243.095 491.456 244.242C491.432 245.463 493.19 246.024 496.559 246.024C499.977 246.024 501.71 245.463 501.71 244.242C501.71 243.095 499.977 242.46 496.559 242.46ZM506.642 249.223V251.396H486.525V249.223H506.642ZM504.127 252.885V258.28H491.578V259.916H504.738V261.991H488.917V256.352H501.466V254.887H488.893V252.885H504.127ZM532.374 241.117V243.29H525.978C526.222 245.365 528.92 247.343 533.18 247.855L532.155 250.004C528.2 249.528 525.282 247.782 524.098 245.39C522.914 247.77 520.021 249.528 516.066 250.004L515.065 247.855C519.325 247.343 521.986 245.365 522.243 243.29H515.895V241.117H532.374ZM534.205 251.225V253.422H525.685V257.45H522.999V253.422H514.039V251.225H534.205ZM531.984 259.55V261.747H516.481V255.424H519.191V259.55H531.984ZM554.03 240.116V262.211H551.295V240.116H554.03ZM539.552 241.923V247.44H544.899V241.923H547.584V257.011H536.842V241.923H539.552ZM539.552 254.789H544.899V249.564H539.552V254.789ZM574.562 240.116V248.905H577.955V251.151H574.562V262.187H571.876V240.116H574.562ZM570.167 243.51V245.683H557.155V243.51H562.379V240.434H565.089V243.51H570.167ZM563.746 247.123C566.92 247.123 569.288 249.271 569.288 252.323C569.288 255.375 566.92 257.499 563.746 257.499C560.524 257.499 558.156 255.375 558.18 252.323C558.156 249.271 560.524 247.123 563.746 247.123ZM563.746 249.345C562.013 249.345 560.768 250.517 560.768 252.323C560.768 254.13 562.013 255.277 563.746 255.253C565.431 255.277 566.676 254.13 566.701 252.323C566.676 250.517 565.431 249.345 563.746 249.345ZM596.901 242.143V244.267C596.876 247.001 596.876 250.077 596.022 254.691L593.287 254.398C594.142 250.102 594.142 246.964 594.166 244.315H580.983V242.143H596.901ZM599 257.108V259.33H578.883V257.108H586.305V249.442H588.991V257.108H599ZM614.259 254.472C614.259 256.303 615.101 258.231 616.994 259.428C618.91 258.146 619.801 256.144 619.826 254.472V253.568H622.487V254.472C622.462 256.791 623.829 258.939 626.735 259.867L625.416 261.845C623.268 261.125 621.84 259.721 621.071 257.963C620.363 259.696 619.057 261.247 617.067 262.04C614.967 261.283 613.649 259.794 612.965 258.036C612.172 259.733 610.768 261.112 608.717 261.845L607.374 259.867C610.231 258.866 611.598 256.62 611.622 254.472V253.568H614.259V254.472ZM624.806 240.141V252.641H622.072V240.141H624.806ZM612.77 241.312C616.163 241.312 618.703 243.461 618.703 246.562C618.703 249.638 616.163 251.786 612.77 251.786C609.352 251.786 606.813 249.638 606.813 246.562C606.813 243.461 609.352 241.312 612.77 241.312ZM612.77 243.607C610.841 243.607 609.45 244.755 609.474 246.562C609.45 248.368 610.841 249.54 612.77 249.54C614.674 249.54 616.041 248.368 616.041 246.562C616.041 244.755 614.674 243.607 612.77 243.607ZM633.131 253.349V255.448H642.848V253.349H645.558V261.918H630.446V253.349H633.131ZM633.131 259.77H642.848V257.523H633.131V259.77ZM648.146 249.882V252.104H628.029V249.882H648.146ZM639.479 241.19C639.479 243.559 642.506 246.049 647.072 246.586L646.12 248.734C642.421 248.234 639.503 246.598 638.087 244.364C636.659 246.61 633.729 248.234 630.055 248.734L629.054 246.586C633.668 246.024 636.671 243.632 636.696 241.19V240.36H639.479V241.19ZM668.043 240.116V262.187H665.358V240.116H668.043ZM653.59 242.265V254.325C656.691 254.276 659.987 253.996 663.38 253.324L663.722 255.595C659.84 256.4 656.227 256.645 652.809 256.645H650.905V242.265H653.59ZM688.527 240.116V248.49H691.92V250.712H688.527V262.211H685.817V240.116H688.527ZM682.472 242.216V244.413H674.855V254.545C678.285 254.545 680.995 254.374 684.035 253.837L684.352 256.132C680.934 256.718 677.955 256.815 673.976 256.815H672.145V242.216H682.472ZM695.534 260.209C694.484 260.209 693.629 259.354 693.629 258.305C693.629 257.279 694.484 256.425 695.534 256.425C696.535 256.425 697.413 257.279 697.413 258.305C697.413 259.354 696.535 260.209 695.534 260.209Z" fill="#484848"/>
</svg>
