<svg xmlns="http://www.w3.org/2000/svg" width="1021" height="281" fill="none"><circle cx="510.805" cy="40.629" r="40" fill="#101B49"/><path fill="#fff" d="m514.81 15.393-.621 35.558h-6.836l-.621-35.558zm-4.004 50.472c-2.693 0-4.972-2.21-4.903-4.902-.069-2.693 2.21-4.903 4.903-4.903 2.623 0 4.902 2.21 4.902 4.902s-2.279 4.903-4.902 4.903"/><path fill="#484848" d="M350.902 124.723c0 6.679 2.696 13.164 8.633 15.742l-3.047 3.984c-3.945-1.933-6.582-5.469-8.047-9.844-1.562 4.649-4.297 8.457-8.359 10.469l-3.125-4.062c6.094-2.735 8.867-9.61 8.906-16.289v-5.313h5.039zm16.563-8.047v35.625h-4.922v-20.43h-6.992v-4.023h6.992v-11.172zm34.336 0v35.625h-5.039v-35.625zm-23.008 2.812v8.672h7.656v-8.672h4.922v24.492h-17.578v-24.492zm0 20.469h7.656v-7.93h-7.656zm46.523-18.594c0 5.196 4.61 10.782 12.657 12.149l-2.188 4.14c-6.191-1.23-10.801-4.707-13.086-9.297-2.363 4.551-6.973 8.047-13.125 9.297l-2.148-4.14c7.89-1.407 12.539-6.992 12.578-12.149v-2.578h5.312zm13.828 22.383v4.102h-32.539v-4.102zm40.743-25.547v3.906h-9.805c.586 2.93 4.258 5.899 11.289 6.68l-1.836 3.906c-6.66-.742-11.113-3.515-12.969-7.187-1.875 3.652-6.289 6.445-12.929 7.187l-1.797-3.906c7.031-.781 10.664-3.789 11.25-6.68h-9.727v-3.906zm3.007 16.172v3.984h-13.398v6.133h-4.922v-6.133h-14.219v-3.984zm-3.593 13.242v3.985h-25.118v-10.274h4.961v6.289zm35.429-30.937v35.625h-5.039v-35.625zm-23.007 2.812v8.672h7.656v-8.672h4.922v24.492h-17.578v-24.492zm0 20.469h7.656v-7.93h-7.656zm69.453-7.148v4.023h-13.75v2.617c6.191.469 9.843 2.696 9.882 6.367-.039 4.102-4.687 6.407-12.382 6.407-7.813 0-12.461-2.305-12.461-6.407 0-3.691 3.691-5.918 10-6.367v-2.617h-13.711v-4.023zm-16.25 10.312c-4.922.039-7.422.899-7.383 2.695-.039 1.719 2.461 2.657 7.383 2.657 4.804 0 7.343-.938 7.382-2.657-.039-1.796-2.578-2.656-7.382-2.695m13.32-24.922v3.906h-9.648c.839 2.5 4.453 4.903 11.21 5.469l-1.757 3.906c-6.7-.644-11.231-3.183-13.125-6.64-1.875 3.457-6.328 5.996-13.086 6.64l-1.641-3.906c6.582-.566 10.215-2.988 11.133-5.469h-9.609v-3.906zm44.062-1.523v19.101h-5v-19.101zm-18.867 20.664v3.32h13.907v-3.32h4.96v14.492h-23.789V137.34zm0 10.469h13.907v-3.282h-13.907zm-.625-29.649c5.547-.039 9.727 3.438 9.727 8.438 0 4.843-4.18 8.32-9.727 8.32s-9.726-3.477-9.726-8.32c0-5 4.179-8.477 9.726-8.438m0 4.141c-2.851 0-4.883 1.601-4.843 4.297-.04 2.656 1.992 4.218 4.843 4.218 2.774 0 4.805-1.562 4.805-4.218 0-2.696-2.031-4.297-4.805-4.297m54.18-5.625v35.547h-4.961v-35.547zm-23.047 3.398v19.102c4.805-.059 9.961-.508 15.195-1.524l.625 4.102c-6.25 1.289-12.109 1.719-17.617 1.68h-3.125v-23.36zm55.781-3.398v13.203h5.235v4.062h-5.235v18.36h-5v-35.625zm-9.961 3.281v4.023h-11.718v15.586c5.156-.058 9.414-.293 14.14-1.132l.547 4.179c-5.508.938-10.351 1.094-16.64 1.055h-3.008v-23.711zm21.094 29.023c-1.836 0-3.32-1.484-3.281-3.281-.039-1.797 1.445-3.242 3.281-3.242 1.719 0 3.242 1.445 3.242 3.242s-1.523 3.281-3.242 3.281M390.199 225.304v2.221h-20.166v-2.221h8.691v-4.297h-6.469v-11.426h2.71v3.613h10.229v-3.613h2.71v11.426h-6.494v4.297zm-15.234-6.494h10.229v-3.443h-10.229zm33.96-10.694v8.374h3.393v2.222h-3.393v11.499h-2.71v-22.095zm-6.055 2.1v2.197h-7.617v10.132c3.43 0 6.14-.171 9.179-.708l.318 2.295c-3.418.586-6.397.683-10.376.683h-1.831v-14.599zm33.716-2.1v6.47h3.076v2.246h-3.076v7.422h-2.71v-16.138zm.879 19.434v2.197H422.45v-7.178h2.71v4.981zm-12.085-17.969c3.344 0 5.932 2.319 5.957 5.566-.025 3.199-2.613 5.542-5.957 5.542-3.345 0-5.982-2.343-5.957-5.542-.025-3.247 2.612-5.566 5.957-5.566m0 2.368c-1.856 0-3.321 1.245-3.296 3.198-.025 1.905 1.44 3.15 3.296 3.15s3.296-1.245 3.296-3.15c0-1.953-1.441-3.198-3.296-3.198m33.886-3.833v13.111h-2.709v-5.396h-3.76v-2.222h3.76v-5.493zm-7.47 13.672c4.687 0 7.544 1.538 7.544 4.199s-2.857 4.2-7.544 4.2c-4.663 0-7.52-1.539-7.495-4.2-.025-2.661 2.832-4.199 7.495-4.199m0 2.075c-3.076 0-4.81.733-4.81 2.124 0 1.367 1.734 2.1 4.81 2.1s4.834-.733 4.834-2.1c0-1.391-1.758-2.124-4.834-2.124m-2.905-11.963c0 2.686 1.782 5.396 5.2 6.543l-1.367 2.149c-2.454-.83-4.2-2.515-5.152-4.59-.976 2.356-2.82 4.236-5.444 5.176l-1.416-2.149c3.54-1.22 5.42-4.199 5.42-7.104v-.171h-4.59v-2.197h11.914v2.197h-4.565zm21.606 0c0 2.686 1.782 5.396 5.2 6.543l-1.367 2.1c-2.466-.806-4.211-2.478-5.176-4.541-.964 2.307-2.807 4.163-5.42 5.029l-1.391-2.148c3.515-1.148 5.395-4.077 5.395-6.958v-.293h-4.59v-2.173h11.914v2.173h-4.565zm10.376 10.425v7.862h-2.71v-5.689h-12.329v-2.173zm0-14.209v13.159h-2.71v-5.468h-3.76v-2.222h3.76v-5.469zm21.509.025v15.942h-2.735v-15.942zm.61 19.409v2.197h-15.21v-7.275h2.734v5.078zm-12.646-17.969c3.344 0 5.932 2.319 5.932 5.518 0 3.271-2.588 5.542-5.932 5.542-3.37 0-5.957-2.271-5.957-5.542 0-3.199 2.587-5.518 5.957-5.518m0 2.368c-1.88 0-3.321 1.245-3.296 3.15-.025 1.953 1.416 3.173 3.296 3.173 1.831 0 3.271-1.22 3.271-3.173 0-1.905-1.44-3.15-3.271-3.15m29.345 1.465c0 4.102 1.953 8.13 5.469 9.668l-1.636 2.173c-2.502-1.221-4.26-3.565-5.2-6.445-.964 3.039-2.759 5.566-5.298 6.86l-1.709-2.197c3.589-1.685 5.591-5.933 5.615-10.059v-3.516h2.759zm10.352-5.298v22.095h-2.686v-12.769h-4.638v-2.197h4.638v-7.129zm21.46 0v22.095h-2.735v-22.095zm-14.478 1.807v5.517h5.347v-5.517h2.685v15.088h-10.742v-15.088zm0 12.866h5.347v-5.225h-5.347zm29.126-11.645c0 3.418 3.345 6.835 7.959 7.641l-1.22 2.271c-3.699-.782-6.727-3.015-8.155-5.982-1.465 2.942-4.492 5.188-8.178 5.982l-1.197-2.271c4.566-.83 7.886-4.248 7.91-7.641v-1.636h2.881zm8.765 13.989v2.246H554.75v-2.246zm21.582-7.007v2.051h-20.166v-2.051zm-2.441 3.369v5.029H581.41v1.538h13.306v1.88H578.7v-5.175h12.671v-1.368h-12.695v-1.904zm-.049-12.891v4.981h-12.427v1.44h12.817v1.856h-15.503v-5.054h12.403v-1.343h-12.476v-1.88zm17.09.489c3.344-.025 5.786 1.88 5.786 4.638 0 2.71-2.442 4.639-5.786 4.615-3.321.024-5.738-1.905-5.738-4.615 0-2.758 2.417-4.663 5.738-4.638m0 2.197c-1.807-.024-3.125.928-3.101 2.441-.024 1.49 1.294 2.393 3.101 2.393 1.879 0 3.198-.903 3.198-2.393 0-1.513-1.319-2.465-3.198-2.441m11.254-3.149v22.021h-2.685v-22.021zm-18.432 11.718c3.979 0 9.546-.073 14.306-.781l.196 2.002a49 49 0 0 1-5.811.732v7.691h-2.734v-7.52c-2.039.086-3.955.098-5.615.122zm32.348-8.227v2.173h-10.815v-2.173h4.102v-2.881h2.685v2.881zm-5.371 3.345c2.808 0 4.81 2.124 4.81 5.127 0 3.051-2.002 5.2-4.81 5.2-2.783 0-4.834-2.149-4.809-5.2-.025-3.003 2.026-5.127 4.809-5.127m0 2.246c-1.44 0-2.441 1.147-2.417 2.881-.024 1.782.977 2.905 2.417 2.88 1.416.025 2.417-1.098 2.417-2.88 0-1.734-1.001-2.881-2.417-2.881m13.575-9.107v22.071h-2.588v-10.791h-2.149v9.79h-2.539V208.58h2.539v8.618h2.149v-9.082zm-312.708 37.298c-.024 4.053 2.1 8.106 5.689 9.644l-1.612 2.172c-2.539-1.171-4.407-3.515-5.42-6.396-1.013 3.113-2.905 5.652-5.591 6.909l-1.66-2.27c3.687-1.587 5.835-5.811 5.835-10.059v-3.516h2.759zm10.01-5.298v22.095h-2.735v-22.095zm14.648 3.028c0 3.418 3.345 6.835 7.959 7.641l-1.22 2.271c-3.699-.782-6.727-3.015-8.155-5.982-1.465 2.942-4.492 5.188-8.178 5.982l-1.197-2.271c4.566-.83 7.886-4.248 7.91-7.641v-1.636h2.881zm8.765 13.989v2.246h-20.166v-2.246zm10.766-15.65v2.198h-5.786v2.075h4.956v2.099h-4.956v2.271c2.649-.024 4.468-.122 6.617-.513l.293 2.124c-2.54.464-4.639.562-8.057.562h-1.465v-10.816zm9.546-1.367v13.208h-2.588v-13.208zm-4.345.366v12.671h-2.588v-5.444h-2.49v-2.197h2.49v-5.03zm4.345 13.77v7.666h-14.892v-7.666zm-12.182 2.148v3.321h9.497V256.4zm38.33-16.259v6.421h2.978v2.246h-2.978v6.25h-2.71v-14.917zm-17.676 12.28c1.66 0 3.577-.012 5.566-.073v-1.343c-2.453-.305-4.003-1.489-4.003-3.223 0-2.026 2.124-3.296 5.322-3.271 3.222-.025 5.322 1.245 5.322 3.271 0 1.721-1.514 2.893-3.931 3.198v1.27a66 66 0 0 0 5.542-.464l.22 1.88c-4.712.83-9.863.879-13.745.879zm17.676 3.589v6.177h-2.71v-4.053h-12.183v-2.124zm-4.444-14.136v2.002h-12.67v-2.002h5.004v-1.929h2.71v1.929zm-6.347 4.468c-1.709-.025-2.735.488-2.71 1.44-.025.904 1.001 1.489 2.71 1.465 1.709.024 2.734-.561 2.734-1.465 0-.952-1.025-1.465-2.734-1.44m22.827-2.246c0 2.71 1.758 5.249 5.2 6.299l-1.294 2.124c-2.478-.769-4.236-2.344-5.2-4.346-.977 2.319-2.844 4.162-5.493 5.054l-1.367-2.149c3.564-1.172 5.42-4.028 5.42-6.958v-.268h-4.663v-2.198h11.987v2.198h-4.59zm9.497-3.98v5.298h3.076v2.222h-3.076v5.639h-2.71v-13.159zm-7.178 13.648c4.566 0 7.373 1.538 7.398 4.174-.025 2.662-2.832 4.224-7.398 4.224-4.614 0-7.47-1.562-7.47-4.224 0-2.636 2.856-4.174 7.47-4.174m0 2.124c-3.027 0-4.76.708-4.76 2.05 0 1.368 1.733 2.1 4.76 2.1 3.028 0 4.712-.732 4.712-2.1 0-1.342-1.684-2.05-4.712-2.05m25.22-11.939c0 2.71 1.758 5.396 5.225 6.543l-1.368 2.1c-2.465-.818-4.223-2.478-5.175-4.541-.989 2.258-2.82 4.053-5.396 4.931l-1.44-2.099c3.564-1.172 5.42-4.029 5.42-6.934v-.268h-4.663v-2.173h11.987v2.173h-4.59zm9.497-3.833v5.518h3.076v2.27h-3.076v5.518h-2.71v-13.306zm0 14.331v7.74h-2.71v-5.567h-11.987v-2.173zm10.327-13.354c2.857-.025 5.103 1.623 5.664 4.053h3.98v-5.03h2.71v11.841h-2.71v-4.614h-3.955c-.55 2.478-2.82 4.15-5.689 4.15-3.393 0-5.835-2.173-5.835-5.224 0-3.003 2.442-5.201 5.835-5.176m0 2.27c-1.904 0-3.247 1.123-3.247 2.906 0 1.757 1.343 2.929 3.247 2.929 1.856 0 3.174-1.172 3.199-2.929-.025-1.783-1.343-2.906-3.199-2.906m.489 9.619v2.344h9.155v-2.344h2.71v8.936h-14.551v-8.936zm0 6.739h9.155v-2.295h-9.155zm25.024-19.263c5.029 0 7.935 1.343 7.959 3.784-.024 2.466-2.93 3.784-7.959 3.809-5.029-.025-7.959-1.343-7.959-3.809 0-2.441 2.93-3.784 7.959-3.784m0 2.002c-3.369 0-5.127.635-5.103 1.782-.024 1.221 1.734 1.782 5.103 1.782 3.418 0 5.151-.561 5.151-1.782 0-1.147-1.733-1.782-5.151-1.782m10.083 6.763v2.173h-20.117v-2.173zm-2.515 3.662v5.395h-12.549v1.636h13.16v2.075h-15.821v-5.639h12.549v-1.465h-12.573v-2.002zm28.247-11.768v2.173h-6.396c.244 2.075 2.942 4.053 7.202 4.565l-1.025 2.149c-3.955-.476-6.873-2.222-8.057-4.614-1.184 2.38-4.077 4.138-8.032 4.614l-1.001-2.149c4.26-.512 6.921-2.49 7.178-4.565h-6.348v-2.173zm1.831 10.108v2.197h-8.52v4.028h-2.686v-4.028h-8.96v-2.197zm-2.221 8.325v2.197h-15.503v-6.323h2.71v4.126zm22.046-19.434v22.095h-2.735v-22.095zm-14.478 1.807v5.517h5.347v-5.517h2.685v15.088h-10.742v-15.088zm0 12.866h5.347v-5.225h-5.347zm35.01-14.673v8.789h3.393v2.246h-3.393v11.036h-2.686v-22.071zm-4.395 3.394v2.173h-13.012v-2.173h5.224v-3.076h2.71v3.076zm-6.421 3.613c3.174 0 5.542 2.148 5.542 5.2s-2.368 5.176-5.542 5.176c-3.222 0-5.59-2.124-5.566-5.176-.024-3.052 2.344-5.2 5.566-5.2m0 2.222c-1.733 0-2.978 1.172-2.978 2.978s1.245 2.954 2.978 2.93c1.685.024 2.93-1.123 2.955-2.93-.025-1.806-1.27-2.978-2.955-2.978m33.155-7.202v2.124c-.025 2.734-.025 5.81-.879 10.424l-2.735-.293c.855-4.296.855-7.434.879-10.083h-13.183v-2.172zM599 257.108v2.222h-20.117v-2.222h7.422v-7.666h2.686v7.666zm15.259-2.636c0 1.831.842 3.759 2.735 4.956 1.916-1.282 2.807-3.284 2.832-4.956v-.904h2.661v.904c-.025 2.319 1.342 4.467 4.248 5.395l-1.319 1.978c-2.148-.72-3.576-2.124-4.345-3.882-.708 1.733-2.014 3.284-4.004 4.077-2.1-.757-3.418-2.246-4.102-4.004-.793 1.697-2.197 3.076-4.248 3.809l-1.343-1.978c2.857-1.001 4.224-3.247 4.248-5.395v-.904h2.637zm10.547-14.331v12.5h-2.734v-12.5zm-12.036 1.171c3.393 0 5.933 2.149 5.933 5.25 0 3.076-2.54 5.224-5.933 5.224-3.418 0-5.957-2.148-5.957-5.224 0-3.101 2.539-5.25 5.957-5.25m0 2.295c-1.929 0-3.32 1.148-3.296 2.955-.024 1.806 1.367 2.978 3.296 2.978 1.904 0 3.271-1.172 3.271-2.978s-1.367-2.955-3.271-2.955m20.361 9.742v2.099h9.717v-2.099h2.71v8.569h-15.112v-8.569zm0 6.421h9.717v-2.247h-9.717zm15.015-9.888v2.222h-20.117v-2.222zm-8.667-8.692c0 2.369 3.027 4.859 7.593 5.396l-.952 2.148c-3.699-.5-6.617-2.136-8.033-4.37-1.428 2.246-4.358 3.87-8.032 4.37l-1.001-2.148c4.614-.562 7.617-2.954 7.642-5.396v-.83h2.783zm28.564-1.074v22.071h-2.685v-22.071zm-14.453 2.149v12.06c3.101-.049 6.397-.329 9.79-1.001l.342 2.271c-3.882.805-7.495 1.05-10.913 1.05h-1.904v-14.38zm34.937-2.149v8.374h3.393v2.222h-3.393v11.499h-2.71v-22.095zm-6.055 2.1v2.197h-7.617v10.132c3.43 0 6.14-.171 9.18-.708l.317 2.295c-3.418.586-6.397.683-10.376.683h-1.831v-14.599zm13.062 17.993a1.907 1.907 0 0 1-1.905-1.904c0-1.026.855-1.88 1.905-1.88 1.001 0 1.879.854 1.879 1.88 0 1.049-.878 1.904-1.879 1.904"/></svg>