<svg xmlns="http://www.w3.org/2000/svg" width="43" height="43" fill="none"><g filter="url(#a)"><path fill="#E4EFFC" d="M42 21.5C42 32.822 32.822 42 21.5 42S1 32.822 1 21.5 10.178 1 21.5 1 42 10.178 42 21.5"/></g><path stroke="#101B49" d="M28.613 24.52v-5.195c0-3.266-2.219-6.021-5.228-6.85l-.24-.066-.092-.231a1.66 1.66 0 0 0-1.553-1.053c-.708 0-1.307.434-1.552 1.053l-.092.23-.24.067c-3.01.83-5.228 3.584-5.228 6.85v5.194l-.147.147-1.856 1.856a.6.6 0 0 0-.172.416v1.087c0 .156.062.305.172.415m16.228-3.92-16.228 3.92m16.228-3.92.146.146 1.857 1.856c.11.11.172.26.172.416m-2.175-2.419 2.175 2.419M12.385 28.44c.11.11.26.172.415.172h17.4a.587.587 0 0 0 .588-.587v-1.087M12.385 28.44l18.403-1.502M21.5 31.875H21.5a2.74 2.74 0 0 1-2.253-1.175h4.507a2.74 2.74 0 0 1-2.253 1.175Z"/><defs><filter id="a" width="41.973" height="41.973" x=".513" y=".513" color-interpolation-filters="sRGB" filterUnits="userSpaceOnUse"><feFlood flood-opacity="0" result="BackgroundImageFix"/><feBlend in="SourceGraphic" in2="BackgroundImageFix" result="shape"/><feGaussianBlur result="effect1_foregroundBlur_794_424" stdDeviation=".243"/></filter></defs></svg>