<svg width="43" height="43" version="1.1" xmlns="http://www.w3.org/2000/svg" desc="Created with imagetracer.js version 1.2.6" ><path fill="rgb(169,181,203)" stroke="rgb(169,181,203)" stroke-width="1" opacity="0.7764705882352941" d="M 18.5 12 L 19.5 14 L 18.5 12 Z " /><path fill="rgb(169,181,203)" stroke="rgb(169,181,203)" stroke-width="1" opacity="0.7764705882352941" d="M 25.5 12 L 24.5 14 L 25.5 12 Z " /><path fill="rgb(169,181,203)" stroke="rgb(169,181,203)" stroke-width="1" opacity="0.7764705882352941" d="M 17.5 14 L 16.5 16 L 17.5 14 Z " /><path fill="rgb(169,181,203)" stroke="rgb(169,181,203)" stroke-width="1" opacity="0.7764705882352941" d="M 14.5 17 Q 17.5 18.5 16 24.5 L 13 26.5 Q 16.5 25 15 18.5 L 14.5 17 Z " /><path fill="rgb(169,181,203)" stroke="rgb(169,181,203)" stroke-width="1" opacity="0.7764705882352941" d="M 29.5 17 L 30 23.5 L 28 24.5 Q 27.1 19.1 29.5 17 Z " /><path fill="rgb(169,181,203)" stroke="rgb(169,181,203)" stroke-width="1" opacity="0.7764705882352941" d="M 31.5 26 L 31.5 29 Q 28.5 27.5 31.5 26 Z " /><path fill="rgb(40,51,93)" stroke="rgb(40,51,93)" stroke-width="1" opacity="1" d="M 20.5 11 L 23.5 11 L 28 14.5 L 29 18.5 L 28 18.5 L 27 14 L 21.5 12 L 16 15.5 L 15 24.5 L 13 28 L 31 27.5 L 29 24.5 L 31 25.5 L 32 27.5 L 30.5 29 L 12 29 Q 11.3 25.6 14 24.5 L 15 15.5 L 17.5 13 L 20.5 11 Z " /><path fill="rgb(40,51,93)" stroke="rgb(40,51,93)" stroke-width="1" opacity="1" d="M 19.5 30 L 25 30.5 Q 24.3 32.8 20.5 32 L 19.5 30 Z " /><path fill="rgb(228,239,252)" stroke="rgb(228,239,252)" stroke-width="1" opacity="0.9725490196078431" d="M 15.5 1 L 21 1.5 Q 9.4 2.4 5 10.5 L 2.5 16 L 2 13.5 L 9.5 4 L 15.5 1 Z " /><path fill="rgb(228,239,252)" stroke="rgb(228,239,252)" stroke-width="1" opacity="0.9725490196078431" d="M 23.5 1 Q 33.9 1.1 38 7.5 L 43 17.5 L 43 24.5 L 42 24.5 Q 42.7 9.8 33.5 5 Q 30.7 1.3 23.5 2 L 23.5 1 Z " /><path fill="rgb(228,239,252)" stroke="rgb(228,239,252)" stroke-width="1" opacity="0.9725490196078431" d="M 1.5 17 Q 1.2 33.3 11.5 39 L 20 41.5 L 16.5 42 Q 9.1 39.9 5 34.5 Q -1 28.9 1.5 17 Z " /><path fill="rgb(228,239,252)" stroke="rgb(228,239,252)" stroke-width="1" opacity="0.9725490196078431" d="M 41.5 26 L 42 28.5 L 35.5 38 Q 31.5 42 23.5 42 L 23.5 41 L 30.5 40 L 39 32.5 L 41.5 26 Z " /><path fill="rgb(228,239,252)" stroke="rgb(228,239,252)" stroke-width="1" opacity="1" d="M 21.5 1 L 30.5 3 L 39 10.5 Q 43.2 15.3 42 25.5 Q 39.9 33.9 33.5 38 Q 28.8 41.8 20.5 42 Q 9.6 40.4 5 32.5 Q 0.6 27.3 2 16.5 Q 4.9 8.4 11.5 4 L 21.5 1 Z M 22 10 L 19 12 L 14 18 Q 16 25 12 27 L 13 29 L 32 29 Q 33 26 30 25 L 29 16 L 22 10 Z M 19 30 L 19 32 L 22 33 L 25 31 L 19 30 Z " /><path fill="rgb(228,239,252)" stroke="rgb(228,239,252)" stroke-width="1" opacity="1" d="M 21.5 12 L 28 16.5 L 28 24.5 L 30 28 L 13 27.5 L 16 24.5 Q 14 16 18.5 14 L 21.5 12 Z " /><path fill="rgb(0,0,0)" stroke="rgb(0,0,0)" stroke-width="1" opacity="0" d="M 0 0 L 43 0 L 43 16.5 L 42 16.5 Q 40.5 8.9 35.5 5 Q 29.5 -1 15.5 1 Q 8.8 3.3 5 8.5 Q -0.4 14.1 1 26.5 Q 3.1 33.9 8.5 38 Q 14.2 43.8 27.5 42 L 38 35.5 L 42.5 25 L 43 43 L 0 43 L 0 0 Z " /></svg>