<svg xmlns="http://www.w3.org/2000/svg" width="43" height="43" fill="none"><g filter="url(#a)"><path fill="#E4EFFC" d="M42 21.5C42 32.822 32.822 42 21.5 42S1 32.822 1 21.5 10.178 1 21.5 1 42 10.178 42 21.5"/></g><path stroke="#101B49" d="M21.501 31.875H21.5a2.74 2.74 0 0 1-2.253-1.175h4.507a2.74 2.74 0 0 1-2.253 1.175Zm7.112-7.563v.207l.146.147 1.857 1.856c.11.11.172.26.172.416v1.087a.587.587 0 0 1-.588.588H12.8a.587.587 0 0 1-.587-.588v-1.087c0-.156.062-.306.172-.416l1.856-1.856.147-.147v-5.194c0-3.266 2.219-6.02 5.228-6.85l.24-.066.092-.231a1.66 1.66 0 0 1 1.552-1.053c.709 0 1.307.434 1.553 1.053l.092.231.24.066c3.009.829 5.228 3.584 5.228 6.85z"/><defs><filter id="a" width="41.973" height="41.973" x=".513" y=".513" color-interpolation-filters="sRGB" filterUnits="userSpaceOnUse"><feFlood flood-opacity="0" result="BackgroundImageFix"/><feBlend in="SourceGraphic" in2="BackgroundImageFix" result="shape"/><feGaussianBlur result="effect1_foregroundBlur_988_2362" stdDeviation=".243"/></filter></defs></svg>