<svg width="43" height="43" viewBox="0 0 43 43" fill="none" xmlns="http://www.w3.org/2000/svg">
<g filter="url(#filter0_f_1031_512)">
<path d="M41.9998 21.4999C41.9998 32.8216 32.8216 41.9998 21.4999 41.9998C10.1781 41.9998 1 32.8216 1 21.4999C1 10.1781 10.1781 1 21.4999 1C32.8216 1 41.9998 10.1781 41.9998 21.4999Z" fill="#82BBFF"/>
</g>
<path d="M27.5515 23.7355V19.7711C27.5515 16.9901 25.6626 14.6475 23.1039 13.943C22.8506 13.305 22.2316 12.8555 21.5003 12.8555C20.769 12.8555 20.15 13.305 19.8967 13.943C17.338 14.6483 15.4491 16.9901 15.4491 19.7711V23.7355L13.9735 25.2111C13.8114 25.3732 13.7203 25.593 13.7202 25.8223V26.6867C13.7202 26.916 13.8113 27.1359 13.9734 27.298C14.1355 27.4601 14.3554 27.5512 14.5847 27.5512H28.4159C28.6452 27.5512 28.8651 27.4601 29.0272 27.298C29.1893 27.1359 29.2804 26.916 29.2804 26.6867V25.8223C29.2803 25.593 29.1892 25.3732 29.0271 25.2111L27.5515 23.7355Z" fill="#FFEFB3"/>
<path d="M21.5003 30.1445C22.0356 30.1452 22.5579 29.9791 22.9945 29.6692C23.4311 29.3594 23.7603 28.9212 23.9363 28.4156H19.0643C19.2403 28.9212 19.5695 29.3594 20.0061 29.6692C20.4427 29.9791 20.9649 30.1452 21.5003 30.1445Z" fill="#FFEFB3"/>
<defs>
<filter id="filter0_f_1031_512" x="0.51336" y="0.51336" width="41.973" height="41.973" filterUnits="userSpaceOnUse" color-interpolation-filters="sRGB">
<feFlood flood-opacity="0" result="BackgroundImageFix"/>
<feBlend mode="normal" in="SourceGraphic" in2="BackgroundImageFix" result="shape"/>
<feGaussianBlur stdDeviation="0.24332" result="effect1_foregroundBlur_1031_512"/>
</filter>
</defs>
</svg>
