<svg xmlns="http://www.w3.org/2000/svg" width="43" height="43"><path fill="#A9B5CB" stroke="#A9B5CB" d="m18.5 12 1 2zM25.5 12l-1 2zM17.5 14l-1 2zM14.5 17q3 1.5 1.5 7.5l-3 2q3.5-1.5 2-8zM29.5 17l.5 6.5-2 1q-.9-5.4 1.5-7.5ZM31.5 26v3q-3-1.5 0-3Z" opacity=".776"/><path fill="#28335D" stroke="#28335D" d="M20.5 11h3l4.5 3.5 1 4h-1L27 14l-5.5-2-5.5 3.5-1 9-2 3.5 18-.5-2-3 2 1 1 2-1.5 1.5H12q-.7-3.4 2-4.5l1-9 2.5-2.5zM19.5 30l5.5.5q-.7 2.3-4.5 1.5z"/><path fill="#E4EFFC" stroke="#E4EFFC" d="m15.5 1 5.5.5q-11.6.9-16 9L2.5 16 2 13.5 9.5 4zM23.5 1q10.4.1 14.5 6.5l5 10v7h-1Q42.7 9.8 33.5 5q-2.8-3.7-10-3zM1.5 17q-.3 16.3 10 22l8.5 2.5-3.5.5Q9.1 39.9 5 34.5-1 28.9 1.5 17ZM41.5 26l.5 2.5-6.5 9.5q-4 4-12 4v-1l7-1 8.5-7.5z" opacity=".973"/><path fill="#E4EFFC" stroke="#E4EFFC" d="m21.5 1 9 2 8.5 7.5q4.2 4.8 3 15-2.1 8.4-8.5 12.5-4.7 3.8-13 4Q9.6 40.4 5 32.5q-4.4-5.2-3-16Q4.9 8.4 11.5 4zm.5 9-3 2-5 6q2 7-2 9l1 2h19q1-3-2-4l-1-9zm-3 20v2l3 1 3-2z"/><path fill="#E4EFFC" stroke="#E4EFFC" d="m21.5 12 6.5 4.5v8l2 3.5-17-.5 3-3Q14 16 18.5 14z"/></svg>