<svg xmlns="http://www.w3.org/2000/svg" width="23" height="18" fill="none"><path fill="#F2F3F5" d="M.903.206h22.012v17.783H.903z"/><path fill="#D9D9D9" d="M.903.206h22.012v4.739H.903z"/><path fill="#fff" d="M5.059 6.367h2.134v2.251H5.059zM8.091 6.367h2.134v2.251H8.091zM11.124 6.367h2.134v2.251h-2.134zM14.155 6.367h2.134v2.251h-2.134zM17.189 6.367h2.134v2.251h-2.134zM5.059 9.281h2.134v2.251H5.059zM8.091 9.281h2.134v2.251H8.091zM11.124 9.281h2.134v2.251h-2.134zM14.155 9.281h2.134v2.251h-2.134zM17.189 9.281h2.134v2.251h-2.134zM5.059 12.954h2.134v2.251H5.059zM8.091 12.954h2.134v2.251H8.091zM11.124 12.954h2.134v2.251h-2.134zM14.155 12.954h2.134v2.251h-2.134zM17.189 12.954h2.134v2.251h-2.134z"/></svg>