<svg width="23" height="18" viewBox="0 0 23 18" fill="none" xmlns="http://www.w3.org/2000/svg">
<rect x="0.90332" y="0.206055" width="22.0123" height="17.7827" fill="#F2F3F5"/>
<rect x="0.90332" y="0.206055" width="22.0123" height="4.73886" fill="#D9D9D9"/>
<rect x="5.05859" y="6.3667" width="2.13385" height="2.25096" fill="white"/>
<rect x="8.09082" y="6.3667" width="2.13385" height="2.25096" fill="white"/>
<rect x="11.124" y="6.3667" width="2.13385" height="2.25096" fill="white"/>
<rect x="14.1553" y="6.3667" width="2.13385" height="2.25096" fill="white"/>
<rect x="17.1885" y="6.3667" width="2.13385" height="2.25096" fill="white"/>
<rect x="5.05859" y="9.28125" width="2.13385" height="2.25096" fill="white"/>
<rect x="8.09082" y="9.28125" width="2.13385" height="2.25096" fill="white"/>
<rect x="11.124" y="9.28125" width="2.13385" height="2.25096" fill="white"/>
<rect x="14.1553" y="9.28125" width="2.13385" height="2.25096" fill="white"/>
<rect x="17.1885" y="9.28125" width="2.13385" height="2.25096" fill="white"/>
<rect x="5.05859" y="12.9536" width="2.13385" height="2.25096" fill="white"/>
<rect x="8.09082" y="12.9536" width="2.13385" height="2.25096" fill="white"/>
<rect x="11.124" y="12.9536" width="2.13385" height="2.25096" fill="white"/>
<rect x="14.1553" y="12.9536" width="2.13385" height="2.25096" fill="white"/>
<rect x="17.1885" y="12.9536" width="2.13385" height="2.25096" fill="white"/>
</svg>
