<svg width="15" height="18" viewBox="0 0 15 18" fill="none" xmlns="http://www.w3.org/2000/svg">
<path d="M1.63755 5.34725C1.47178 4.20407 2.35834 3.17969 3.51348 3.17969H11.5987C12.7538 3.17969 13.6404 4.20407 13.4746 5.34725L12.1248 14.6559C11.9896 15.588 11.1907 16.2795 10.2489 16.2795H4.86328C3.92147 16.2795 3.1225 15.588 2.98735 14.6559L1.63755 5.34725Z" fill="#F2F3F5"/>
<rect x="0.136719" y="2.9917" width="14.4839" height="2.25425" rx="1.12713" fill="#D9D9D9"/>
<path d="M7.55664 3.96773C7.55664 2.13184 9.04492 0.643555 10.8808 0.643555C12.7167 0.643555 14.205 2.13184 14.205 3.96773V4.17096H7.55664V3.96773Z" fill="#D9D9D9"/>
<ellipse cx="12.0321" cy="14.2377" rx="2.70686" ry="2.85542" fill="#D9D9D9"/>
</svg>
