<svg width="565" height="698" viewBox="0 0 565 698" fill="none" xmlns="http://www.w3.org/2000/svg">
<rect x="10.3926" y="121.712" width="554" height="576" rx="30" fill="#1F5DEE"/>
<path opacity="0.6" d="M66.6888 542.712C60.1888 542.712 54.6755 540.449 50.1488 535.922C45.6221 531.395 43.3577 525.881 43.3555 519.379V494.712C43.3555 493.607 44.2509 492.712 45.3555 492.712H91.6888C94.911 492.712 97.661 493.851 99.9388 496.129C102.217 498.406 103.355 501.156 103.355 504.379C103.355 507.601 102.217 510.351 99.9388 512.629C97.661 514.906 94.911 516.045 91.6888 516.045V516.045C90.7683 516.045 90.0221 516.791 90.0221 517.712V519.379C90.0221 525.879 87.7588 531.393 83.2321 535.922C78.7055 540.451 73.191 542.714 66.6888 542.712ZM50.0221 507.379C50.0221 508.483 50.9176 509.379 52.0221 509.379H81.3555C82.46 509.379 83.3555 508.483 83.3555 507.379V501.379C83.3555 500.274 82.46 499.379 81.3555 499.379H52.0221C50.9176 499.379 50.0221 500.274 50.0221 501.379V507.379ZM90.0221 507.712C90.0221 508.632 90.7683 509.379 91.6888 509.379V509.379C93.0777 509.379 94.2588 508.893 95.2321 507.922C96.2055 506.951 96.691 505.77 96.6888 504.379C96.6866 502.987 96.201 501.807 95.2321 500.839C94.2632 499.87 93.0821 499.383 91.6888 499.379V499.379C90.7683 499.379 90.0221 500.125 90.0221 501.045V507.712ZM46.6888 552.712C44.8479 552.712 43.3555 551.22 43.3555 549.379V549.379C43.3555 547.538 44.8479 546.045 46.6888 546.045H93.3555C95.1964 546.045 96.6888 547.538 96.6888 549.379V549.379C96.6888 551.22 95.1964 552.712 93.3555 552.712H46.6888Z" fill="url(#paint0_linear_1250_3407)"/>
<g opacity="0.6">
<path fill-rule="evenodd" clip-rule="evenodd" d="M393.443 434.671C394.802 431.315 396.82 428.264 399.376 425.699C401.932 423.134 404.975 421.106 408.327 419.735C411.678 418.363 415.27 417.676 418.892 417.713C422.513 417.751 426.09 418.512 429.412 419.952L444.659 426.561C448.23 428.109 452.278 428.124 455.859 426.613L471.168 420.128C474.502 418.717 478.085 417.988 481.705 417.982C485.326 417.976 488.911 418.694 492.25 420.094C495.588 421.494 498.614 423.547 501.147 426.133C503.681 428.719 505.672 431.786 507.003 435.152L513.11 450.611C513.819 452.401 514.884 454.028 516.239 455.394C517.595 456.761 519.214 457.838 520.998 458.561L536.4 464.807C539.755 466.167 542.804 468.184 545.369 470.739C547.933 473.295 549.96 476.337 551.332 479.687C552.703 483.037 553.391 486.628 553.354 490.248C553.318 493.868 552.558 497.444 551.119 500.766L544.51 516.018C543.744 517.784 543.345 519.687 543.336 521.612C543.327 523.537 543.709 525.444 544.458 527.217L550.943 542.526C552.354 545.86 553.083 549.443 553.089 553.063C553.095 556.683 552.377 560.268 550.977 563.607C549.578 566.946 547.524 569.971 544.938 572.505C542.352 575.038 539.285 577.029 535.919 578.36L520.459 584.467C518.67 585.176 517.043 586.241 515.676 587.596C514.31 588.952 513.233 590.571 512.51 592.355L506.263 607.757C504.903 611.112 502.886 614.161 500.331 616.725C497.776 619.289 494.733 621.317 491.383 622.688C488.033 624.059 484.442 624.747 480.822 624.711C477.202 624.674 473.626 623.914 470.304 622.475L455.052 615.866C453.285 615.101 451.382 614.702 449.457 614.693C447.532 614.684 445.625 615.065 443.852 615.815L428.543 622.294C425.209 623.705 421.627 624.435 418.006 624.441C414.386 624.448 410.801 623.73 407.463 622.331C404.124 620.931 401.099 618.879 398.565 616.293C396.031 613.708 394.039 610.642 392.708 607.275L386.601 591.816C385.892 590.027 384.827 588.4 383.472 587.033C382.116 585.667 380.497 584.59 378.713 583.867L363.311 577.62C359.956 576.261 356.907 574.244 354.342 571.688C351.778 569.133 349.751 566.091 348.379 562.74C347.008 559.39 346.32 555.8 346.357 552.18C346.393 548.56 347.153 544.984 348.592 541.662L355.201 526.41C356.749 522.839 356.764 518.792 355.253 515.21L348.768 499.902C347.357 496.567 346.627 492.985 346.622 489.364C346.616 485.744 347.334 482.159 348.734 478.82C350.133 475.482 352.187 472.457 354.773 469.923C357.359 467.389 360.426 465.398 363.792 464.067L379.252 457.96C381.041 457.251 382.668 456.187 384.035 454.831C385.401 453.476 386.478 451.857 387.201 450.073L393.443 434.671Z" fill="url(#paint1_linear_1250_3407)"/>
<path fill-rule="evenodd" clip-rule="evenodd" d="M393.443 434.671C394.802 431.315 396.82 428.264 399.376 425.699C401.932 423.134 404.975 421.106 408.327 419.735C411.678 418.363 415.27 417.676 418.892 417.713C422.513 417.751 426.09 418.512 429.412 419.952L444.659 426.561C448.23 428.109 452.278 428.124 455.859 426.613L471.168 420.128C474.502 418.717 478.085 417.988 481.705 417.982C485.326 417.976 488.911 418.694 492.25 420.094C495.588 421.494 498.614 423.547 501.147 426.133C503.681 428.719 505.672 431.786 507.003 435.152L513.11 450.611C513.819 452.401 514.884 454.028 516.239 455.394C517.595 456.761 519.214 457.838 520.998 458.561L536.4 464.807C539.755 466.167 542.804 468.184 545.369 470.739C547.933 473.295 549.96 476.337 551.332 479.687C552.703 483.037 553.391 486.628 553.354 490.248C553.318 493.868 552.558 497.444 551.119 500.766L544.51 516.018C543.744 517.784 543.345 519.687 543.336 521.612C543.327 523.537 543.709 525.444 544.458 527.217L550.943 542.526C552.354 545.86 553.083 549.443 553.089 553.063C553.095 556.683 552.377 560.268 550.977 563.607C549.578 566.946 547.524 569.971 544.938 572.505C542.352 575.038 539.285 577.029 535.919 578.36L520.459 584.467C518.67 585.176 517.043 586.241 515.676 587.596C514.31 588.952 513.233 590.571 512.51 592.355L506.263 607.757C504.903 611.112 502.886 614.161 500.331 616.725C497.776 619.289 494.733 621.317 491.383 622.688C488.033 624.059 484.442 624.747 480.822 624.711C477.202 624.674 473.626 623.914 470.304 622.475L455.052 615.866C453.285 615.101 451.382 614.702 449.457 614.693C447.532 614.684 445.625 615.065 443.852 615.815L428.543 622.294C425.209 623.705 421.627 624.435 418.006 624.441C414.386 624.448 410.801 623.73 407.463 622.331C404.124 620.931 401.099 618.879 398.565 616.293C396.031 613.708 394.039 610.642 392.708 607.275L386.601 591.816C385.892 590.027 384.827 588.4 383.472 587.033C382.116 585.667 380.497 584.59 378.713 583.867L363.311 577.62C359.956 576.261 356.907 574.244 354.342 571.688C351.778 569.133 349.751 566.091 348.379 562.74C347.008 559.39 346.32 555.8 346.357 552.18C346.393 548.56 347.153 544.984 348.592 541.662L355.201 526.41C356.749 522.839 356.764 518.792 355.253 515.21L348.768 499.902C347.357 496.567 346.627 492.985 346.622 489.364C346.616 485.744 347.334 482.159 348.734 478.82C350.133 475.482 352.187 472.457 354.773 469.923C357.359 467.389 360.426 465.398 363.792 464.067L379.252 457.96C381.041 457.251 382.668 456.187 384.035 454.831C385.401 453.476 386.478 451.857 387.201 450.073L393.443 434.671Z" fill="url(#paint2_linear_1250_3407)" fill-opacity="0.7"/>
</g>
<path fill-rule="evenodd" clip-rule="evenodd" d="M47.0423 286.76C47.2066 286.355 47.4502 285.986 47.7589 285.677C48.0676 285.367 48.4352 285.122 48.8399 284.956C49.2447 284.791 49.6785 284.708 50.1159 284.712C50.5532 284.717 50.9852 284.809 51.3865 284.982L53.2279 285.781C53.6592 285.968 54.148 285.969 54.5805 285.787L56.4295 285.004C56.8321 284.833 57.2648 284.745 57.7021 284.745C58.1393 284.744 58.5723 284.831 58.9755 285C59.3788 285.169 59.7441 285.417 60.0501 285.729C60.3561 286.041 60.5966 286.412 60.7574 286.818L61.4949 288.685C61.5805 288.901 61.7091 289.098 61.8728 289.263C62.0366 289.428 62.2321 289.558 62.4475 289.645L64.3077 290.4C64.7129 290.564 65.0812 290.808 65.3909 291.116C65.7006 291.425 65.9454 291.792 66.111 292.197C66.2767 292.601 66.3597 293.035 66.3553 293.472C66.3509 293.909 66.2591 294.341 66.0854 294.743L65.2872 296.585C65.1947 296.798 65.1465 297.028 65.1454 297.26C65.1443 297.493 65.1904 297.723 65.2809 297.937L66.0641 299.786C66.2345 300.189 66.3226 300.621 66.3233 301.059C66.324 301.496 66.2373 301.929 66.0683 302.332C65.8992 302.735 65.6512 303.101 65.3389 303.407C65.0265 303.713 64.6562 303.953 64.2496 304.114L62.3825 304.851C62.1664 304.937 61.9699 305.066 61.8048 305.229C61.6398 305.393 61.5097 305.589 61.4224 305.804L60.668 307.664C60.5037 308.069 60.2602 308.438 59.9515 308.747C59.6429 309.057 59.2755 309.302 58.8709 309.467C58.4662 309.633 58.0326 309.716 57.5954 309.712C57.1582 309.707 56.7263 309.616 56.3251 309.442L54.483 308.644C54.2697 308.551 54.0398 308.503 53.8074 308.502C53.5749 308.501 53.3446 308.547 53.1304 308.637L51.2815 309.42C50.8788 309.59 50.4462 309.678 50.009 309.679C49.5717 309.68 49.1388 309.593 48.7356 309.424C48.3323 309.255 47.967 309.007 47.6609 308.695C47.3549 308.383 47.1144 308.013 46.9536 307.606L46.216 305.739C46.1304 305.523 46.0018 305.326 45.8381 305.161C45.6744 304.996 45.4789 304.866 45.2634 304.779L43.4032 304.025C42.998 303.86 42.6298 303.617 42.3201 303.308C42.0104 302.999 41.7655 302.632 41.5999 302.227C41.4343 301.823 41.3512 301.389 41.3556 300.952C41.36 300.515 41.4518 300.083 41.6256 299.682L42.4238 297.84C42.6107 297.408 42.6125 296.92 42.43 296.487L41.6468 294.638C41.4765 294.236 41.3883 293.803 41.3876 293.366C41.3869 292.928 41.4736 292.495 41.6427 292.092C41.8117 291.689 42.0597 291.324 42.3721 291.018C42.6844 290.712 43.0548 290.471 43.4614 290.31L45.3284 289.573C45.5446 289.487 45.7411 289.359 45.9061 289.195C46.0711 289.031 46.2012 288.836 46.2885 288.62L47.0423 286.76Z" fill="#FFEFB3"/>
<path fill-rule="evenodd" clip-rule="evenodd" d="M47.0423 286.76C47.2066 286.355 47.4502 285.986 47.7589 285.677C48.0676 285.367 48.4352 285.122 48.8399 284.956C49.2447 284.791 49.6785 284.708 50.1159 284.712C50.5532 284.717 50.9852 284.809 51.3865 284.982L53.2279 285.781C53.6592 285.968 54.148 285.969 54.5805 285.787L56.4295 285.004C56.8321 284.833 57.2648 284.745 57.7021 284.745C58.1393 284.744 58.5723 284.831 58.9755 285C59.3788 285.169 59.7441 285.417 60.0501 285.729C60.3561 286.041 60.5966 286.412 60.7574 286.818L61.4949 288.685C61.5805 288.901 61.7091 289.098 61.8728 289.263C62.0366 289.428 62.2321 289.558 62.4475 289.645L64.3077 290.4C64.7129 290.564 65.0812 290.808 65.3909 291.116C65.7006 291.425 65.9454 291.792 66.111 292.197C66.2767 292.601 66.3597 293.035 66.3553 293.472C66.3509 293.909 66.2591 294.341 66.0854 294.743L65.2872 296.585C65.1947 296.798 65.1465 297.028 65.1454 297.26C65.1443 297.493 65.1904 297.723 65.2809 297.937L66.0641 299.786C66.2345 300.189 66.3226 300.621 66.3233 301.059C66.324 301.496 66.2373 301.929 66.0683 302.332C65.8992 302.735 65.6512 303.101 65.3389 303.407C65.0265 303.713 64.6562 303.953 64.2496 304.114L62.3825 304.851C62.1664 304.937 61.9699 305.066 61.8048 305.229C61.6398 305.393 61.5097 305.589 61.4224 305.804L60.668 307.664C60.5037 308.069 60.2602 308.438 59.9515 308.747C59.6429 309.057 59.2755 309.302 58.8709 309.467C58.4662 309.633 58.0326 309.716 57.5954 309.712C57.1582 309.707 56.7263 309.616 56.3251 309.442L54.483 308.644C54.2697 308.551 54.0398 308.503 53.8074 308.502C53.5749 308.501 53.3446 308.547 53.1304 308.637L51.2815 309.42C50.8788 309.59 50.4462 309.678 50.009 309.679C49.5717 309.68 49.1388 309.593 48.7356 309.424C48.3323 309.255 47.967 309.007 47.6609 308.695C47.3549 308.383 47.1144 308.013 46.9536 307.606L46.216 305.739C46.1304 305.523 46.0018 305.326 45.8381 305.161C45.6744 304.996 45.4789 304.866 45.2634 304.779L43.4032 304.025C42.998 303.86 42.6298 303.617 42.3201 303.308C42.0104 302.999 41.7655 302.632 41.5999 302.227C41.4343 301.823 41.3512 301.389 41.3556 300.952C41.36 300.515 41.4518 300.083 41.6256 299.682L42.4238 297.84C42.6107 297.408 42.6125 296.92 42.43 296.487L41.6468 294.638C41.4765 294.236 41.3883 293.803 41.3876 293.366C41.3869 292.928 41.4736 292.495 41.6427 292.092C41.8117 291.689 42.0597 291.324 42.3721 291.018C42.6844 290.712 43.0548 290.471 43.4614 290.31L45.3284 289.573C45.5446 289.487 45.7411 289.359 45.9061 289.195C46.0711 289.031 46.2012 288.836 46.2885 288.62L47.0423 286.76Z" fill="url(#paint3_linear_1250_3407)" fill-opacity="0.7"/>
<path fill-rule="evenodd" clip-rule="evenodd" d="M430.042 230.76C430.207 230.355 430.45 229.986 430.759 229.677C431.068 229.367 431.435 229.122 431.84 228.956C432.245 228.791 432.679 228.708 433.116 228.712C433.553 228.717 433.985 228.809 434.386 228.982L436.228 229.781C436.659 229.968 437.148 229.969 437.581 229.787L439.429 229.004C439.832 228.833 440.265 228.745 440.702 228.745C441.139 228.744 441.572 228.831 441.976 229C442.379 229.169 442.744 229.417 443.05 229.729C443.356 230.041 443.597 230.412 443.757 230.818L444.495 232.685C444.581 232.901 444.709 233.098 444.873 233.263C445.037 233.428 445.232 233.558 445.448 233.645L447.308 234.4C447.713 234.564 448.081 234.808 448.391 235.116C448.701 235.425 448.945 235.792 449.111 236.197C449.277 236.601 449.36 237.035 449.355 237.472C449.351 237.909 449.259 238.341 449.085 238.743L448.287 240.585C448.195 240.798 448.146 241.028 448.145 241.26C448.144 241.493 448.19 241.723 448.281 241.937L449.064 243.786C449.234 244.189 449.323 244.621 449.323 245.059C449.324 245.496 449.237 245.929 449.068 246.332C448.899 246.735 448.651 247.101 448.339 247.407C448.027 247.713 447.656 247.953 447.25 248.114L445.383 248.851C445.166 248.937 444.97 249.066 444.805 249.229C444.64 249.393 444.51 249.589 444.422 249.804L443.668 251.664C443.504 252.069 443.26 252.438 442.952 252.747C442.643 253.057 442.275 253.302 441.871 253.467C441.466 253.633 441.033 253.716 440.595 253.712C440.158 253.707 439.726 253.616 439.325 253.442L437.483 252.644C437.27 252.551 437.04 252.503 436.807 252.502C436.575 252.501 436.345 252.547 436.13 252.637L434.281 253.42C433.879 253.59 433.446 253.678 433.009 253.679C432.572 253.68 432.139 253.593 431.736 253.424C431.332 253.255 430.967 253.007 430.661 252.695C430.355 252.383 430.114 252.013 429.954 251.606L429.216 249.739C429.13 249.523 429.002 249.326 428.838 249.161C428.674 248.996 428.479 248.866 428.263 248.779L426.403 248.025C425.998 247.86 425.63 247.617 425.32 247.308C425.01 246.999 424.766 246.632 424.6 246.227C424.434 245.823 424.351 245.389 424.356 244.952C424.36 244.515 424.452 244.083 424.626 243.682L425.424 241.84C425.611 241.408 425.613 240.92 425.43 240.487L424.647 238.638C424.476 238.236 424.388 237.803 424.388 237.366C424.387 236.928 424.474 236.495 424.643 236.092C424.812 235.689 425.06 235.324 425.372 235.018C425.684 234.712 426.055 234.471 426.461 234.31L428.328 233.573C428.545 233.487 428.741 233.359 428.906 233.195C429.071 233.031 429.201 232.836 429.289 232.62L430.042 230.76Z" fill="#FFEFB3"/>
<path fill-rule="evenodd" clip-rule="evenodd" d="M430.042 230.76C430.207 230.355 430.45 229.986 430.759 229.677C431.068 229.367 431.435 229.122 431.84 228.956C432.245 228.791 432.679 228.708 433.116 228.712C433.553 228.717 433.985 228.809 434.386 228.982L436.228 229.781C436.659 229.968 437.148 229.969 437.581 229.787L439.429 229.004C439.832 228.833 440.265 228.745 440.702 228.745C441.139 228.744 441.572 228.831 441.976 229C442.379 229.169 442.744 229.417 443.05 229.729C443.356 230.041 443.597 230.412 443.757 230.818L444.495 232.685C444.581 232.901 444.709 233.098 444.873 233.263C445.037 233.428 445.232 233.558 445.448 233.645L447.308 234.4C447.713 234.564 448.081 234.808 448.391 235.116C448.701 235.425 448.945 235.792 449.111 236.197C449.277 236.601 449.36 237.035 449.355 237.472C449.351 237.909 449.259 238.341 449.085 238.743L448.287 240.585C448.195 240.798 448.146 241.028 448.145 241.26C448.144 241.493 448.19 241.723 448.281 241.937L449.064 243.786C449.234 244.189 449.323 244.621 449.323 245.059C449.324 245.496 449.237 245.929 449.068 246.332C448.899 246.735 448.651 247.101 448.339 247.407C448.027 247.713 447.656 247.953 447.25 248.114L445.383 248.851C445.166 248.937 444.97 249.066 444.805 249.229C444.64 249.393 444.51 249.589 444.422 249.804L443.668 251.664C443.504 252.069 443.26 252.438 442.952 252.747C442.643 253.057 442.275 253.302 441.871 253.467C441.466 253.633 441.033 253.716 440.595 253.712C440.158 253.707 439.726 253.616 439.325 253.442L437.483 252.644C437.27 252.551 437.04 252.503 436.807 252.502C436.575 252.501 436.345 252.547 436.13 252.637L434.281 253.42C433.879 253.59 433.446 253.678 433.009 253.679C432.572 253.68 432.139 253.593 431.736 253.424C431.332 253.255 430.967 253.007 430.661 252.695C430.355 252.383 430.114 252.013 429.954 251.606L429.216 249.739C429.13 249.523 429.002 249.326 428.838 249.161C428.674 248.996 428.479 248.866 428.263 248.779L426.403 248.025C425.998 247.86 425.63 247.617 425.32 247.308C425.01 246.999 424.766 246.632 424.6 246.227C424.434 245.823 424.351 245.389 424.356 244.952C424.36 244.515 424.452 244.083 424.626 243.682L425.424 241.84C425.611 241.408 425.613 240.92 425.43 240.487L424.647 238.638C424.476 238.236 424.388 237.803 424.388 237.366C424.387 236.928 424.474 236.495 424.643 236.092C424.812 235.689 425.06 235.324 425.372 235.018C425.684 234.712 426.055 234.471 426.461 234.31L428.328 233.573C428.545 233.487 428.741 233.359 428.906 233.195C429.071 233.031 429.201 232.836 429.289 232.62L430.042 230.76Z" fill="url(#paint4_linear_1250_3407)" fill-opacity="0.7"/>
<path fill-rule="evenodd" clip-rule="evenodd" d="M524.042 394.76C524.207 394.355 524.45 393.986 524.759 393.677C525.068 393.367 525.435 393.122 525.84 392.956C526.245 392.791 526.679 392.708 527.116 392.712C527.553 392.717 527.985 392.809 528.386 392.982L530.228 393.781C530.659 393.968 531.148 393.969 531.581 393.787L533.429 393.004C533.832 392.833 534.265 392.745 534.702 392.745C535.139 392.744 535.572 392.831 535.976 393C536.379 393.169 536.744 393.417 537.05 393.729C537.356 394.041 537.597 394.412 537.757 394.818L538.495 396.685C538.581 396.901 538.709 397.098 538.873 397.263C539.037 397.428 539.232 397.558 539.448 397.645L541.308 398.4C541.713 398.564 542.081 398.808 542.391 399.116C542.701 399.425 542.945 399.792 543.111 400.197C543.277 400.601 543.36 401.035 543.355 401.472C543.351 401.909 543.259 402.341 543.085 402.743L542.287 404.585C542.195 404.798 542.146 405.028 542.145 405.26C542.144 405.493 542.19 405.723 542.281 405.937L543.064 407.786C543.234 408.189 543.323 408.621 543.323 409.059C543.324 409.496 543.237 409.929 543.068 410.332C542.899 410.735 542.651 411.101 542.339 411.407C542.027 411.713 541.656 411.953 541.25 412.114L539.383 412.851C539.166 412.937 538.97 413.066 538.805 413.229C538.64 413.393 538.51 413.589 538.422 413.804L537.668 415.664C537.504 416.069 537.26 416.438 536.952 416.747C536.643 417.057 536.275 417.302 535.871 417.467C535.466 417.633 535.033 417.716 534.595 417.712C534.158 417.707 533.726 417.616 533.325 417.442L531.483 416.644C531.27 416.551 531.04 416.503 530.807 416.502C530.575 416.501 530.345 416.547 530.13 416.637L528.281 417.42C527.879 417.59 527.446 417.678 527.009 417.679C526.572 417.68 526.139 417.593 525.736 417.424C525.332 417.255 524.967 417.007 524.661 416.695C524.355 416.383 524.114 416.013 523.954 415.606L523.216 413.739C523.13 413.523 523.002 413.326 522.838 413.161C522.674 412.996 522.479 412.866 522.263 412.779L520.403 412.025C519.998 411.86 519.63 411.617 519.32 411.308C519.01 410.999 518.766 410.632 518.6 410.227C518.434 409.823 518.351 409.389 518.356 408.952C518.36 408.515 518.452 408.083 518.626 407.682L519.424 405.84C519.611 405.408 519.613 404.92 519.43 404.487L518.647 402.638C518.476 402.236 518.388 401.803 518.388 401.366C518.387 400.928 518.474 400.495 518.643 400.092C518.812 399.689 519.06 399.324 519.372 399.018C519.684 398.712 520.055 398.471 520.461 398.31L522.328 397.573C522.545 397.487 522.741 397.359 522.906 397.195C523.071 397.031 523.201 396.836 523.289 396.62L524.042 394.76Z" fill="#FFEFB3"/>
<path fill-rule="evenodd" clip-rule="evenodd" d="M524.042 394.76C524.207 394.355 524.45 393.986 524.759 393.677C525.068 393.367 525.435 393.122 525.84 392.956C526.245 392.791 526.679 392.708 527.116 392.712C527.553 392.717 527.985 392.809 528.386 392.982L530.228 393.781C530.659 393.968 531.148 393.969 531.581 393.787L533.429 393.004C533.832 392.833 534.265 392.745 534.702 392.745C535.139 392.744 535.572 392.831 535.976 393C536.379 393.169 536.744 393.417 537.05 393.729C537.356 394.041 537.597 394.412 537.757 394.818L538.495 396.685C538.581 396.901 538.709 397.098 538.873 397.263C539.037 397.428 539.232 397.558 539.448 397.645L541.308 398.4C541.713 398.564 542.081 398.808 542.391 399.116C542.701 399.425 542.945 399.792 543.111 400.197C543.277 400.601 543.36 401.035 543.355 401.472C543.351 401.909 543.259 402.341 543.085 402.743L542.287 404.585C542.195 404.798 542.146 405.028 542.145 405.26C542.144 405.493 542.19 405.723 542.281 405.937L543.064 407.786C543.234 408.189 543.323 408.621 543.323 409.059C543.324 409.496 543.237 409.929 543.068 410.332C542.899 410.735 542.651 411.101 542.339 411.407C542.027 411.713 541.656 411.953 541.25 412.114L539.383 412.851C539.166 412.937 538.97 413.066 538.805 413.229C538.64 413.393 538.51 413.589 538.422 413.804L537.668 415.664C537.504 416.069 537.26 416.438 536.952 416.747C536.643 417.057 536.275 417.302 535.871 417.467C535.466 417.633 535.033 417.716 534.595 417.712C534.158 417.707 533.726 417.616 533.325 417.442L531.483 416.644C531.27 416.551 531.04 416.503 530.807 416.502C530.575 416.501 530.345 416.547 530.13 416.637L528.281 417.42C527.879 417.59 527.446 417.678 527.009 417.679C526.572 417.68 526.139 417.593 525.736 417.424C525.332 417.255 524.967 417.007 524.661 416.695C524.355 416.383 524.114 416.013 523.954 415.606L523.216 413.739C523.13 413.523 523.002 413.326 522.838 413.161C522.674 412.996 522.479 412.866 522.263 412.779L520.403 412.025C519.998 411.86 519.63 411.617 519.32 411.308C519.01 410.999 518.766 410.632 518.6 410.227C518.434 409.823 518.351 409.389 518.356 408.952C518.36 408.515 518.452 408.083 518.626 407.682L519.424 405.84C519.611 405.408 519.613 404.92 519.43 404.487L518.647 402.638C518.476 402.236 518.388 401.803 518.388 401.366C518.387 400.928 518.474 400.495 518.643 400.092C518.812 399.689 519.06 399.324 519.372 399.018C519.684 398.712 520.055 398.471 520.461 398.31L522.328 397.573C522.545 397.487 522.741 397.359 522.906 397.195C523.071 397.031 523.201 396.836 523.289 396.62L524.042 394.76Z" fill="url(#paint5_linear_1250_3407)" fill-opacity="0.7"/>
<path opacity="0.7" d="M249.531 136.9L268.528 216.236C271.052 226.773 269.426 237.882 263.982 247.283C258.539 256.683 249.692 263.664 239.255 266.792L236.922 267.418L115.658 296.436C105.062 298.972 93.9013 297.38 84.4662 291.986C75.031 286.592 68.0365 277.806 64.9173 267.429L64.2942 265.108L45.2969 185.772L249.531 136.9Z" fill="url(#paint6_linear_1250_3407)"/>
<path opacity="0.7" d="M228.878 67.7321C237.676 65.6267 246.519 71.0274 248.617 79.7873L259.257 124.222C260.134 127.88 259.714 131.73 258.069 135.12C256.424 138.51 253.655 141.232 250.23 142.825L46.2119 191.646C38.5911 191.912 31.576 186.826 29.7368 179.145L19.0969 134.711C16.9993 125.951 22.4375 117.133 31.2358 115.027L228.878 67.7321Z" fill="url(#paint7_radial_1250_3407)"/>
<path d="M166.608 284.262L136.102 156.864L155.552 152.209L186.059 279.608L166.608 284.262Z" fill="url(#paint8_linear_1250_3407)"/>
<path d="M139.238 169.077L124.102 105.864L143.552 101.209L158.689 164.422L139.238 169.077Z" fill="url(#paint9_linear_1250_3407)"/>
<path fill-rule="evenodd" clip-rule="evenodd" d="M103.396 117.596C96.409 119.267 89.1145 119.155 82.1887 117.269C75.2629 115.384 68.9301 111.786 63.7771 106.81C58.6242 101.833 54.818 95.6391 52.7113 88.8015C50.6046 81.9638 50.2656 74.704 51.7258 67.6948C53.1859 60.6857 56.3979 54.1542 61.0641 48.7057C65.7302 43.2572 71.6995 39.0681 78.4186 36.5266C85.1377 33.9851 92.3891 33.1736 99.5007 34.1672C106.612 35.1608 113.354 37.9273 119.101 42.2105C122.284 35.7903 127.042 30.272 132.933 26.167C138.824 22.062 145.657 19.5032 152.798 18.7277C159.94 17.9523 167.16 18.9854 173.789 21.7311C180.417 24.4769 186.239 28.8465 190.716 34.435C195.193 40.0235 198.179 46.6498 199.397 53.7C200.616 60.7501 200.028 67.9957 197.688 74.7653C195.348 81.5349 191.331 87.6093 186.01 92.4255C180.689 97.2416 174.236 100.644 167.249 102.316L103.396 117.596ZM71.1507 81.6123C69.7374 75.7098 70.7364 69.4856 73.9282 64.309C77.1199 59.1323 82.2428 55.4273 88.17 54.0089C94.0972 52.5906 100.343 53.5751 105.534 56.7459C110.724 59.9167 114.434 65.014 115.848 70.9165L121.177 93.172L98.8283 98.5199C92.9012 99.9382 86.6553 98.9537 81.4647 95.7829C76.2742 92.6121 72.5641 87.5148 71.1507 81.6123ZM140.333 88.588L162.681 83.2401C167.101 82.1824 171.109 79.8432 174.199 76.5183C177.289 73.1934 179.321 69.0321 180.039 64.5606C180.756 60.0892 180.127 55.5085 178.231 51.3977C176.335 47.2869 173.257 43.8307 169.386 41.4661C165.516 39.1016 161.026 37.9349 156.485 38.1135C151.944 38.2922 147.556 39.8082 143.876 42.4699C140.196 45.1315 137.388 48.8193 135.809 53.0668C134.23 57.3143 133.949 61.9309 135.003 66.3326L140.333 88.588Z" fill="black"/>
<path fill-rule="evenodd" clip-rule="evenodd" d="M103.396 117.666C96.409 119.337 89.1145 119.225 82.1887 117.339C75.2629 115.454 68.9301 111.856 63.7771 106.88C58.6242 101.903 54.818 95.7089 52.7113 88.8713C50.6046 82.0336 50.2656 74.7738 51.7258 67.7647C53.1859 60.7556 56.3979 54.224 61.0641 48.7755C65.7302 43.327 71.6995 39.1379 78.4186 36.5964C85.1377 34.0549 92.3891 33.2434 99.5007 34.237C106.612 35.2306 113.354 37.9972 119.101 42.2803C122.284 35.8601 127.042 30.3418 132.933 26.2368C138.824 22.1318 145.657 19.573 152.798 18.7976C159.94 18.0221 167.16 19.0552 173.789 21.801C180.417 24.5467 186.239 28.9164 190.716 34.5048C195.193 40.0933 198.179 46.7197 199.397 53.7698C200.616 60.8199 200.028 68.0656 197.688 74.8351C195.348 81.6047 191.331 87.6791 186.01 92.4953C180.689 97.3114 174.236 100.713 167.249 102.386L103.396 117.666ZM71.1507 81.6821C69.7374 75.7796 70.7364 69.5554 73.9282 64.3788C77.1199 59.2021 82.2428 55.4971 88.17 54.0788C94.0972 52.6604 100.343 53.6449 105.534 56.8157C110.724 59.9865 114.434 65.0838 115.848 70.9863L121.177 93.2418L98.8283 98.5897C92.9012 100.008 86.6553 99.0235 81.4647 95.8528C76.2742 92.682 72.5641 87.5846 71.1507 81.6821ZM140.333 88.6579L162.681 83.31C167.101 82.2522 171.109 79.913 174.199 76.5881C177.289 73.2632 179.321 69.1019 180.039 64.6305C180.756 60.159 180.127 55.5783 178.231 51.4675C176.335 47.3567 173.257 43.9005 169.386 41.536C165.516 39.1714 161.026 38.0047 156.485 38.1833C151.944 38.362 147.556 39.878 143.876 42.5397C140.196 45.2014 137.388 48.8891 135.809 53.1366C134.23 57.3842 133.949 62.0007 135.003 66.4024L140.333 88.6579Z" fill="url(#paint10_linear_1250_3407)"/>
<defs>
<linearGradient id="paint0_linear_1250_3407" x1="73.3555" y1="492.712" x2="73.3555" y2="552.712" gradientUnits="userSpaceOnUse">
<stop stop-color="#50A4FF"/>
<stop offset="0.514423" stop-color="#BADAFF"/>
<stop offset="0.995192" stop-color="#FFF5CF"/>
</linearGradient>
<linearGradient id="paint1_linear_1250_3407" x1="380.851" y1="406.206" x2="484.357" y2="636.223" gradientUnits="userSpaceOnUse">
<stop stop-color="#2783FF"/>
<stop offset="1" stop-color="#9FCDFF"/>
</linearGradient>
<linearGradient id="paint2_linear_1250_3407" x1="481.897" y1="443.128" x2="522.921" y2="646.986" gradientUnits="userSpaceOnUse">
<stop offset="0.533" stop-color="#FFE96C" stop-opacity="0"/>
<stop offset="1" stop-color="#FFE96C"/>
</linearGradient>
<linearGradient id="paint3_linear_1250_3407" x1="57.7252" y1="287.781" x2="62.6799" y2="312.402" gradientUnits="userSpaceOnUse">
<stop offset="0.533" stop-color="#FFE96C" stop-opacity="0"/>
<stop offset="1" stop-color="#FFE96C"/>
</linearGradient>
<linearGradient id="paint4_linear_1250_3407" x1="440.725" y1="231.781" x2="445.68" y2="256.402" gradientUnits="userSpaceOnUse">
<stop offset="0.533" stop-color="#FFE96C" stop-opacity="0"/>
<stop offset="1" stop-color="#FFE96C"/>
</linearGradient>
<linearGradient id="paint5_linear_1250_3407" x1="534.725" y1="395.781" x2="539.68" y2="420.402" gradientUnits="userSpaceOnUse">
<stop offset="0.533" stop-color="#FFE96C" stop-opacity="0"/>
<stop offset="1" stop-color="#FFE96C"/>
</linearGradient>
<linearGradient id="paint6_linear_1250_3407" x1="174.617" y1="332.428" x2="123.179" y2="117.477" gradientUnits="userSpaceOnUse">
<stop stop-color="#FFF5CF"/>
<stop offset="0.348" stop-color="#80BDFF"/>
<stop offset="1" stop-color="#2783FF"/>
</linearGradient>
<radialGradient id="paint7_radial_1250_3407" cx="0" cy="0" r="1" gradientUnits="userSpaceOnUse" gradientTransform="translate(123.247 62.9417) rotate(-13.4576) scale(303.955 121.875)">
<stop offset="0.196" stop-color="#2783FF"/>
<stop offset="0.763" stop-color="#50A4FF"/>
<stop offset="1" stop-color="#FFEFB3"/>
</radialGradient>
<linearGradient id="paint8_linear_1250_3407" x1="118.942" y1="85.2021" x2="161.276" y2="262.114" gradientUnits="userSpaceOnUse">
<stop stop-color="#005DC2"/>
<stop offset="1" stop-color="#BADAFF"/>
</linearGradient>
<linearGradient id="paint9_linear_1250_3407" x1="59.2291" y1="-165.054" x2="165.119" y2="277.452" gradientUnits="userSpaceOnUse">
<stop stop-color="#005DC2"/>
<stop offset="1" stop-color="#BADAFF"/>
</linearGradient>
<linearGradient id="paint10_linear_1250_3407" x1="182.74" y1="119.396" x2="110.253" y2="9.9571" gradientUnits="userSpaceOnUse">
<stop stop-color="#2783FF"/>
<stop offset="1" stop-color="#EEF6FF"/>
</linearGradient>
</defs>
</svg>
