<svg width="14" height="14" viewBox="0 0 14 14" fill="none" xmlns="http://www.w3.org/2000/svg">
<path fill-rule="evenodd" clip-rule="evenodd" d="M6.14156 0.0175781C5.176 0.0176604 4.22447 0.248646 3.36634 0.691264C2.50821 1.13388 1.76837 1.7753 1.20855 2.56199C0.64873 3.34869 0.285158 4.25786 0.148168 5.21365C0.0111773 6.16944 0.104742 7.14412 0.421056 8.0564C0.737369 8.96867 1.26726 9.79207 1.96652 10.4579C2.66577 11.1237 3.51412 11.6127 4.44078 11.884C5.36744 12.1553 6.34554 12.201 7.29348 12.0174C8.24142 11.8338 9.1317 11.4262 9.89006 10.8285L12.4916 13.4301C12.626 13.5599 12.8059 13.6317 12.9927 13.6301C13.1795 13.6284 13.3582 13.5535 13.4903 13.4214C13.6223 13.2894 13.6973 13.1107 13.6989 12.9239C13.7005 12.7371 13.6287 12.5572 13.4989 12.4228L10.8974 9.82124C11.6012 8.92836 12.0394 7.85538 12.1619 6.72507C12.2844 5.59477 12.0862 4.45282 11.5899 3.42991C11.0937 2.40699 10.3195 1.54444 9.35599 0.940977C8.39245 0.337509 7.27848 0.0175018 6.14156 0.0175781ZM1.51114 6.07274C1.51114 4.84468 1.99899 3.66691 2.86736 2.79854C3.73573 1.93017 4.9135 1.44232 6.14156 1.44232C7.36962 1.44232 8.54739 1.93017 9.41576 2.79854C10.2841 3.66691 10.772 4.84468 10.772 6.07274C10.772 7.3008 10.2841 8.47857 9.41576 9.34694C8.54739 10.2153 7.36962 10.7032 6.14156 10.7032C4.9135 10.7032 3.73573 10.2153 2.86736 9.34694C1.99899 8.47857 1.51114 7.3008 1.51114 6.07274Z" fill="#3C332B"/>
</svg>
