<svg width="16" height="16" viewBox="0 0 16 16" fill="none" xmlns="http://www.w3.org/2000/svg">
<path d="M0.37525 0.814703C0.474755 0.714947 0.592963 0.6358 0.723102 0.581798C0.853242 0.527796 0.992757 0.5 1.13366 0.5C1.27456 0.5 1.41407 0.527796 1.54421 0.581798C1.67435 0.6358 1.79256 0.714947 1.89206 0.814703L7.56083 6.48561L13.2296 0.814703C13.3292 0.715108 13.4474 0.636104 13.5776 0.582204C13.7077 0.528303 13.8472 0.500561 13.988 0.500561C14.1288 0.500561 14.2683 0.528303 14.3984 0.582204C14.5286 0.636104 14.6468 0.715108 14.7464 0.814703C14.846 0.914299 14.925 1.03254 14.9789 1.16266C15.0328 1.29279 15.0605 1.43226 15.0605 1.57311C15.0605 1.71396 15.0328 1.85343 14.9789 1.98356C14.925 2.11368 14.846 2.23192 14.7464 2.33152L9.0755 8.00028L14.7464 13.669C14.846 13.7686 14.925 13.8869 14.9789 14.017C15.0328 14.1471 15.0605 14.2866 15.0605 14.4275C15.0605 14.5683 15.0328 14.7078 14.9789 14.8379C14.925 14.968 14.846 15.0863 14.7464 15.1859C14.6468 15.2855 14.5286 15.3645 14.3984 15.4184C14.2683 15.4723 14.1288 15.5 13.988 15.5C13.8472 15.5 13.7077 15.4723 13.5776 15.4184C13.4474 15.3645 13.3292 15.2855 13.2296 15.1859L7.56083 9.51495L1.89206 15.1859C1.79247 15.2855 1.67423 15.3645 1.5441 15.4184C1.41398 15.4723 1.27451 15.5 1.13366 15.5C0.992808 15.5 0.853337 15.4723 0.72321 15.4184C0.593082 15.3645 0.474845 15.2855 0.37525 15.1859C0.275655 15.0863 0.196651 14.968 0.142751 14.8379C0.0888501 14.7078 0.0611077 14.5683 0.0611077 14.4275C0.0611077 14.2866 0.0888501 14.1471 0.142751 14.017C0.196651 13.8869 0.275655 13.7686 0.37525 13.669L6.04616 8.00028L0.37525 2.33152C0.275493 2.23201 0.196347 2.1138 0.142345 1.98366C0.0883431 1.85352 0.0605469 1.71401 0.0605469 1.57311C0.0605469 1.43221 0.0883431 1.2927 0.142345 1.16256C0.196347 1.03242 0.275493 0.914208 0.37525 0.814703Z" fill="#82BBFF"/>
</svg>
