<svg width="70" height="70" viewBox="0 0 70 70" fill="none" xmlns="http://www.w3.org/2000/svg">
<rect x="1.39648" y="0.779297" width="68.0535" height="68.0535" rx="34.0268" fill="#222222" stroke="#505050"/>
<path d="M34.4229 46.2783C34.4229 46.8306 34.8706 47.2783 35.4229 47.2783C35.9751 47.2783 36.4229 46.8306 36.4229 46.2783L34.4229 46.2783ZM36.13 22.6268C35.7394 22.2362 35.1063 22.2362 34.7157 22.6268L28.3518 28.9907C27.9613 29.3812 27.9613 30.0144 28.3518 30.4049C28.7423 30.7955 29.3755 30.7955 29.766 30.4049L35.4229 24.7481L41.0797 30.4049C41.4702 30.7955 42.1034 30.7955 42.4939 30.4049C42.8844 30.0144 42.8844 29.3812 42.4939 28.9907L36.13 22.6268ZM36.4229 46.2783L36.4229 23.3339L34.4229 23.3339L34.4229 46.2783L36.4229 46.2783Z" fill="#82BBFF"/>
</svg>
