<svg xmlns="http://www.w3.org/2000/svg" width="76" height="18" fill="none"><path fill="#000" d="M8 10H0v8h8zM46 18 27.169 0h-9.416999999999998l.02.02L10 18h8.313l5.342-12.357L36.582 18z"/><g fill="#000" clip-path="url(#a)"><path d="M57.466 9.318v1.6h-5.571v4.96h1.636c1.036 0 3.74-.134 5.036-.403l.373 1.554c-1.83.419-5.28.463-6.105.463H50V9.303zm-.033-3.944v1.584h-7.336V5.374zM60.056 5H62v13h-1.944zM76 9.591v1.546H63V9.59zM63.953 18v-3.849h9.186v-.757h-9.265v-1.53h11.14v3.832h-9.17v.774h9.425V18zM67.1 9.158l-1.637-.742c.715-.572 1.272-1.422 1.272-1.809h-2.83V5h4.911c0 1.36-.238 2.813-1.716 4.158m7.47-.077h-2.003c.334-.897.556-1.608.588-2.473h-3.782V5h5.721c0 1.391-.063 2.705-.524 4.08"/></g><defs><clipPath id="a"><path fill="#fff" d="M50 5h26v13H50z"/></clipPath></defs></svg>