<svg xmlns="http://www.w3.org/2000/svg" width="253" height="159" fill="none"><g clip-path="url(#a)"><path fill="#fff" d="M252.28 0H0v158.74h252.28z"/><path fill="#E4EFFC" d="m147.17 38.38-3-2.48a6.68 6.68 0 0 0-4.26-1.53h-29.55c-2.66 0-5.06 1.58-6.12 4.01L78.48 97.55c-5.66 13 3.87 27.54 18.05 27.54 7.83 0 14.92-4.64 18.05-11.83l17.69-40.65c1.77-4.07 6.95-5.31 10.38-2.48l62.68 51.82a13.65 13.65 0 0 0 8.71 3.14c12.82 0 18.59-16.05 8.71-24.22l-75.59-62.49zM62.77 88.29H37.31a5.67 5.67 0 0 0-5.67 5.67v25.46a5.67 5.67 0 0 0 5.67 5.67h25.46a5.67 5.67 0 0 0 5.67-5.67V93.96a5.67 5.67 0 0 0-5.67-5.67"/></g><defs><clipPath id="a"><path fill="#fff" d="M0 0h252.28v158.74H0z"/></clipPath></defs></svg>