<svg width="25" height="24" viewBox="0 0 25 24" fill="none" xmlns="http://www.w3.org/2000/svg">
<path fill-rule="evenodd" clip-rule="evenodd" d="M8.84778 1.99547e-08C7.43679 0.000120227 6.0463 0.337664 4.7923 0.984471C3.53829 1.63128 2.45715 2.56859 1.63907 3.71821C0.820994 4.86783 0.289698 6.19642 0.0895109 7.59313C-0.110676 8.98984 0.0260525 10.4142 0.488288 11.7473C0.950524 13.0804 1.72486 14.2837 2.7467 15.2567C3.76854 16.2297 5.00825 16.9442 6.3624 17.3406C7.71654 17.7371 9.14586 17.8039 10.5311 17.5356C11.9163 17.2673 13.2173 16.6716 14.3255 15.7983L22.4755 22.9483C22.6719 23.1379 22.9348 23.2428 23.2078 23.2405C23.4807 23.2381 23.7418 23.1286 23.9348 22.9356C24.1279 22.7426 24.2373 22.4815 24.2397 22.2085C24.2421 21.9356 24.1372 21.6726 23.9475 21.4763L15.7975 14.3263C16.826 13.0215 17.4664 11.4535 17.6454 9.80181C17.8244 8.15007 17.5347 6.48131 16.8096 4.9865C16.0845 3.4917 14.9531 2.23124 13.5451 1.34938C12.1371 0.467522 10.5092 -0.000111537 8.84778 1.99547e-08ZM2.08125 8.84853C2.08125 7.05394 2.79415 5.33285 4.06312 4.06388C5.33209 2.79491 7.05319 2.08201 8.84778 2.08201C10.6424 2.08201 12.3635 2.79491 13.6324 4.06388C14.9014 5.33285 15.6143 7.05394 15.6143 8.84853C15.6143 10.6431 14.9014 12.3642 13.6324 13.6332C12.3635 14.9022 10.6424 15.6151 8.84778 15.6151C7.05319 15.6151 5.33209 14.9022 4.06312 13.6332C2.79415 12.3642 2.08125 10.6431 2.08125 8.84853Z" fill="white"/>
</svg>
