<svg width="29" height="30" viewBox="0 0 29 30" fill="none" xmlns="http://www.w3.org/2000/svg">
<path d="M27.4108 13.2915C27.8095 13.2915 28.1919 13.4499 28.4738 13.7319C28.7558 14.0138 28.9141 14.3962 28.9141 14.7949C28.9141 15.1936 28.7558 15.576 28.4738 15.8579C28.1919 16.1399 27.8095 16.2982 27.4108 16.2982L16.1798 16.2965L16.1781 27.5274C16.1781 27.9261 16.0197 28.3085 15.7378 28.5904C15.4558 28.8724 15.0734 29.0308 14.6747 29.0308C14.276 29.0308 13.8936 28.8724 13.6117 28.5904C13.3298 28.3085 13.1714 27.9261 13.1714 27.5274L13.1731 16.2965L1.94219 16.2947C1.54348 16.2947 1.1611 16.1363 0.879162 15.8544C0.597228 15.5725 0.438839 15.1901 0.438839 14.7914C0.438839 14.3926 0.597228 14.0103 0.879161 13.7283C1.1611 13.4464 1.54348 13.288 1.94219 13.288L13.1731 13.2898L13.1723 2.05617C13.1723 1.65746 13.3306 1.27507 13.6126 0.993139C13.8945 0.711205 14.2769 0.552817 14.6756 0.552816C15.0743 0.552816 15.4567 0.711206 15.7386 0.993139C16.0206 1.27507 16.179 1.65746 16.179 2.05617L16.1798 13.2898L27.4108 13.2915Z" fill="#D9D9D9"/>
</svg>
