<svg xmlns="http://www.w3.org/2000/svg" width="45" height="31" fill="none"><g clip-path="url(#a)"><path fill="red" d="M43.17 26.217a5.36 5.36 0 0 1-1.418 2.4 5.5 5.5 0 0 1-2.446 1.39c-3.388.906-17.022.906-17.022.906s-13.636-.028-17.023-.934a5.5 5.5 0 0 1-2.447-1.39 5.36 5.36 0 0 1-1.417-2.4c-1.024-5.904-1.422-14.9.028-20.568a5.36 5.36 0 0 1 1.417-2.4 5.5 5.5 0 0 1 2.447-1.39C8.677.926 22.31.926 22.31.926s13.635 0 17.022.907a5.5 5.5 0 0 1 2.447 1.39 5.36 5.36 0 0 1 1.417 2.4c1.08 5.912 1.414 14.902-.028 20.595"/><path fill="#fff" d="m17.944 9.493 11.31 6.426-11.31 6.426z"/></g><defs><clipPath id="a"><path fill="#fff" d="M.478 30.913h43.655V.806H.478z"/></clipPath></defs></svg>