<svg xmlns="http://www.w3.org/2000/svg" width="238" height="86" fill="none"><circle cx="119.247" cy="15.067" r="14.421" fill="#3C332B"/><path fill="#fff" d="m120.691 5.969-.224 12.82h-2.464l-.224-12.82zm-1.444 18.196c-.97 0-1.792-.796-1.767-1.767-.025-.971.797-1.768 1.767-1.768.946 0 1.768.797 1.768 1.768 0 .97-.822 1.767-1.768 1.767"/><path fill="#484848" d="M82.1 51.041v1.333H71.526v-1.333h4.456v-1.74h-3.237v-3.884h6.538v-1.27h-6.55v-1.294h8.15v3.834h-6.513v1.294h6.78v1.32h-3.555v1.74zm9.903-7.871v1.384c-.006 1.587-.006 3.154-.419 5.548l-1.638-.14c.438-2.222.438-3.872.445-5.408v-.09h-6.538V43.17zm-9.242 8.975v-1.333h10.537v1.334zm20.909-10.029v8.303h-1.625v-8.303zm-9.496 3.644c0-1.695 1.384-2.914 3.161-2.907 1.771-.007 3.155 1.212 3.161 2.907-.006 1.72-1.39 2.932-3.161 2.932-1.777 0-3.161-1.212-3.161-2.932m1.587 0c-.013.965.666 1.523 1.574 1.523.876 0 1.555-.558 1.562-1.523-.007-.94-.686-1.505-1.562-1.498-.908-.007-1.587.558-1.574 1.498m.165 7.693v-3.872h1.638v2.577h6.411v1.295zM110.5 42.27c2.66 0 4.196.698 4.202 1.967-.006 1.289-1.542 1.98-4.202 1.98-2.666 0-4.215-.691-4.215-1.98 0-1.27 1.549-1.967 4.215-1.967m-5.269 5.776v-1.282h10.538v1.282zm1.219 1.853v-1.18h8.036v2.945h-6.436v.698h6.741v1.22h-8.328v-3.048h6.424v-.635zm1.536-5.662c-.006.565.819.787 2.514.787 1.708 0 2.526-.222 2.526-.787 0-.514-.818-.787-2.526-.787-1.695 0-2.52.273-2.514.787m17.05-.368v1.282h-5.586v-1.282h2.006v-1.447h1.6v1.447zm-5.319 4.545c0-1.606 1.079-2.736 2.552-2.742 1.479.006 2.532 1.136 2.539 2.742-.007 1.612-1.06 2.755-2.539 2.755-1.473 0-2.552-1.143-2.552-2.755m1.422 0c0 .882.457 1.384 1.13 1.384.647 0 1.11-.502 1.117-1.384-.007-.87-.47-1.396-1.117-1.396-.673 0-1.13.526-1.13 1.396m4.329 4.748V42.332h1.511v4.469h.939v-4.698h1.536v11.553h-1.536v-5.56h-.939v5.065zm15.767-4.684v1.295h-4.494v3.884h-1.599v-3.884h-4.444v-1.295zm-10.016-1.943c2.336-.285 3.631-1.415 3.802-2.552h-3.371v-1.27h8.646v1.27h-3.371c.165 1.137 1.441 2.267 3.815 2.552l-.584 1.27c-2.031-.273-3.485-1.137-4.183-2.324-.704 1.188-2.145 2.05-4.158 2.324zm14.422-1.523c-.007 1.872.514 3.802 2.094 4.811l-.876 1.257c-1.003-.603-1.631-1.606-1.999-2.787-.413 1.308-1.105 2.406-2.152 3.041l-.99-1.193c1.714-1.06 2.348-3.098 2.348-5.053v-1.993h1.575zm.876 2.31v-1.32h1.498v-3.732h1.51v10.854h-1.51v-5.802zm3.884 6.335V42.103h1.549v11.553zm13.343-2.678v1.332h-10.575v-1.333h2.361v-2.83c-.895-.54-1.434-1.359-1.434-2.374 0-1.873 1.828-3.105 4.342-3.11 2.5.006 4.348 1.237 4.354 3.11-.006.996-.527 1.802-1.396 2.342v2.862zm-8.049-5.206c0 1.13 1.086 1.829 2.743 1.829 1.631 0 2.748-.699 2.754-1.828-.006-1.162-1.123-1.835-2.754-1.829-1.657-.006-2.743.667-2.743 1.828m1.435 5.206h2.628V48.73a7.092 7.092 0 0 1-2.628.006zm8.772 1.624a1.053 1.053 0 0 1-1.066-1.066 1.04 1.04 0 0 1 1.066-1.054 1.06 1.06 0 0 1 1.054 1.054 1.07 1.07 0 0 1-1.054 1.066M73.474 72.746v.516h-6.36v-.516h2.86v-1.312H67.91v-2.141h4.156v-1.094h-4.171v-.508h4.773v2.102H68.52v1.133h4.312v.508h-2.258v1.312zm6.03-4.828v.695c0 .875 0 1.864-.257 3.375l-.625-.062c.281-1.422.281-2.461.281-3.313v-.187h-4.187v-.508zm-5.476 5.18v-.508h6.328v.508zm12.649-5.914v5.078h-.61v-5.078zm-5.57 2.187c-.004-1 .78-1.7 1.82-1.703 1.039.004 1.816.703 1.82 1.703-.004 1.012-.781 1.715-1.82 1.711-1.04.004-1.825-.7-1.82-1.71m.601 0c-.008.692.516 1.172 1.219 1.172.691 0 1.218-.48 1.218-1.172 0-.68-.527-1.164-1.218-1.164-.703 0-1.227.484-1.219 1.164m.484 4.602v-2.227h.61v1.711h4.093v.516zm8.829-6.672c1.543 0 2.449.426 2.453 1.195-.004.79-.91 1.215-2.454 1.219-1.55-.004-2.46-.43-2.46-1.219 0-.77.91-1.195 2.46-1.195m-3.165 3.383v-.5h6.329v.5zm.766 1.07v-.469h4.75v1.555h-4.125v.719h4.336v.484h-4.945v-1.656h4.132v-.633zm.578-3.258c-.008.485.668.75 1.82.75s1.825-.265 1.829-.75c-.004-.457-.676-.73-1.829-.734-1.152.004-1.828.277-1.82.734m11.047-.117v.5h-3.484v-.5h1.445v-.992h.61v.992zm-3.234 2.547c0-.922.629-1.574 1.492-1.578.875.004 1.5.656 1.508 1.578-.008.933-.633 1.59-1.508 1.593-.863-.003-1.492-.66-1.492-1.593m.547 0c0 .617.394 1.058.945 1.055.555.003.96-.438.96-1.055 0-.61-.405-1.055-.96-1.063-.55.008-.945.453-.945 1.063m3.046 2.851v-6.43h.579v2.759h.921v-2.93h.586v6.945h-.586v-3.508h-.921v3.164zm6.594-5.617c-.004.93 1.235 1.719 2.446 1.899l-.227.484c-1.082-.184-2.141-.762-2.563-1.598-.421.836-1.48 1.414-2.546 1.598l-.243-.484c1.207-.18 2.442-.97 2.446-1.899v-.047h-2.227v-.5h5.133v.5H107.2zm-3.508 3.484v-.507h6.329v.507h-2.875v2.477h-.602v-2.477zm9.383-2.601c-.004 1.27.86 2.543 1.883 3.008l-.375.484c-.793-.383-1.477-1.207-1.809-2.195-.32 1.047-1.003 1.926-1.816 2.336l-.391-.516c1.036-.472 1.891-1.8 1.899-3.117v-1.266h.609zm2.641 5.094v-6.961h.617v6.96zm5.32-6.352v.617h1.625v-1.218h.617v5.07h-.617v-1.852h-1.625v.625h-3.187v-3.242zm-2.578 2.75h1.977v-2.242h-1.977zm.328 3.438V71.8h.617v1.656h4.032v.516zm2.25-4.079h1.625v-.976h-1.625zm8.945-2.054v.516h-2.57v3.538c1.254.004 2.078-.038 3.039-.226l.078.508c-1.023.195-1.871.242-3.203.242h-.531V67.84zm-.414 2.375v-.508h2.024v-2.531h.617v6.96h-.617v-3.921zm11.227-3.04v1.571h1.047v.516h-1.047v1.476h-.609v-3.562zm-5.133 3.29v-2.828h3.211v2.828zm.445 3.469v-2.57h.594v2.066a5.3 5.3 0 0 0 1.43-.239l.094.493c-.676.222-1.336.254-1.789.25zm.157-3.961h2.015v-1.836h-2.015zm1.718 1.93v-.47h1.461v-.617h.602v.618h1.445v.468zm.461 1.226c-.004-.602.524-.973 1.289-.977.762.004 1.297.375 1.305.977-.008.602-.543.977-1.305.977-.765 0-1.293-.375-1.289-.977m.547 0c0 .332.309.547.742.539.434.008.743-.207.743-.54 0-.323-.309-.534-.743-.538-.433.004-.742.215-.742.539m9.617-2.29v.5h-6.328v-.5zm-5.625-2.038c0-.871.954-1.383 2.461-1.375 1.493-.008 2.45.504 2.454 1.375-.004.863-.961 1.383-2.454 1.383-1.507 0-2.461-.52-2.461-1.383m.118 5.172v-2.024h.617v1.508h4.187v.516zm.515-5.172c-.004.55.707.883 1.828.883 1.114 0 1.825-.332 1.829-.883-.004-.543-.715-.883-1.829-.883-1.121 0-1.832.34-1.828.883m13.328-1.625v6.945h-.617v-6.945zm-5.656 5.14c1.879-.89 2.84-2.222 2.977-3.882h-2.657v-.5h3.282c-.008 1.996-.938 3.765-3.266 4.882zm12.438-3.195v.508h-4.743v-2.313h.61v1.805zm-5.61 1.828v-.508h6.336v.508zm.766 1.883c-.004-.809.898-1.262 2.398-1.258 1.489-.004 2.383.45 2.391 1.258-.008.805-.902 1.258-2.391 1.258-1.5 0-2.402-.453-2.398-1.258m.625 0c-.008.484.66.777 1.773.781 1.102-.004 1.77-.297 1.774-.781-.004-.492-.672-.77-1.774-.773-1.113.004-1.781.28-1.773.773m8.687-5.531c1.543 0 2.45.426 2.454 1.195-.004.79-.911 1.215-2.454 1.219-1.55-.004-2.461-.43-2.461-1.219 0-.77.911-1.195 2.461-1.195m-3.164 3.383v-.5h6.328v.5zm.766 1.07v-.469h4.75v1.555h-4.125v.719h4.336v.484h-4.945v-1.656h4.132v-.633zm.578-3.258c-.008.485.668.75 1.82.75s1.825-.265 1.829-.75c-.004-.457-.676-.73-1.829-.734-1.152.004-1.828.277-1.82.734m-68.352 8.68v6.96h-.617v-6.96zm-5.468 2.96c.004-1.476.738-2.417 1.773-2.421 1.031.004 1.778.945 1.774 2.422.004 1.48-.743 2.418-1.774 2.414-1.035.004-1.77-.934-1.773-2.414m.593 0c0 1.13.485 1.872 1.18 1.868.7.004 1.18-.738 1.18-1.867s-.48-1.871-1.18-1.875c-.695.004-1.18.746-1.18 1.875m12.391.477v.508h-6.328v-.508h1.57v-.98c-.554-.215-.867-.567-.867-1.035 0-.817.938-1.285 2.461-1.29 1.512.004 2.449.473 2.453 1.29-.004.465-.312.816-.859 1.035v.98zm-5.562 2.266c-.004-.793.89-1.23 2.398-1.227 1.488-.004 2.383.434 2.391 1.227-.008.793-.903 1.227-2.391 1.227-1.508 0-2.402-.434-2.398-1.227m.57-4.281c-.004.508.691.8 1.828.804 1.125-.004 1.824-.296 1.828-.804-.004-.5-.703-.805-1.828-.805-1.137 0-1.832.305-1.828.805m.055 4.28c-.008.474.66.755 1.773.75 1.102.005 1.77-.276 1.774-.75-.004-.472-.672-.75-1.774-.757-1.113.008-1.781.285-1.773.758m.789-2.265h1.968v-.816a5.4 5.4 0 0 1-.984.082q-.545 0-.984-.078zm10.164-3.46v1.687h1.054v.508h-1.054v1.648h-.61v-3.844zm-5.414 1.148v-.492h1.765v-.703h.61v.703h1.765v.492zm.398 1.453c-.004-.703.66-1.137 1.672-1.14 1.008.003 1.664.437 1.672 1.14-.008.707-.664 1.137-1.672 1.14-1.012-.003-1.676-.433-1.672-1.14m.586 2.062v-.46h4.43v1.538h-3.813v.68h4.071v.469h-4.672v-1.602h3.804v-.625zm0-2.062c-.004.418.426.68 1.086.68.656 0 1.086-.262 1.094-.68-.008-.414-.438-.684-1.094-.688-.66.004-1.09.274-1.086.688m11.406-1.93c.004.98 1.278 1.824 2.532 2l-.25.5c-1.079-.18-2.149-.777-2.594-1.629-.445.86-1.512 1.45-2.594 1.63l-.25-.5c1.254-.177 2.524-1.005 2.524-2v-.4h.632zm-3.484 3.782v-.516h6.328v.516h-2.875v2.515h-.601v-2.515zm11.273.234c-.004.613.329 1.266.989 1.64.664-.41 1.015-1.105 1.011-1.64v-.383h.602v.383c-.004.715.523 1.426 1.414 1.734l-.305.453c-.695-.246-1.179-.73-1.422-1.312-.214.562-.64 1.097-1.281 1.367a2.2 2.2 0 0 1-1.312-1.348 2.46 2.46 0 0 1-1.391 1.293l-.312-.453c.878-.328 1.406-1.07 1.414-1.734v-.383h.593zm-2.187-2.625c-.004-.969.766-1.63 1.82-1.625 1.055-.004 1.817.656 1.821 1.625-.004.953-.766 1.61-1.821 1.61s-1.824-.657-1.82-1.61m.601 0c-.007.644.504 1.097 1.219 1.101.707-.004 1.219-.457 1.219-1.101 0-.649-.512-1.11-1.219-1.102-.715-.007-1.226.453-1.219 1.102m4.36 1.937v-3.968h.609v3.968zm3.656-3.437c.945.004 1.629.816 1.723 2.117h1.558v-2.656h.61v6.96h-.61V80.34h-1.55c-.067 1.363-.762 2.215-1.731 2.21-1.027.005-1.746-.933-1.742-2.413-.004-1.477.715-2.418 1.742-2.422m-1.156 2.422c.004 1.129.472 1.87 1.156 1.867.68.004 1.156-.738 1.156-1.867s-.476-1.871-1.156-1.875c-.684.004-1.152.746-1.156 1.875m12.562 2.578v.516h-6.359v-.516h1.578v-1.871c-.594-.309-.953-.809-.953-1.442 0-1.074 1.055-1.78 2.539-1.789 1.484.008 2.539.715 2.539 1.79 0 .62-.348 1.113-.922 1.421v1.89zm-5.14-3.313c-.004.778.804 1.297 1.945 1.297 1.129 0 1.945-.52 1.945-1.297s-.816-1.289-1.945-1.28c-1.141-.009-1.949.503-1.945 1.28m.961 3.313h1.984v-1.653a4 4 0 0 1-1 .122c-.355 0-.687-.04-.984-.118zm5.859-4.883-.055 4.063h-.656l-.055-4.063zm-.883 5.195a.5.5 0 0 1 .5-.5.505.505 0 0 1 0 1.008.505.505 0 0 1-.5-.508"/></svg>