<svg width="238" height="86" viewBox="0 0 238 86" fill="none" xmlns="http://www.w3.org/2000/svg">
<circle cx="119.247" cy="15.0674" r="14.4209" fill="#3C332B"/>
<path d="M120.691 5.96875L120.467 18.7883H118.003L117.779 5.96875H120.691ZM119.247 24.1651C118.277 24.1651 117.455 23.3685 117.48 22.3977C117.455 21.4269 118.277 20.6304 119.247 20.6304C120.193 20.6304 121.015 21.4269 121.015 22.3977C121.015 23.3685 120.193 24.1651 119.247 24.1651Z" fill="white"/>
<path d="M82.1006 51.041V52.374H71.5254V51.041H75.9814V49.3018H72.7441V45.417H79.2822V44.1475H72.7314V42.8525H80.8818V46.6865H74.3691V47.9814H81.1484V49.3018H77.5938V51.041H82.1006ZM92.0029 43.1699V44.5537C91.9966 46.1406 91.9966 47.7085 91.584 50.1016L89.9463 49.9619C90.3843 47.7402 90.3843 46.0898 90.3906 44.5537V44.4648H83.8525V43.1699H92.0029ZM82.7607 52.1455V50.8125H93.2979V52.1455H82.7607ZM103.67 42.1162V50.4189H102.045V42.1162H103.67ZM94.1738 45.7598C94.1738 44.0649 95.5576 42.8462 97.335 42.8525C99.106 42.8462 100.49 44.0649 100.496 45.7598C100.49 47.48 99.106 48.6924 97.335 48.6924C95.5576 48.6924 94.1738 47.48 94.1738 45.7598ZM95.7607 45.7598C95.748 46.7246 96.4272 47.2832 97.335 47.2832C98.2109 47.2832 98.8901 46.7246 98.8965 45.7598C98.8901 44.8203 98.2109 44.2554 97.335 44.2617C96.4272 44.2554 95.748 44.8203 95.7607 45.7598ZM95.9258 53.4531V49.5811H97.5635V52.1582H103.975V53.4531H95.9258ZM110.5 42.2686C113.16 42.2686 114.696 42.9668 114.702 44.2363C114.696 45.5249 113.16 46.2168 110.5 46.2168C107.834 46.2168 106.285 45.5249 106.285 44.2363C106.285 42.9668 107.834 42.2686 110.5 42.2686ZM105.231 48.0449V46.7627H115.769V48.0449H105.231ZM106.45 49.8984V48.7178H114.486V51.6631H108.05V52.3613H114.791V53.5801H106.463V50.5332H112.887V49.8984H106.45ZM107.986 44.2363C107.98 44.8013 108.805 45.0234 110.5 45.0234C112.208 45.0234 113.026 44.8013 113.026 44.2363C113.026 43.7222 112.208 43.4492 110.5 43.4492C108.805 43.4492 107.98 43.7222 107.986 44.2363ZM125.036 43.8682V45.1504H119.45V43.8682H121.456V42.4209H123.056V43.8682H125.036ZM119.717 48.4131C119.717 46.8071 120.796 45.6772 122.269 45.6709C123.748 45.6772 124.801 46.8071 124.808 48.4131C124.801 50.0254 123.748 51.168 122.269 51.168C120.796 51.168 119.717 50.0254 119.717 48.4131ZM121.139 48.4131C121.139 49.2954 121.596 49.7969 122.269 49.7969C122.916 49.7969 123.379 49.2954 123.386 48.4131C123.379 47.5435 122.916 47.0166 122.269 47.0166C121.596 47.0166 121.139 47.5435 121.139 48.4131ZM125.468 53.1611V42.332H126.979V46.8008H127.918V42.1035H129.454V53.6562H127.918V48.0957H126.979V53.1611H125.468ZM141.235 48.4766V49.7715H136.741V53.6562H135.142V49.7715H130.698V48.4766H141.235ZM131.219 46.5342C133.555 46.2485 134.85 45.1187 135.021 43.9824H131.65V42.7129H140.296V43.9824H136.925C137.09 45.1187 138.366 46.2485 140.74 46.5342L140.156 47.8037C138.125 47.5308 136.671 46.6675 135.973 45.4805C135.269 46.6675 133.828 47.5308 131.815 47.8037L131.219 46.5342ZM145.641 45.0107C145.634 46.8833 146.155 48.813 147.735 49.8223L146.859 51.0791C145.856 50.4761 145.228 49.4731 144.86 48.2925C144.447 49.6001 143.755 50.6982 142.708 51.333L141.718 50.1396C143.432 49.0796 144.066 47.042 144.066 45.0869V43.0938H145.641V45.0107ZM146.517 47.3213V46.001H148.015V42.2686H149.525V53.123H148.015V47.3213H146.517ZM150.401 53.6562V42.1035H151.95V53.6562H150.401ZM163.744 50.9775V52.3105H153.169V50.9775H155.53V48.1465C154.635 47.6069 154.096 46.7881 154.096 45.7725C154.096 43.8999 155.924 42.6685 158.438 42.6621C160.938 42.6685 162.786 43.8999 162.792 45.7725C162.786 46.769 162.265 47.5752 161.396 48.1147V50.9775H163.744ZM155.695 45.7725C155.695 46.9023 156.781 47.6006 158.438 47.6006C160.069 47.6006 161.186 46.9023 161.192 45.7725C161.186 44.6108 160.069 43.938 158.438 43.9443C156.781 43.938 155.695 44.6108 155.695 45.7725ZM157.13 50.9775H159.758V48.7305C159.345 48.813 158.901 48.8574 158.438 48.8574C157.974 48.8574 157.536 48.813 157.13 48.7368V50.9775ZM165.902 52.6025C165.306 52.6025 164.823 52.1265 164.836 51.5361C164.823 50.9521 165.306 50.4761 165.902 50.4824C166.467 50.4761 166.956 50.9521 166.956 51.5361C166.956 52.1265 166.467 52.6025 165.902 52.6025Z" fill="#484848"/>
<path d="M73.4736 72.7461V73.2617H67.1143V72.7461H69.9736V71.4336H67.9111V69.293H72.0674V68.1992H67.8955V67.6914H72.6689V69.793H68.5205V70.9258H72.833V71.4336H70.5752V72.7461H73.4736ZM79.5049 67.918V68.6133C79.5049 69.4883 79.5049 70.4766 79.2471 71.9883L78.6221 71.9258C78.9033 70.5039 78.9033 69.4648 78.9033 68.6133V68.4258H74.7158V67.918H79.5049ZM74.0283 73.0977V72.5898H80.3564V73.0977H74.0283ZM86.6768 67.1836V72.2617H86.0674V67.1836H86.6768ZM81.1064 69.3711C81.1025 68.3711 81.8877 67.6719 82.9268 67.668C83.9658 67.6719 84.7432 68.3711 84.7471 69.3711C84.7432 70.3828 83.9658 71.0859 82.9268 71.082C81.8877 71.0859 81.1025 70.3828 81.1064 69.3711ZM81.708 69.3711C81.7002 70.0625 82.2236 70.543 82.9268 70.543C83.6182 70.543 84.1455 70.0625 84.1455 69.3711C84.1455 68.6914 83.6182 68.207 82.9268 68.207C82.2236 68.207 81.7002 68.6914 81.708 69.3711ZM82.1924 73.9727V71.7461H82.8018V73.457H86.8955V73.9727H82.1924ZM91.0205 67.3008C92.5635 67.3008 93.4697 67.7266 93.4736 68.4961C93.4697 69.2852 92.5635 69.7109 91.0205 69.7148C89.4697 69.7109 88.5596 69.2852 88.5596 68.4961C88.5596 67.7266 89.4697 67.3008 91.0205 67.3008ZM87.8564 70.6836V70.1836H94.1846V70.6836H87.8564ZM88.6221 71.7539V71.2852H93.3721V72.8398H89.2471V73.5586H93.583V74.043H88.6377V72.3867H92.7705V71.7539H88.6221ZM89.2002 68.4961C89.1924 68.9805 89.8682 69.2461 91.0205 69.2461C92.1729 69.2461 92.8447 68.9805 92.8486 68.4961C92.8447 68.0391 92.1729 67.7656 91.0205 67.7617C89.8682 67.7656 89.1924 68.0391 89.2002 68.4961ZM100.247 68.3789V68.8789H96.7627V68.3789H98.208V67.3867H98.8174V68.3789H100.247ZM97.0127 70.9258C97.0127 70.0039 97.6416 69.3516 98.5049 69.3477C99.3799 69.3516 100.005 70.0039 100.013 70.9258C100.005 71.8594 99.3799 72.5156 98.5049 72.5195C97.6416 72.5156 97.0127 71.8594 97.0127 70.9258ZM97.5596 70.9258C97.5596 71.543 97.9541 71.9844 98.5049 71.9805C99.0596 71.9844 99.4658 71.543 99.4658 70.9258C99.4658 70.3164 99.0596 69.8711 98.5049 69.8633C97.9541 69.8711 97.5596 70.3164 97.5596 70.9258ZM100.606 73.7773V67.3477H101.185V70.1055H102.106V67.1758H102.692V74.1211H102.106V70.6133H101.185V73.7773H100.606ZM107.2 68.1602C107.196 69.0898 108.435 69.8789 109.646 70.0586L109.419 70.543C108.337 70.3594 107.278 69.7812 106.856 68.9453C106.435 69.7812 105.376 70.3594 104.31 70.543L104.067 70.0586C105.274 69.8789 106.509 69.0898 106.513 68.1602V68.1133H104.286V67.6133H109.419V68.1133H107.2V68.1602ZM103.692 71.6445V71.1367H110.021V71.6445H107.146V74.1211H106.544V71.6445H103.692ZM113.075 69.043C113.071 70.3125 113.935 71.5859 114.958 72.0508L114.583 72.5352C113.79 72.1523 113.106 71.3281 112.774 70.3398C112.454 71.3867 111.771 72.2656 110.958 72.6758L110.567 72.1602C111.603 71.6875 112.458 70.3594 112.466 69.043V67.7773H113.075V69.043ZM115.716 74.1367V67.1758H116.333V74.1367H115.716ZM121.036 67.7852V68.4023H122.661V67.1836H123.278V72.2539H122.661V70.4023H121.036V71.0273H117.849V67.7852H121.036ZM118.458 70.5352H120.435V68.293H118.458V70.5352ZM118.786 73.9727V71.8008H119.403V73.457H123.435V73.9727H118.786ZM121.036 69.8945H122.661V68.918H121.036V69.8945ZM129.981 67.8398V68.3555H127.411V71.8945C128.665 71.8984 129.489 71.8555 130.45 71.668L130.528 72.1758C129.505 72.3711 128.657 72.418 127.325 72.418H126.794V67.8398H129.981ZM129.567 70.2148V69.707H131.591V67.1758H132.208V74.1367H131.591V70.2148H129.567ZM140.794 67.1758V68.7461H141.841V69.2617H140.794V70.7383H140.185V67.1758H140.794ZM135.661 70.4648V67.6367H138.872V70.4648H135.661ZM136.106 73.9336V71.3633H136.7V73.4297C137.103 73.4141 137.638 73.3555 138.13 73.1914L138.224 73.6836C137.548 73.9062 136.888 73.9375 136.435 73.9336H136.106ZM136.263 69.9727H138.278V68.1367H136.263V69.9727ZM137.981 71.9023V71.4336H139.442V70.8164H140.044V71.4336H141.489V71.9023H137.981ZM138.442 73.1289C138.438 72.5273 138.966 72.1562 139.731 72.1523C140.493 72.1562 141.028 72.5273 141.036 73.1289C141.028 73.7305 140.493 74.1055 139.731 74.1055C138.966 74.1055 138.438 73.7305 138.442 73.1289ZM138.989 73.1289C138.989 73.4609 139.298 73.6758 139.731 73.668C140.165 73.6758 140.474 73.4609 140.474 73.1289C140.474 72.8047 140.165 72.5938 139.731 72.5898C139.298 72.5938 138.989 72.8047 138.989 73.1289ZM148.606 70.8398V71.3398H142.278V70.8398H148.606ZM142.981 68.8008C142.981 67.9297 143.935 67.418 145.442 67.4258C146.935 67.418 147.892 67.9297 147.896 68.8008C147.892 69.6641 146.935 70.1836 145.442 70.1836C143.935 70.1836 142.981 69.6641 142.981 68.8008ZM143.099 73.9727V71.9492H143.716V73.457H147.903V73.9727H143.099ZM143.614 68.8008C143.61 69.3516 144.321 69.6836 145.442 69.6836C146.556 69.6836 147.267 69.3516 147.271 68.8008C147.267 68.2578 146.556 67.918 145.442 67.918C144.321 67.918 143.61 68.2578 143.614 68.8008ZM156.942 67.1758V74.1211H156.325V67.1758H156.942ZM151.286 72.3164C153.165 71.4258 154.126 70.0938 154.263 68.4336H151.606V67.9336H154.888C154.88 69.9297 153.95 71.6992 151.622 72.8164L151.286 72.3164ZM163.724 69.1211V69.6289H158.981V67.3164H159.591V69.1211H163.724ZM158.114 70.9492V70.4414H164.45V70.9492H158.114ZM158.88 72.832C158.876 72.0234 159.778 71.5703 161.278 71.5742C162.767 71.5703 163.661 72.0234 163.669 72.832C163.661 73.6367 162.767 74.0898 161.278 74.0898C159.778 74.0898 158.876 73.6367 158.88 72.832ZM159.505 72.832C159.497 73.3164 160.165 73.6094 161.278 73.6133C162.38 73.6094 163.048 73.3164 163.052 72.832C163.048 72.3398 162.38 72.0625 161.278 72.0586C160.165 72.0625 159.497 72.3398 159.505 72.832ZM168.192 67.3008C169.735 67.3008 170.642 67.7266 170.646 68.4961C170.642 69.2852 169.735 69.7109 168.192 69.7148C166.642 69.7109 165.731 69.2852 165.731 68.4961C165.731 67.7266 166.642 67.3008 168.192 67.3008ZM165.028 70.6836V70.1836H171.356V70.6836H165.028ZM165.794 71.7539V71.2852H170.544V72.8398H166.419V73.5586H170.755V74.043H165.81V72.3867H169.942V71.7539H165.794ZM166.372 68.4961C166.364 68.9805 167.04 69.2461 168.192 69.2461C169.345 69.2461 170.017 68.9805 170.021 68.4961C170.017 68.0391 169.345 67.7656 168.192 67.7617C167.04 67.7656 166.364 68.0391 166.372 68.4961ZM98.0205 77.1758V84.1367H97.4033V77.1758H98.0205ZM92.5518 80.1367C92.5557 78.6602 93.29 77.7188 94.3252 77.7148C95.3564 77.7188 96.1025 78.6602 96.0986 80.1367C96.1025 81.6172 95.3564 82.5547 94.3252 82.5508C93.29 82.5547 92.5557 81.6172 92.5518 80.1367ZM93.1455 80.1367C93.1455 81.2656 93.6299 82.0078 94.3252 82.0039C95.0244 82.0078 95.5049 81.2656 95.5049 80.1367C95.5049 79.0078 95.0244 78.2656 94.3252 78.2617C93.6299 78.2656 93.1455 79.0078 93.1455 80.1367ZM105.536 80.6133V81.1211H99.208V80.6133H100.778V79.6328C100.224 79.418 99.9111 79.0664 99.9111 78.5977C99.9111 77.7812 100.849 77.3125 102.372 77.3086C103.884 77.3125 104.821 77.7812 104.825 78.5977C104.821 79.0625 104.513 79.4141 103.966 79.6328V80.6133H105.536ZM99.9736 82.8789C99.9697 82.0859 100.864 81.6484 102.372 81.6523C103.86 81.6484 104.755 82.0859 104.763 82.8789C104.755 83.6719 103.86 84.1055 102.372 84.1055C100.864 84.1055 99.9697 83.6719 99.9736 82.8789ZM100.544 78.5977C100.54 79.1055 101.235 79.3984 102.372 79.4023C103.497 79.3984 104.196 79.1055 104.2 78.5977C104.196 78.0977 103.497 77.793 102.372 77.793C101.235 77.793 100.54 78.0977 100.544 78.5977ZM100.599 82.8789C100.591 83.3516 101.259 83.6328 102.372 83.6289C103.474 83.6328 104.142 83.3516 104.146 82.8789C104.142 82.4062 103.474 82.1289 102.372 82.1211C101.259 82.1289 100.591 82.4062 100.599 82.8789ZM101.388 80.6133H103.356V79.7969C103.063 79.8516 102.735 79.8789 102.372 79.8789C102.009 79.8789 101.681 79.8516 101.388 79.8008V80.6133ZM111.552 77.1523V78.8398H112.606V79.3477H111.552V80.9961H110.942V77.1523H111.552ZM106.138 78.3008V77.8086H107.903V77.1055H108.513V77.8086H110.278V78.3008H106.138ZM106.536 79.7539C106.532 79.0508 107.196 78.6172 108.208 78.6133C109.216 78.6172 109.872 79.0508 109.88 79.7539C109.872 80.4609 109.216 80.8906 108.208 80.8945C107.196 80.8906 106.532 80.4609 106.536 79.7539ZM107.122 81.8164V81.3555H111.552V82.8945H107.739V83.5742H111.81V84.043H107.138V82.4414H110.942V81.8164H107.122ZM107.122 79.7539C107.118 80.1719 107.548 80.4336 108.208 80.4336C108.864 80.4336 109.294 80.1719 109.302 79.7539C109.294 79.3398 108.864 79.0703 108.208 79.0664C107.548 79.0703 107.118 79.3398 107.122 79.7539ZM118.528 77.8242C118.532 78.8047 119.806 79.6484 121.06 79.8242L120.81 80.3242C119.731 80.1445 118.661 79.5469 118.216 78.6953C117.771 79.5547 116.704 80.1445 115.622 80.3242L115.372 79.8242C116.626 79.6484 117.896 78.8203 117.896 77.8242V77.4258H118.528V77.8242ZM115.044 81.6055V81.0898H121.372V81.6055H118.497V84.1211H117.896V81.6055H115.044ZM126.317 81.8398C126.313 82.4531 126.646 83.1055 127.306 83.4805C127.97 83.0703 128.321 82.375 128.317 81.8398V81.457H128.919V81.8398C128.915 82.5547 129.442 83.2656 130.333 83.5742L130.028 84.0273C129.333 83.7812 128.849 83.2969 128.606 82.7148C128.392 83.2773 127.966 83.8125 127.325 84.082C126.649 83.8242 126.22 83.3164 126.013 82.7344C125.763 83.293 125.286 83.7773 124.622 84.0273L124.31 83.5742C125.188 83.2461 125.716 82.5039 125.724 81.8398V81.457H126.317V81.8398ZM124.13 79.2148C124.126 78.2461 124.896 77.5859 125.95 77.5898C127.005 77.5859 127.767 78.2461 127.771 79.2148C127.767 80.168 127.005 80.8242 125.95 80.8242C124.896 80.8242 124.126 80.168 124.13 79.2148ZM124.731 79.2148C124.724 79.8594 125.235 80.3125 125.95 80.3164C126.657 80.3125 127.169 79.8594 127.169 79.2148C127.169 78.5664 126.657 78.1055 125.95 78.1133C125.235 78.1055 124.724 78.5664 124.731 79.2148ZM129.091 81.1523V77.1836H129.7V81.1523H129.091ZM132.747 77.7148C133.692 77.7188 134.376 78.5312 134.47 79.832H136.028V77.1758H136.638V84.1367H136.028V80.3398H134.478C134.411 81.7031 133.716 82.5547 132.747 82.5508C131.72 82.5547 131.001 81.6172 131.005 80.1367C131.001 78.6602 131.72 77.7188 132.747 77.7148ZM131.591 80.1367C131.595 81.2656 132.063 82.0078 132.747 82.0039C133.427 82.0078 133.903 81.2656 133.903 80.1367C133.903 79.0078 133.427 78.2656 132.747 78.2617C132.063 78.2656 131.595 79.0078 131.591 80.1367ZM144.153 82.7148V83.2305H137.794V82.7148H139.372V80.8438C138.778 80.5352 138.419 80.0352 138.419 79.4023C138.419 78.3281 139.474 77.6211 140.958 77.6133C142.442 77.6211 143.497 78.3281 143.497 79.4023C143.497 80.0234 143.149 80.5156 142.575 80.8242V82.7148H144.153ZM139.013 79.4023C139.009 80.1797 139.817 80.6992 140.958 80.6992C142.087 80.6992 142.903 80.1797 142.903 79.4023C142.903 78.625 142.087 78.1133 140.958 78.1211C139.817 78.1133 139.009 78.625 139.013 79.4023ZM139.974 82.7148H141.958V81.0625C141.657 81.1406 141.321 81.1836 140.958 81.1836C140.603 81.1836 140.271 81.1445 139.974 81.0664V82.7148ZM145.833 77.832L145.778 81.8945H145.122L145.067 77.832H145.833ZM144.95 83.0273C144.942 82.7539 145.177 82.5273 145.45 82.5273C145.728 82.5273 145.954 82.7539 145.95 83.0273C145.954 83.3047 145.728 83.5312 145.45 83.5352C145.177 83.5312 144.942 83.3047 144.95 83.0273Z" fill="#484848"/>
</svg>
