<svg xmlns="http://www.w3.org/2000/svg" width="238" height="101" fill="none"><circle cx="118.645" cy="14.44" r="14.421" fill="#3C332B"/><path fill="#fff" d="m120.089 5.342-.224 12.82H117.4l-.224-12.82zm-1.444 18.196c-.971 0-1.792-.796-1.767-1.767-.025-.971.796-1.768 1.767-1.768.946 0 1.767.797 1.767 1.768 0 .97-.821 1.767-1.767 1.767"/><path fill="#484848" d="M53.505 42.67v3.009h1.155v-4.037h1.524v10.854H54.66v-5.522h-1.155v3.148h-4.596V42.67zm-3.085 6.182h1.574v-4.9H50.42zm6.627 4.177V41.477h1.549v11.552zm12.441-11.54v8.303h-1.625v-8.303zm-9.496 3.644c0-1.695 1.384-2.914 3.161-2.907 1.771-.007 3.155 1.212 3.161 2.907-.006 1.72-1.39 2.932-3.16 2.932-1.778 0-3.162-1.212-3.162-2.932m1.587 0c-.013.965.667 1.523 1.574 1.523.876 0 1.556-.558 1.562-1.523-.007-.94-.686-1.505-1.562-1.498-.907-.007-1.587.558-1.574 1.498m.165 7.693v-3.872h1.638v2.577h6.411v1.295zm19.411-11.35V53.03h-1.561V41.477zm-10.232 7.58h.965v-4.964h-.75v-1.308h5.295v1.308h-.737v4.805c.324-.032.635-.063.927-.108l.114 1.168c-1.828.387-4.19.432-5.636.432zm2.4-.026q.446-.01.9-.032v-4.906h-.9zm2.843-1.904v-1.447h1.117v-3.974h1.536v10.778h-1.536v-5.357zm15.793-5.65v11.579h-1.638V41.477zm-9.331 4.926c-.006-2.52 1.282-4.113 3.06-4.113 1.739 0 3.034 1.593 3.034 4.113 0 2.54-1.295 4.126-3.034 4.126-1.778 0-3.066-1.587-3.06-4.126m1.561 0c-.006 1.72.597 2.66 1.499 2.654.876.006 1.466-.933 1.472-2.654-.006-1.714-.596-2.653-1.472-2.653-.902 0-1.505.94-1.499 2.653m13.813-1.777c-.006 1.866.958 3.866 2.894 4.672l-.875 1.27c-1.359-.578-2.298-1.727-2.819-3.124-.52 1.517-1.479 2.787-2.844 3.415l-.926-1.282c1.917-.857 2.907-2.996 2.907-4.951v-.71h-2.45v-1.321h6.525v1.32h-2.412zm3.555 8.404V41.477h1.637v11.552zm13.215-11.552v11.552h-1.548V41.477zm-9.915 5.002c0-2.584.984-4.184 2.514-4.177 1.39-.007 2.342 1.295 2.52 3.453h.946v-4.113h1.523v10.854h-1.523v-5.459h-.933c-.14 2.266-1.111 3.644-2.533 3.644-1.53 0-2.514-1.606-2.514-4.203m1.498 0c-.012 1.777.369 2.653 1.016 2.64.667.013 1.06-.863 1.054-2.64.006-1.771-.387-2.654-1.054-2.654-.647 0-1.028.883-1.016 2.653m14.003-2.387c.007 2.17.883 4.285 2.806 5.116l-.99 1.295c-1.282-.622-2.146-1.777-2.628-3.206-.495 1.518-1.384 2.762-2.704 3.41l-1.016-1.321c1.981-.895 2.882-3.123 2.895-5.294v-1.727h1.637zm1.511 2.323v-1.308h2.273v-3.63h1.599v11.578h-1.599v-6.64zm13.622-4.342c2.482 0 4.348 1.257 4.355 3.161-.007 1.746-1.479 2.914-3.555 3.142v1.975h4.507v1.333h-10.575V50.35h4.456v-1.974c-2.063-.235-3.53-1.403-3.53-3.143 0-1.904 1.86-3.16 4.342-3.16m-2.742 3.161c0 1.22 1.124 1.898 2.742 1.905 1.625-.007 2.749-.686 2.755-1.905-.006-1.155-1.13-1.872-2.755-1.866-1.618-.006-2.742.711-2.742 1.866m19.272 2.489v1.295h-10.576v-1.295zm-9.281-4.736v-1.244h7.998v3.187h-6.36v.825h6.576v1.219h-8.188v-3.2h6.347v-.787zm.038 9.84v-3.175h1.625v1.88h6.589v1.294zm18.231-9.65c-.013.756.641 1.556 2.031 1.867l-.686 1.168c-1.117-.267-1.847-.87-2.234-1.619-.387.667-1.079 1.225-2.158 1.467-1.073-.254-1.777-.807-2.177-1.467-.381.743-1.098 1.352-2.216 1.619l-.673-1.168c1.359-.317 2.025-1.143 2.032-1.866h-1.536V41.87h4.329v1.308h-1.194c.013.565.502 1.2 1.429 1.561.914-.362 1.39-.984 1.402-1.561h-1.168V41.87h4.317v1.308zm-8.316 5.117v-1.282h4.456v-.94h1.613v.94h4.468v1.282zm1.143 2.222V49.22h8.138v3.808h-1.625v-2.513zm16.859-8.557c1.765-.013 3.047.997 3.047 2.45 0 1.441-1.282 2.463-3.047 2.45-1.758.013-3.04-1.009-3.034-2.45-.006-1.453 1.276-2.463 3.034-2.45m-3.745 5.611c2.05-.006 4.951-.044 7.414-.419l.102 1.194c-.952.19-1.93.31-2.895.387v3.955h-1.612v-3.86c-1.016.045-1.974.05-2.806.064zm2.273-3.16c-.007.723.609 1.142 1.472 1.13.889.012 1.511-.407 1.511-1.13 0-.737-.622-1.162-1.511-1.156-.863-.006-1.479.419-1.472 1.155m5.839 8.62V41.49h1.6v11.54zm13.115-11.553v11.552h-1.549V41.477zm-9.915 5.002c0-2.584.984-4.184 2.513-4.177 1.391-.007 2.343 1.295 2.52 3.453h.946v-4.113h1.524v10.854h-1.524v-5.459h-.933c-.14 2.266-1.111 3.644-2.533 3.644-1.529 0-2.513-1.606-2.513-4.203m1.498 0c-.013 1.777.368 2.653 1.015 2.64.667.013 1.06-.863 1.054-2.64.006-1.771-.387-2.654-1.054-2.654-.647 0-1.028.883-1.015 2.653M51.702 66.414v1.333H41.127v-1.333h4.456v-1.74h-3.237V60.79h6.538v-1.27h-6.551v-1.294h8.15v3.834h-6.512v1.294h6.779v1.32h-3.555v1.74zm9.903-7.871v1.384c-.007 1.587-.007 3.154-.42 5.548l-1.637-.14c.438-2.222.438-3.872.444-5.408v-.09h-6.538v-1.294zm-9.243 8.976v-1.334H62.9v1.334zm20.91-10.03v8.303h-1.626v-8.303zm-9.497 3.644c0-1.695 1.384-2.914 3.161-2.907 1.771-.007 3.155 1.212 3.162 2.907-.007 1.72-1.39 2.932-3.162 2.932-1.777 0-3.16-1.212-3.16-2.932m1.587 0c-.012.965.667 1.523 1.575 1.523.876 0 1.555-.558 1.561-1.523-.006-.94-.686-1.505-1.562-1.498-.907-.007-1.586.558-1.574 1.498m.165 7.693v-3.872h1.638v2.577h6.411v1.295zm18.421-11.35v4.52h1.701v1.333h-1.7v5.7h-1.6V57.477zm-9.178 3.022v-1.295h2.615v-1.549h1.625v1.55h2.551v1.294zm.47 3.402c-.007-1.612 1.25-2.76 2.957-2.754 1.682-.007 2.946 1.142 2.946 2.754s-1.264 2.749-2.946 2.755c-1.707-.006-2.964-1.142-2.958-2.755m1.548 0c0 .895.59 1.429 1.41 1.422.805.007 1.396-.527 1.396-1.422 0-.888-.59-1.434-1.397-1.447-.819.013-1.409.559-1.409 1.447m18.992-6.423v11.552h-1.637V57.477zm-9.674 8.277c2.984-1.41 4.298-3.237 4.558-5.802h-3.936v-1.27h5.587c-.007 3.505-1.232 6.418-5.358 8.367zm23.944-8.277v11.578h-1.6v-6.196h-2.145v3.453h-5.574v-7.947h1.613v2.806h2.374v-2.806h1.587v3.187h2.145v-4.075zm-7.706 7.54h2.374V62.44h-2.374zm19.728-1.294v1.27H111.51v-1.27zm-9.267 5.103v-3.25h1.599v1.955h6.602v1.295zM112.83 63v-5.142h8.011v1.232h-6.386v.736h6.119v1.194h-6.119v.761h6.487V63zm15.209-5.357c2.66 0 4.196.698 4.202 1.967-.006 1.289-1.542 1.98-4.202 1.98-2.666 0-4.215-.691-4.215-1.98 0-1.27 1.549-1.967 4.215-1.967m-5.268 5.776v-1.282h10.537v1.282zm1.218 1.854V64.09h8.036v2.945h-6.436v.698h6.741v1.22h-8.328v-3.048h6.424v-.635zm1.536-5.663c-.006.565.819.788 2.514.788 1.708 0 2.526-.223 2.526-.788 0-.514-.818-.787-2.526-.787-1.695 0-2.52.273-2.514.787m20.821.203v1.283h-8.036v-3.479h1.612v2.197zm-9.357 3.263V61.78h10.575v1.295h-4.519v.902h3.25v3.008h-6.449v.724h6.804v1.244h-8.429v-3.097h6.462v-.66h-6.488v-1.22h3.263v-.9zm20.986-5.598v11.578h-1.613V62.96h-1.866v-1.32h1.866v-4.164zm-9.357 2.272v-1.308h5.231v4.33h-3.593v2.26c1.593-.013 2.939-.07 4.431-.33l.126 1.32c-1.713.285-3.281.349-5.217.342h-.952v-4.875h3.63V59.75zm21.392 4.1v1.295h-4.494v3.885h-1.6v-3.885h-4.443V63.85zm-10.017-1.942c2.336-.285 3.631-1.415 3.802-2.551h-3.37v-1.27h8.645v1.27h-3.37c.165 1.136 1.441 2.266 3.815 2.551l-.584 1.27c-2.032-.273-3.485-1.136-4.183-2.324-.705 1.188-2.146 2.05-4.158 2.324zm14.422-1.523c-.006 1.872.514 3.802 2.095 4.811l-.876 1.257c-1.003-.603-1.632-1.606-2-2.786-.412 1.307-1.104 2.405-2.152 3.04l-.99-1.193c1.714-1.06 2.349-3.098 2.349-5.053v-1.993h1.574zm.876 2.31v-1.32h1.498v-3.732h1.511v10.854h-1.511v-5.802zm3.885 6.335V57.477h1.549v11.552zm13.343-2.678v1.333h-10.576V66.35h2.362V63.52c-.895-.54-1.435-1.359-1.435-2.375 0-1.872 1.828-3.104 4.342-3.11 2.501.007 4.348 1.238 4.354 3.11-.006.997-.526 1.803-1.396 2.343v2.863zm-8.049-5.206c0 1.13 1.085 1.829 2.742 1.829 1.631 0 2.748-.699 2.755-1.828-.007-1.162-1.124-1.835-2.755-1.829-1.657-.006-2.742.667-2.742 1.828m1.434 5.206h2.628v-2.248a6.8 6.8 0 0 1-1.32.128c-.463 0-.901-.045-1.308-.121zm8.773 1.625a1.053 1.053 0 0 1-1.067-1.067 1.043 1.043 0 0 1 1.067-1.053 1.06 1.06 0 0 1 1.053 1.053 1.07 1.07 0 0 1-1.053 1.067M79.785 88.096v.507h-6.36v-.507h2.86v-1.5h-2.11V83.04h.618v1.258h3.61V83.04h.6v3.555h-2.116v1.5zm-4.992-2h3.61v-1.297h-3.61zm10.922-3.547v2.75h1.164v.515h-1.164v3.696h-.61v-6.961zm-5.07 5.219v-4.54h3.242v.508h-2.633v3.516c1.258-.004 2.144-.059 3.18-.25l.078.531c-1.09.195-2 .235-3.32.235zm14.046-5.22v2.118h1.047v.516h-1.047v2.492h-.609v-5.125zm-5.297 2.204c-.003-1.008.786-1.707 1.82-1.711 1.044.004 1.821.703 1.829 1.711-.008 1.004-.785 1.71-1.828 1.71-1.035 0-1.824-.706-1.82-1.71m.602 0c-.004.684.531 1.172 1.219 1.172.7 0 1.222-.489 1.226-1.172-.004-.687-.527-1.172-1.226-1.172-.688 0-1.223.484-1.219 1.172m.352 4.594v-2.203h.601v1.687h4.063v.516zm11.586-6.797v4.14h-.618v-1.82h-1.398v-.508h1.398V82.55zm-5.727 3.586c1.031-.371 1.766-1.313 1.766-2.305v-.258h-1.57v-.515h3.742v.515H98.59v.25c0 .906.695 1.77 1.711 2.117l-.32.493a2.9 2.9 0 0 1-1.684-1.582 3.02 3.02 0 0 1-1.77 1.777zm1.094 2.062c-.004-.816.883-1.293 2.328-1.289 1.441-.004 2.328.473 2.328 1.29 0 .82-.887 1.288-2.328 1.296-1.445-.008-2.332-.476-2.328-1.297m.61 0c-.005.504.651.809 1.718.805 1.062.004 1.719-.3 1.719-.805 0-.508-.657-.812-1.72-.812-1.065 0-1.722.304-1.718.812m7.593-4.367c0 .902.695 1.766 1.711 2.117l-.32.485a2.86 2.86 0 0 1-1.684-1.579 3 3 0 0 1-1.77 1.743l-.32-.485c1.024-.367 1.766-1.293 1.766-2.273v-.305h-1.571v-.5h3.743v.5h-1.555zm-1.328 3.758v-.508h4.672v2.414h-.618v-1.906zm2.664-2.703v-.516h1.39v-1.82h.618v4.164h-.618v-1.828zm8.898-2.328v5.078h-.609v-5.078zm-5.57 2.187c-.004-1 .781-1.7 1.82-1.703 1.039.004 1.817.703 1.821 1.703-.004 1.012-.782 1.715-1.821 1.711-1.039.004-1.824-.7-1.82-1.71m.602 0c-.008.692.515 1.172 1.218 1.172.692 0 1.219-.48 1.219-1.172 0-.68-.527-1.164-1.219-1.164-.703 0-1.226.484-1.218 1.164m.484 4.602v-2.227h.609v1.711h4.094v.516zm10.117-4.93c-.004 1.258.805 2.523 1.813 2.984l-.368.5c-.789-.406-1.441-1.234-1.75-2.222-.308 1.039-.961 1.93-1.75 2.347l-.398-.492c1.02-.5 1.824-1.836 1.828-3.117V83.15h.625zm1.055 1.008v-.5h1.648v-2.375h.61v6.96h-.61v-4.085zm9.14-2.875v6.96h-.617v-6.96zm-5.32 5.281v-4.687h.609v1.835h2.071v-1.835h.601v4.687zm.609-.516h2.071v-1.843h-2.071zm9.36-3.742c.004 1.192 1.363 2.25 2.57 2.477l-.281.515c-1.051-.242-2.152-.988-2.602-2.007-.453 1.02-1.55 1.761-2.601 2.007l-.281-.515c1.203-.23 2.55-1.281 2.554-2.477v-.531h.641zm-3.461 4.977v-.508h6.359v.508zm13.266-2.774v.485h-6.36v-.485zm-5.594 1.5v-.46h4.797v1.476h-4.172v.664h4.398v.445h-5.015v-1.53h4.179v-.595zm.039-4.07v-.445h4.734v1.437h-4.101v.61h4.226v.445h-4.836v-1.477h4.094v-.57zm10.414-.312c1.039-.008 1.785.566 1.781 1.414.004.847-.742 1.425-1.781 1.421-1.039.004-1.781-.574-1.781-1.421s.742-1.422 1.781-1.414m-2.305 3.43c1.305.003 3.09-.024 4.633-.25l.039.46c-.664.121-1.351.195-2.023.239v2.511h-.61v-2.476c-.707.03-1.375.035-1.953.039zm1.125-2.016c-.008.543.489.918 1.18.914.699.004 1.199-.371 1.195-.914.004-.54-.496-.922-1.195-.914-.691-.008-1.188.375-1.18.914m4.016 5.195v-6.945h.601v6.945zm5.258-5.75v.5h-3.485v-.5h1.446v-.992h.609v.992zm-3.235 2.547c0-.922.629-1.574 1.492-1.578.875.004 1.5.656 1.508 1.578-.008.933-.633 1.59-1.508 1.594-.863-.004-1.492-.66-1.492-1.594m.547 0c0 .617.395 1.058.945 1.054.555.004.961-.437.961-1.054 0-.61-.406-1.055-.961-1.063-.55.008-.945.453-.945 1.063m3.047 2.851v-6.43h.578v2.758h.922v-2.93h.586v6.946h-.586v-3.508h-.922v3.164zm-98.281 5.266c-.004 1.27.86 2.543 1.883 3.008l-.375.484c-.793-.383-1.477-1.207-1.809-2.195-.32 1.047-1.004 1.926-1.816 2.336l-.391-.516c1.035-.472 1.89-1.8 1.898-3.117V93.15h.61zm2.64 5.094v-6.961h.618v6.96zm5.266-5.938c.004 1.192 1.363 2.25 2.57 2.477l-.28.515c-1.052-.242-2.153-.988-2.603-2.007-.453 1.02-1.55 1.761-2.601 2.007l-.281-.515c1.203-.23 2.55-1.281 2.554-2.477v-.531h.641zm-3.46 4.977v-.508h6.359v.508zm9.89-5.547v.516h-2.063v.859h1.774v.484h-1.774v.946c1.008-.004 1.63-.043 2.375-.18l.063.492c-.805.153-1.461.184-2.586.188h-.438v-3.305zM73.723 99.4v-2.343h4.586V99.4zm.601-.5h3.383v-1.343h-3.383zm1.102-4.093v-.508h.937v-1.625h.594v4h-.594v-1.867zm2.297 1.93v-4.188h.586v4.187zm9.03-4.18v2.101h1.04v.516h-1.04v2.039h-.616v-4.656zm-5.452 3.945c.555 0 1.203 0 1.883-.02v-.511c-.809-.075-1.332-.446-1.328-1.024-.004-.633.648-1.023 1.625-1.023.984 0 1.625.39 1.632 1.023-.007.575-.515.946-1.32 1.024v.488a20 20 0 0 0 1.914-.176l.055.445c-1.508.266-3.168.278-4.39.274zm.172-2.844v-.469h1.71v-.695h.61v.695h1.703v.47zm.68 4.39v-.491h4.6v1.937h-.616V98.05zm.288-3.1c-.004.363.399.609 1.04.6.64.009 1.046-.237 1.046-.6 0-.368-.406-.594-1.046-.587-.641-.008-1.043.22-1.04.586m8.157-1.079c.004.91.683 1.723 1.703 2.055l-.29.484c-.8-.265-1.405-.816-1.706-1.515-.297.796-.938 1.418-1.77 1.718l-.312-.492c1.039-.351 1.765-1.246 1.773-2.25v-.297H88.41v-.508h3.75v.508h-1.562zm-1.454 4.328c.004-.8.875-1.265 2.305-1.265 1.426 0 2.29.465 2.29 1.265 0 .813-.864 1.281-2.29 1.281-1.43 0-2.3-.468-2.305-1.28m.618 0c-.008.5.64.793 1.687.79 1.051.003 1.692-.29 1.695-.79-.003-.484-.644-.773-1.695-.773-1.047 0-1.695.289-1.687.773m3.304-1.453V92.55h.61v1.773h1.047v.516h-1.047v1.906zm6.453-2.906c.004.926.684 1.77 1.711 2.125l-.312.477c-.793-.282-1.399-.848-1.695-1.567a2.9 2.9 0 0 1-1.75 1.7l-.329-.477c1.04-.368 1.766-1.262 1.774-2.258v-.297h-1.586v-.5h3.75v.5H99.52zm-1.468 3.766v-.5h4.547v2.39h-.61v-1.89zm3.937-.868V92.55h.61v1.836h1.047v.523h-1.047v1.828zm4.008-3.859c.93-.004 1.641.539 1.774 1.336h1.453v-1.664h.617v3.726h-.617v-1.554h-1.45c-.121.82-.835 1.367-1.777 1.367-1.058 0-1.808-.656-1.805-1.61-.003-.94.747-1.605 1.805-1.601m-1.219 1.602c0 .632.504 1.09 1.219 1.093.699-.004 1.203-.46 1.203-1.094 0-.64-.504-1.085-1.203-1.078-.715-.007-1.219.438-1.219 1.078m.586 4.921v-2.773h.617v.883h3.243v-.883h.617V99.4zm.617-.5h3.243v-.898h-3.243zm8.18-6.226c1.543 0 2.449.426 2.453 1.195-.004.79-.91 1.215-2.453 1.219-1.551-.004-2.461-.43-2.461-1.219 0-.77.91-1.195 2.461-1.195m-3.164 3.383v-.5h6.328v.5zm.766 1.07v-.469h4.75v1.555h-4.125v.719h4.336v.484h-4.946V97.76h4.133v-.633zm.578-3.258c-.008.484.668.75 1.82.75s1.824-.266 1.828-.75c-.004-.457-.676-.73-1.828-.734-1.152.004-1.828.277-1.82.734m11.14-.453c-.003.856 1.161 1.55 2.391 1.719l-.242.484c-1.121-.164-2.172-.722-2.547-1.535-.379.813-1.422 1.371-2.547 1.535l-.226-.484c1.222-.168 2.379-.864 2.375-1.719V93.4h-2.188v-.5h5.188v.5h-2.204zm-3.57 3.219v-.508h6.36v.508h-2.829v1.422h-.609v-1.422zm.813 2.71v-1.984h.617v1.47h4.219v.515zm11.836-6.796v6.96h-.618v-6.96zm-5.321 5.281v-4.687h.61v1.835h2.07v-1.835h.602v4.687zm.61-.516h2.07v-1.843h-2.07zm11.273-4.765v2.867h1.164v.508h-1.164v3.57h-.609V92.55zm-5.414 1.625v-.508h1.789v-1.031h.609v1.031h1.735v.508zm.398 2.172c-.003-.938.715-1.594 1.704-1.594.98 0 1.695.656 1.703 1.594-.008.941-.723 1.593-1.703 1.593-.989 0-1.707-.652-1.704-1.593m.586 0c-.003.632.469 1.078 1.118 1.07.64.008 1.109-.437 1.117-1.07-.008-.63-.477-1.082-1.117-1.078-.649-.004-1.121.449-1.118 1.078m11.539-3.094v.695c-.007.852-.007 1.805-.257 3.203l-.625-.07c.261-1.328.261-2.3.265-3.133v-.187h-4.281v-.508zm-5.57 5.258v-.508h2.485v-2.484h.601v2.484h3.242v.508zm11.274-1.297c-.004.613.328 1.266.988 1.64.664-.41 1.016-1.105 1.012-1.64v-.383h.601v.383c-.004.715.524 1.426 1.414 1.734l-.304.453c-.696-.246-1.18-.73-1.422-1.312-.215.562-.641 1.098-1.282 1.367a2.2 2.2 0 0 1-1.312-1.348 2.46 2.46 0 0 1-1.391 1.293l-.312-.453c.879-.328 1.406-1.07 1.414-1.734v-.383h.594zm-2.188-2.625c-.004-.969.766-1.629 1.82-1.625 1.055-.004 1.817.656 1.821 1.625-.004.953-.766 1.61-1.821 1.61s-1.824-.657-1.82-1.61m.602 0c-.008.644.504 1.098 1.218 1.102.707-.004 1.219-.458 1.219-1.102 0-.648-.512-1.11-1.219-1.102-.714-.008-1.226.453-1.218 1.102m4.359 1.937v-3.968h.609v3.968zm3.203.196v.812h3.469v-.812h.617v2.68h-4.695v-2.68zm-1.414-.493v-.507h6.328v.507zm.359-1.492c1.239-.168 2.493-.898 2.493-1.78v-.329h.632v.328c-.003.856 1.262 1.625 2.485 1.781l-.227.492c-1.074-.16-2.133-.706-2.574-1.484-.441.781-1.504 1.324-2.574 1.484zm1.055 4.172h3.469v-.89h-3.469zm11.227-6.36v6.946h-.61V92.55zm-5.274 5.157v-4.469h.602v3.938a16.4 16.4 0 0 0 3.32-.336l.086.523a16.4 16.4 0 0 1-3.445.344zm11.836-5.156v2.75h1.164v.515h-1.164v3.696h-.609v-6.961zm-5.07 5.219v-4.54h3.242v.508h-2.633v3.516c1.258-.004 2.145-.059 3.18-.25l.078.531c-1.09.195-2 .235-3.32.235zm7.344 1.14a.505.505 0 0 1-.5-.508.5.5 0 0 1 .5-.5c.277 0 .504.227.5.5a.505.505 0 0 1-.5.508"/></svg>