<svg width="238" height="101" viewBox="0 0 238 101" fill="none" xmlns="http://www.w3.org/2000/svg">
<circle cx="118.645" cy="14.4404" r="14.4209" fill="#3C332B"/>
<path d="M120.089 5.3418L119.865 18.1614H117.4L117.176 5.3418H120.089ZM118.645 23.5381C117.674 23.5381 116.853 22.7416 116.878 21.7708C116.853 20.8 117.674 20.0034 118.645 20.0034C119.591 20.0034 120.412 20.8 120.412 21.7708C120.412 22.7416 119.591 23.5381 118.645 23.5381Z" fill="white"/>
<path d="M53.5049 42.6699V45.6787H54.6602V41.6416H56.1836V52.4961H54.6602V46.9736H53.5049V50.1221H48.9092V42.6699H53.5049ZM50.4199 48.8525H51.9941V43.9521H50.4199V48.8525ZM57.0469 53.0293V41.4766H58.5957V53.0293H57.0469ZM69.4883 41.4893V49.792H67.8633V41.4893H69.4883ZM59.9922 45.1328C59.9922 43.438 61.376 42.2192 63.1533 42.2256C64.9243 42.2192 66.3081 43.438 66.3145 45.1328C66.3081 46.853 64.9243 48.0654 63.1533 48.0654C61.376 48.0654 59.9922 46.853 59.9922 45.1328ZM61.5791 45.1328C61.5664 46.0977 62.2456 46.6562 63.1533 46.6562C64.0293 46.6562 64.7085 46.0977 64.7148 45.1328C64.7085 44.1934 64.0293 43.6284 63.1533 43.6348C62.2456 43.6284 61.5664 44.1934 61.5791 45.1328ZM61.7441 52.8262V48.9541H63.3818V51.5312H69.793V52.8262H61.7441ZM81.1553 41.4766V53.0293H79.5938V41.4766H81.1553ZM70.9229 49.0557H71.8877V44.0918H71.1387V42.7842H76.4326V44.0918H75.6963V48.897C76.02 48.8652 76.3311 48.8335 76.623 48.7891L76.7373 49.957C74.9092 50.3442 72.5479 50.3887 71.1006 50.3887L70.9229 49.0557ZM73.3223 49.0303C73.6206 49.0239 73.9189 49.0112 74.2236 48.9985V44.0918H73.3223V49.0303ZM76.166 47.126V45.6787H77.2832V41.7051H78.8193V52.4834H77.2832V47.126H76.166ZM91.959 41.4766V53.0547H90.3213V41.4766H91.959ZM82.6279 46.4023C82.6216 43.8823 83.9102 42.2891 85.6875 42.2891C87.4268 42.2891 88.7217 43.8823 88.7217 46.4023C88.7217 48.9414 87.4268 50.5283 85.6875 50.5283C83.9102 50.5283 82.6216 48.9414 82.6279 46.4023ZM84.1895 46.4023C84.1831 48.1226 84.7861 49.062 85.6875 49.0557C86.5635 49.062 87.1538 48.1226 87.1602 46.4023C87.1538 44.6885 86.5635 43.749 85.6875 43.749C84.7861 43.749 84.1831 44.6885 84.1895 46.4023ZM98.002 44.625C97.9956 46.4912 98.9604 48.4907 100.896 49.2969L100.021 50.5664C98.6621 49.9888 97.7227 48.8398 97.2021 47.4434C96.6816 48.9604 95.7231 50.23 94.3584 50.8584L93.4316 49.5762C95.3486 48.7192 96.3389 46.5801 96.3389 44.625V43.9141H93.8887V42.5938H100.414V43.9141H98.002V44.625ZM101.557 53.0293V41.4766H103.194V53.0293H101.557ZM114.772 41.4766V53.0293H113.224V41.4766H114.772ZM104.857 46.4785C104.857 43.895 105.841 42.2954 107.371 42.3018C108.761 42.2954 109.713 43.5967 109.891 45.7549H110.837V41.6416H112.36V52.4961H110.837V47.0371H109.904C109.764 49.3032 108.793 50.6807 107.371 50.6807C105.841 50.6807 104.857 49.0747 104.857 46.4785ZM106.355 46.4785C106.343 48.2559 106.724 49.1318 107.371 49.1191C108.038 49.1318 108.431 48.2559 108.425 46.4785C108.431 44.7075 108.038 43.8252 107.371 43.8252C106.724 43.8252 106.343 44.7075 106.355 46.4785ZM120.358 44.0918C120.365 46.2627 121.241 48.3765 123.164 49.208L122.174 50.5029C120.892 49.8809 120.028 48.7256 119.546 47.2974C119.051 48.8145 118.162 50.0586 116.842 50.7061L115.826 49.3857C117.807 48.4907 118.708 46.2627 118.721 44.0918V42.3652H120.358V44.0918ZM121.869 46.415V45.1074H124.142V41.4766H125.741V53.0547H124.142V46.415H121.869ZM135.491 42.0732C137.973 42.0732 139.839 43.3301 139.846 45.2344C139.839 46.98 138.367 48.1479 136.291 48.3765V50.3506H140.798V51.6836H130.223V50.3506H134.679V48.3765C132.616 48.1416 131.149 46.9736 131.149 45.2344C131.149 43.3301 133.009 42.0732 135.491 42.0732ZM132.749 45.2344C132.749 46.4531 133.873 47.1323 135.491 47.1387C137.116 47.1323 138.24 46.4531 138.246 45.2344C138.24 44.0791 137.116 43.3618 135.491 43.3682C133.873 43.3618 132.749 44.0791 132.749 45.2344ZM152.021 47.7227V49.0176H141.445V47.7227H152.021ZM142.74 42.9873V41.7432H150.738V44.9297H144.378V45.7549H150.954V46.9736H142.766V43.7744H149.113V42.9873H142.74ZM142.778 52.8262V49.6523H144.403V51.5312H150.992V52.8262H142.778ZM161.009 43.1777C160.996 43.9331 161.65 44.7329 163.04 45.0439L162.354 46.2119C161.237 45.9453 160.507 45.3423 160.12 44.5933C159.733 45.2598 159.041 45.8184 157.962 46.0596C156.889 45.8057 156.185 45.2534 155.785 44.5933C155.404 45.3359 154.687 45.9453 153.569 46.2119L152.896 45.0439C154.255 44.7266 154.921 43.9014 154.928 43.1777H153.392V41.8701H157.721V43.1777H156.527C156.54 43.7427 157.029 44.3774 157.956 44.7393C158.87 44.3774 159.346 43.7554 159.358 43.1777H158.19V41.8701H162.507V43.1777H161.009ZM152.693 48.2939V47.0117H157.149V46.0723H158.762V47.0117H163.23V48.2939H152.693ZM153.836 50.5156V49.2207H161.974V53.0293H160.349V50.5156H153.836ZM170.695 41.959C172.46 41.9463 173.742 42.9556 173.742 44.4092C173.742 45.8501 172.46 46.8721 170.695 46.8594C168.937 46.8721 167.655 45.8501 167.661 44.4092C167.655 42.9556 168.937 41.9463 170.695 41.959ZM166.95 47.5703C169 47.564 171.901 47.5259 174.364 47.1514L174.466 48.3447C173.514 48.5352 172.536 48.6558 171.571 48.7319V52.6865H169.959V48.8271C168.943 48.8716 167.985 48.8779 167.153 48.8906L166.95 47.5703ZM169.223 44.4092C169.216 45.1328 169.832 45.5518 170.695 45.5391C171.584 45.5518 172.206 45.1328 172.206 44.4092C172.206 43.6729 171.584 43.2476 170.695 43.2539C169.832 43.2476 169.216 43.6729 169.223 44.4092ZM175.062 53.0293V41.4893H176.662V53.0293H175.062ZM188.177 41.4766V53.0293H186.628V41.4766H188.177ZM178.262 46.4785C178.262 43.895 179.246 42.2954 180.775 42.3018C182.166 42.2954 183.118 43.5967 183.295 45.7549H184.241V41.6416H185.765V52.4961H184.241V47.0371H183.308C183.168 49.3032 182.197 50.6807 180.775 50.6807C179.246 50.6807 178.262 49.0747 178.262 46.4785ZM179.76 46.4785C179.747 48.2559 180.128 49.1318 180.775 49.1191C181.442 49.1318 181.835 48.2559 181.829 46.4785C181.835 44.7075 181.442 43.8252 180.775 43.8252C180.128 43.8252 179.747 44.7075 179.76 46.4785ZM51.7021 66.4141V67.7471H41.127V66.4141H45.583V64.6748H42.3457V60.79H48.8838V59.5205H42.333V58.2256H50.4834V62.0596H43.9707V63.3545H50.75V64.6748H47.1953V66.4141H51.7021ZM61.6045 58.543V59.9268C61.5981 61.5137 61.5981 63.0815 61.1855 65.4746L59.5479 65.335C59.9858 63.1133 59.9858 61.4629 59.9922 59.9268V59.8379H53.4541V58.543H61.6045ZM52.3623 67.5186V66.1855H62.8994V67.5186H52.3623ZM73.2715 57.4893V65.792H71.6465V57.4893H73.2715ZM63.7754 61.1328C63.7754 59.438 65.1592 58.2192 66.9365 58.2256C68.7075 58.2192 70.0913 59.438 70.0977 61.1328C70.0913 62.853 68.7075 64.0654 66.9365 64.0654C65.1592 64.0654 63.7754 62.853 63.7754 61.1328ZM65.3623 61.1328C65.3496 62.0977 66.0288 62.6562 66.9365 62.6562C67.8125 62.6562 68.4917 62.0977 68.498 61.1328C68.4917 60.1934 67.8125 59.6284 66.9365 59.6348C66.0288 59.6284 65.3496 60.1934 65.3623 61.1328ZM65.5273 68.8262V64.9541H67.165V67.5312H73.5762V68.8262H65.5273ZM83.9482 57.4766V61.9961H85.6494V63.3291H83.9482V69.0293H82.3486V57.4766H83.9482ZM74.7695 60.498V59.2031H77.3848V57.6543H79.0098V59.2031H81.5615V60.498H74.7695ZM75.2393 63.9004C75.2329 62.2881 76.4897 61.1392 78.1973 61.1455C79.8794 61.1392 81.1426 62.2881 81.1426 63.9004C81.1426 65.5127 79.8794 66.6489 78.1973 66.6553C76.4897 66.6489 75.2329 65.5127 75.2393 63.9004ZM76.7881 63.9004C76.7881 64.7954 77.3784 65.3286 78.1973 65.3223C79.0034 65.3286 79.5938 64.7954 79.5938 63.9004C79.5938 63.0117 79.0034 62.4658 78.1973 62.4531C77.3784 62.4658 76.7881 63.0117 76.7881 63.9004ZM95.7803 57.4766V69.0293H94.1426V57.4766H95.7803ZM86.1064 65.7539C89.0898 64.3447 90.4038 62.5166 90.6641 59.9521H86.7285V58.6826H92.3145C92.3081 62.1865 91.083 65.1001 86.957 67.0488L86.1064 65.7539ZM110.05 57.4766V69.0547H108.45V62.8594H106.305V66.3125H100.731V58.3652H102.344V61.1709H104.718V58.3652H106.305V61.5518H108.45V57.4766H110.05ZM102.344 65.0176H104.718V62.4404H102.344V65.0176ZM122.072 63.7227V64.9922H111.51V63.7227H122.072ZM112.805 68.8262V65.5762H114.404V67.5312H121.006V68.8262H112.805ZM112.83 62.999V57.8574H120.841V59.0889H114.455V59.8252H120.574V61.0186H114.455V61.7803H120.942V62.999H112.83ZM128.039 57.6416C130.699 57.6416 132.235 58.3398 132.241 59.6094C132.235 60.8979 130.699 61.5898 128.039 61.5898C125.373 61.5898 123.824 60.8979 123.824 59.6094C123.824 58.3398 125.373 57.6416 128.039 57.6416ZM122.771 63.418V62.1357H133.308V63.418H122.771ZM123.989 65.2715V64.0908H132.025V67.0361H125.589V67.7344H132.33V68.9531H124.002V65.9062H130.426V65.2715H123.989ZM125.525 59.6094C125.519 60.1743 126.344 60.3965 128.039 60.3965C129.747 60.3965 130.565 60.1743 130.565 59.6094C130.565 59.0952 129.747 58.8223 128.039 58.8223C126.344 58.8223 125.519 59.0952 125.525 59.6094ZM146.346 59.8125V61.0947H138.31V57.6162H139.922V59.8125H146.346ZM136.989 63.0752V61.7803H147.564V63.0752H143.045V63.9766H146.295V66.9854H139.846V67.709H146.65V68.9531H138.221V65.8555H144.683V65.1953H138.195V63.9766H141.458V63.0752H136.989ZM157.975 57.4766V69.0547H156.362V62.9609H154.496V61.6406H156.362V57.4766H157.975ZM148.618 59.749V58.4414H153.849V62.7705H150.256V65.0303C151.849 65.0176 153.195 64.9604 154.687 64.7002L154.813 66.0205C153.1 66.3062 151.532 66.3696 149.596 66.3633H148.644V61.4883H152.274V59.749H148.618ZM170.01 63.8496V65.1445H165.516V69.0293H163.916V65.1445H159.473V63.8496H170.01ZM159.993 61.9072C162.329 61.6216 163.624 60.4917 163.795 59.3555H160.425V58.0859H169.07V59.3555H165.7C165.865 60.4917 167.141 61.6216 169.515 61.9072L168.931 63.1768C166.899 62.9038 165.446 62.0405 164.748 60.8535C164.043 62.0405 162.602 62.9038 160.59 63.1768L159.993 61.9072ZM174.415 60.3838C174.409 62.2563 174.929 64.186 176.51 65.1953L175.634 66.4521C174.631 65.8491 174.002 64.8462 173.634 63.6655C173.222 64.9731 172.53 66.0713 171.482 66.7061L170.492 65.5127C172.206 64.4526 172.841 62.415 172.841 60.46V58.4668H174.415V60.3838ZM175.291 62.6943V61.374H176.789V57.6416H178.3V68.4961H176.789V62.6943H175.291ZM179.176 69.0293V57.4766H180.725V69.0293H179.176ZM192.519 66.3506V67.6836H181.943V66.3506H184.305V63.5195C183.41 62.98 182.87 62.1611 182.87 61.1455C182.87 59.2729 184.698 58.0415 187.212 58.0352C189.713 58.0415 191.56 59.2729 191.566 61.1455C191.56 62.1421 191.04 62.9482 190.17 63.4878V66.3506H192.519ZM184.47 61.1455C184.47 62.2754 185.555 62.9736 187.212 62.9736C188.843 62.9736 189.96 62.2754 189.967 61.1455C189.96 59.9839 188.843 59.311 187.212 59.3174C185.555 59.311 184.47 59.9839 184.47 61.1455ZM185.904 66.3506H188.532V64.1035C188.12 64.186 187.675 64.2305 187.212 64.2305C186.749 64.2305 186.311 64.186 185.904 64.1099V66.3506ZM194.677 67.9756C194.08 67.9756 193.598 67.4995 193.61 66.9092C193.598 66.3252 194.08 65.8491 194.677 65.8555C195.242 65.8491 195.73 66.3252 195.73 66.9092C195.73 67.4995 195.242 67.9756 194.677 67.9756Z" fill="#484848"/>
<path d="M79.7852 88.0957V88.6035H73.4258V88.0957H76.2852V86.5957H74.1758V83.041H74.793V84.2988H78.4023V83.041H79.0039V86.5957H76.8867V88.0957H79.7852ZM74.793 86.0957H78.4023V84.7988H74.793V86.0957ZM85.7148 82.5488V85.2988H86.8789V85.8145H85.7148V89.5098H85.1055V82.5488H85.7148ZM80.6445 87.7676V83.2285H83.8867V83.7363H81.2539V87.252C82.5117 87.248 83.3984 87.1934 84.4336 87.002L84.5117 87.5332C83.4219 87.7285 82.5117 87.7676 81.1914 87.7676H80.6445ZM94.6914 82.5488V84.666H95.7383V85.1816H94.6914V87.6738H94.082V82.5488H94.6914ZM89.3945 84.752C89.3906 83.7441 90.1797 83.0449 91.2148 83.041C92.2578 83.0449 93.0352 83.7441 93.043 84.752C93.0352 85.7559 92.2578 86.4629 91.2148 86.4629C90.1797 86.4629 89.3906 85.7559 89.3945 84.752ZM89.9961 84.752C89.9922 85.4355 90.5273 85.9238 91.2148 85.9238C91.9141 85.9238 92.4375 85.4355 92.4414 84.752C92.4375 84.0645 91.9141 83.5801 91.2148 83.5801C90.5273 83.5801 89.9922 84.0645 89.9961 84.752ZM90.3477 89.3457V87.1426H90.9492V88.8301H95.0117V89.3457H90.3477ZM101.934 82.5488V86.6895H101.316V84.8691H99.918V84.3613H101.316V82.5488H101.934ZM96.207 86.1348C97.2383 85.7637 97.9727 84.8223 97.9727 83.8301V83.5723H96.4023V83.0566H100.145V83.5723H98.5898V83.8223C98.5898 84.7285 99.2852 85.5918 100.301 85.9395L99.9805 86.4316C99.2031 86.1504 98.5977 85.5645 98.2969 84.8496C98 85.6621 97.3555 86.3105 96.5273 86.627L96.207 86.1348ZM97.3008 88.1973C97.2969 87.3809 98.1836 86.9043 99.6289 86.9082C101.07 86.9043 101.957 87.3809 101.957 88.1973C101.957 89.0176 101.07 89.4863 99.6289 89.4941C98.1836 89.4863 97.2969 89.0176 97.3008 88.1973ZM97.9102 88.1973C97.9062 88.7012 98.5625 89.0059 99.6289 89.002C100.691 89.0059 101.348 88.7012 101.348 88.1973C101.348 87.6895 100.691 87.3848 99.6289 87.3848C98.5625 87.3848 97.9062 87.6895 97.9102 88.1973ZM105.504 83.8301C105.504 84.7324 106.199 85.5957 107.215 85.9473L106.895 86.4316C106.113 86.1504 105.508 85.5684 105.211 84.8535C104.91 85.6504 104.266 86.291 103.441 86.5957L103.121 86.1113C104.145 85.7441 104.887 84.8184 104.887 83.8379V83.5332H103.316V83.0332H107.059V83.5332H105.504V83.8301ZM104.176 87.5879V87.0801H108.848V89.4941H108.23V87.5879H104.176ZM106.84 84.8848V84.3691H108.23V82.5488H108.848V86.7129H108.23V84.8848H106.84ZM115.738 82.5566V87.6348H115.129V82.5566H115.738ZM110.168 84.7441C110.164 83.7441 110.949 83.0449 111.988 83.041C113.027 83.0449 113.805 83.7441 113.809 84.7441C113.805 85.7559 113.027 86.459 111.988 86.4551C110.949 86.459 110.164 85.7559 110.168 84.7441ZM110.77 84.7441C110.762 85.4355 111.285 85.916 111.988 85.916C112.68 85.916 113.207 85.4355 113.207 84.7441C113.207 84.0645 112.68 83.5801 111.988 83.5801C111.285 83.5801 110.762 84.0645 110.77 84.7441ZM111.254 89.3457V87.1191H111.863V88.8301H115.957V89.3457H111.254ZM121.371 84.416C121.367 85.6738 122.176 86.9395 123.184 87.4004L122.816 87.9004C122.027 87.4941 121.375 86.666 121.066 85.6777C120.758 86.7168 120.105 87.6074 119.316 88.0254L118.918 87.5332C119.938 87.0332 120.742 85.6973 120.746 84.416V83.1504H121.371V84.416ZM122.426 85.4238V84.9238H124.074V82.5488H124.684V89.5098H124.074V85.4238H122.426ZM131.566 82.5488V89.5098H130.949V82.5488H131.566ZM126.246 87.8301V83.1426H126.855V84.9785H128.926V83.1426H129.527V87.8301H126.246ZM126.855 87.3145H128.926V85.4707H126.855V87.3145ZM136.215 83.5723C136.219 84.7637 137.578 85.8223 138.785 86.0488L138.504 86.5645C137.453 86.3223 136.352 85.5762 135.902 84.5566C135.449 85.5762 134.352 86.3184 133.301 86.5645L133.02 86.0488C134.223 85.8184 135.57 84.7676 135.574 83.5723V83.041H136.215V83.5723ZM132.754 88.5488V88.041H139.113V88.5488H132.754ZM146.02 85.7754V86.2598H139.66V85.7754H146.02ZM140.426 87.2754V86.8145H145.223V88.291H141.051V88.9551H145.449V89.4004H140.434V87.8691H144.613V87.2754H140.426ZM140.465 83.2051V82.7598H145.199V84.1973H141.098V84.8066H145.324V85.252H140.488V83.7754H144.582V83.2051H140.465ZM150.879 82.8926C151.918 82.8848 152.664 83.459 152.66 84.3066C152.664 85.1543 151.918 85.7324 150.879 85.7285C149.84 85.7324 149.098 85.1543 149.098 84.3066C149.098 83.459 149.84 82.8848 150.879 82.8926ZM148.574 86.3223C149.879 86.3262 151.664 86.2988 153.207 86.0723L153.246 86.5332C152.582 86.6543 151.895 86.7285 151.223 86.7715V89.2832H150.613V86.8066C149.906 86.8379 149.238 86.8418 148.66 86.8457L148.574 86.3223ZM149.699 84.3066C149.691 84.8496 150.188 85.2246 150.879 85.2207C151.578 85.2246 152.078 84.8496 152.074 84.3066C152.078 83.7676 151.578 83.3848 150.879 83.3926C150.188 83.3848 149.691 83.7676 149.699 84.3066ZM153.715 89.502V82.5566H154.316V89.502H153.715ZM158.973 83.752V84.252H155.488V83.752H156.934V82.7598H157.543V83.752H158.973ZM155.738 86.2988C155.738 85.377 156.367 84.7246 157.23 84.7207C158.105 84.7246 158.73 85.377 158.738 86.2988C158.73 87.2324 158.105 87.8887 157.23 87.8926C156.367 87.8887 155.738 87.2324 155.738 86.2988ZM156.285 86.2988C156.285 86.916 156.68 87.3574 157.23 87.3535C157.785 87.3574 158.191 86.916 158.191 86.2988C158.191 85.6895 157.785 85.2441 157.23 85.2363C156.68 85.2441 156.285 85.6895 156.285 86.2988ZM159.332 89.1504V82.7207H159.91V85.4785H160.832V82.5488H161.418V89.4941H160.832V85.9863H159.91V89.1504H159.332ZM61.0508 94.416C61.0469 95.6855 61.9102 96.959 62.9336 97.4238L62.5586 97.9082C61.7656 97.5254 61.082 96.7012 60.75 95.7129C60.4297 96.7598 59.7461 97.6387 58.9336 98.0488L58.543 97.5332C59.5781 97.0605 60.4336 95.7324 60.4414 94.416V93.1504H61.0508V94.416ZM63.6914 99.5098V92.5488H64.3086V99.5098H63.6914ZM68.957 93.5723C68.9609 94.7637 70.3203 95.8223 71.5273 96.0488L71.2461 96.5645C70.1953 96.3223 69.0938 95.5762 68.6445 94.5566C68.1914 95.5762 67.0938 96.3184 66.043 96.5645L65.7617 96.0488C66.9648 95.8184 68.3125 94.7676 68.3164 93.5723V93.041H68.957V93.5723ZM65.4961 98.5488V98.041H71.8555V98.5488H65.4961ZM75.3867 93.002V93.5176H73.3242V94.377H75.0977V94.8613H73.3242V95.8066C74.332 95.8027 74.9531 95.7637 75.6992 95.627L75.7617 96.1191C74.957 96.2715 74.3008 96.3027 73.1758 96.3066H72.7383V93.002H75.3867ZM73.7227 99.4004V97.0566H78.3086V99.4004H73.7227ZM74.3242 98.9004H77.707V97.5566H74.3242V98.9004ZM75.4258 94.8066V94.2988H76.3633V92.6738H76.957V96.6738H76.3633V94.8066H75.4258ZM77.7227 96.7363V92.5488H78.3086V96.7363H77.7227ZM86.7539 92.5566V94.6582H87.793V95.1738H86.7539V97.2129H86.1367V92.5566H86.7539ZM81.3008 96.502C81.8555 96.502 82.5039 96.502 83.1836 96.4824V95.9707C82.375 95.8965 81.8516 95.5254 81.8555 94.9473C81.8516 94.3145 82.5039 93.9238 83.4805 93.9238C84.4648 93.9238 85.1055 94.3145 85.1133 94.9473C85.1055 95.5215 84.5977 95.8926 83.793 95.9707V96.459C84.4414 96.4277 85.0977 96.373 85.707 96.2832L85.7617 96.7285C84.2539 96.9941 82.5938 97.0059 81.3711 97.002L81.3008 96.502ZM81.4727 93.6582V93.1895H83.1836V92.4941H83.793V93.1895H85.4961V93.6582H81.4727ZM82.1523 98.0488V97.5566H86.7539V99.4941H86.1367V98.0488H82.1523ZM82.4414 94.9473C82.4375 95.3105 82.8398 95.5566 83.4805 95.5488C84.1211 95.5566 84.5273 95.3105 84.5273 94.9473C84.5273 94.5801 84.1211 94.3535 83.4805 94.3613C82.8398 94.3535 82.4375 94.5801 82.4414 94.9473ZM90.5977 93.8691C90.6016 94.7793 91.2812 95.5918 92.3008 95.9238L92.0117 96.4082C91.2109 96.1426 90.6055 95.5918 90.3047 94.8926C90.0078 95.6895 89.3672 96.3105 88.5352 96.6113L88.2227 96.1191C89.2617 95.7676 89.9883 94.873 89.9961 93.8691V93.5723H88.4102V93.0645H92.1602V93.5723H90.5977V93.8691ZM89.1445 98.1973C89.1484 97.3965 90.0195 96.9316 91.4492 96.9316C92.875 96.9316 93.7383 97.3965 93.7383 98.1973C93.7383 99.0098 92.875 99.4785 91.4492 99.4785C90.0195 99.4785 89.1484 99.0098 89.1445 98.1973ZM89.7617 98.1973C89.7539 98.6973 90.4023 98.9902 91.4492 98.9863C92.5 98.9902 93.1406 98.6973 93.1445 98.1973C93.1406 97.7129 92.5 97.4238 91.4492 97.4238C90.4023 97.4238 89.7539 97.7129 89.7617 98.1973ZM93.0664 96.7441V92.5488H93.6758V94.3223H94.7227V94.8379H93.6758V96.7441H93.0664ZM99.5195 93.8379C99.5234 94.7637 100.203 95.6074 101.23 95.9629L100.918 96.4395C100.125 96.1582 99.5195 95.5918 99.2227 94.873C98.9258 95.6621 98.2891 96.2754 97.4727 96.5723L97.1445 96.0957C98.1836 95.7285 98.9102 94.834 98.918 93.8379V93.541H97.332V93.041H101.082V93.541H99.5195V93.8379ZM98.0508 97.6035V97.1035H102.598V99.4941H101.988V97.6035H98.0508ZM101.988 96.7363V92.5488H102.598V94.3848H103.645V94.9082H102.598V96.7363H101.988ZM105.996 92.877C106.926 92.873 107.637 93.416 107.77 94.2129H109.223V92.5488H109.84V96.2754H109.223V94.7207H107.773C107.652 95.541 106.938 96.0879 105.996 96.0879C104.938 96.0879 104.188 95.4316 104.191 94.4785C104.188 93.5371 104.938 92.873 105.996 92.877ZM104.777 94.4785C104.777 95.1113 105.281 95.5684 105.996 95.5723C106.695 95.5684 107.199 95.1113 107.199 94.4785C107.199 93.8379 106.695 93.3926 105.996 93.4004C105.281 93.3926 104.777 93.8379 104.777 94.4785ZM105.363 99.4004V96.627H105.98V97.5098H109.223V96.627H109.84V99.4004H105.363ZM105.98 98.9004H109.223V98.002H105.98V98.9004ZM114.16 92.6738C115.703 92.6738 116.609 93.0996 116.613 93.8691C116.609 94.6582 115.703 95.084 114.16 95.0879C112.609 95.084 111.699 94.6582 111.699 93.8691C111.699 93.0996 112.609 92.6738 114.16 92.6738ZM110.996 96.0566V95.5566H117.324V96.0566H110.996ZM111.762 97.127V96.6582H116.512V98.2129H112.387V98.9316H116.723V99.416H111.777V97.7598H115.91V97.127H111.762ZM112.34 93.8691C112.332 94.3535 113.008 94.6191 114.16 94.6191C115.312 94.6191 115.984 94.3535 115.988 93.8691C115.984 93.4121 115.312 93.1387 114.16 93.1348C113.008 93.1387 112.332 93.4121 112.34 93.8691ZM123.48 93.416C123.477 94.2715 124.641 94.9668 125.871 95.1348L125.629 95.6191C124.508 95.4551 123.457 94.8965 123.082 94.084C122.703 94.8965 121.66 95.4551 120.535 95.6191L120.309 95.1348C121.531 94.9668 122.688 94.2715 122.684 93.416V93.4004H120.496V92.9004H125.684V93.4004H123.48V93.416ZM119.91 96.6348V96.127H126.27V96.6348H123.441V98.0566H122.832V96.6348H119.91ZM120.723 99.3457V97.3613H121.34V98.8301H125.559V99.3457H120.723ZM132.559 92.5488V99.5098H131.941V92.5488H132.559ZM127.238 97.8301V93.1426H127.848V94.9785H129.918V93.1426H130.52V97.8301H127.238ZM127.848 97.3145H129.918V95.4707H127.848V97.3145ZM139.121 92.5488V95.416H140.285V95.9238H139.121V99.4941H138.512V92.5488H139.121ZM133.707 94.1738V93.666H135.496V92.6348H136.105V93.666H137.84V94.1738H133.707ZM134.105 96.3457C134.102 95.4082 134.82 94.752 135.809 94.752C136.789 94.752 137.504 95.4082 137.512 96.3457C137.504 97.2871 136.789 97.9395 135.809 97.9395C134.82 97.9395 134.102 97.2871 134.105 96.3457ZM134.691 96.3457C134.688 96.9785 135.16 97.4238 135.809 97.416C136.449 97.4238 136.918 96.9785 136.926 96.3457C136.918 95.7168 136.449 95.2637 135.809 95.2676C135.16 95.2637 134.688 95.7168 134.691 96.3457ZM146.23 93.252V93.9473C146.223 94.7988 146.223 95.752 145.973 97.1504L145.348 97.0801C145.609 95.752 145.609 94.7793 145.613 93.9473V93.7598H141.332V93.252H146.23ZM140.66 98.5098V98.002H143.145V95.5176H143.746V98.002H146.988V98.5098H140.66ZM151.934 97.2129C151.93 97.8262 152.262 98.4785 152.922 98.8535C153.586 98.4434 153.938 97.748 153.934 97.2129V96.8301H154.535V97.2129C154.531 97.9277 155.059 98.6387 155.949 98.9473L155.645 99.4004C154.949 99.1543 154.465 98.6699 154.223 98.0879C154.008 98.6504 153.582 99.1855 152.941 99.4551C152.266 99.1973 151.836 98.6895 151.629 98.1074C151.379 98.666 150.902 99.1504 150.238 99.4004L149.926 98.9473C150.805 98.6191 151.332 97.877 151.34 97.2129V96.8301H151.934V97.2129ZM149.746 94.5879C149.742 93.6191 150.512 92.959 151.566 92.9629C152.621 92.959 153.383 93.6191 153.387 94.5879C153.383 95.541 152.621 96.1973 151.566 96.1973C150.512 96.1973 149.742 95.541 149.746 94.5879ZM150.348 94.5879C150.34 95.2324 150.852 95.6855 151.566 95.6895C152.273 95.6855 152.785 95.2324 152.785 94.5879C152.785 93.9395 152.273 93.4785 151.566 93.4863C150.852 93.4785 150.34 93.9395 150.348 94.5879ZM154.707 96.5254V92.5566H155.316V96.5254H154.707ZM157.91 96.7207V97.5332H161.379V96.7207H161.996V99.4004H157.301V96.7207H157.91ZM156.496 96.2285V95.7207H162.824V96.2285H156.496ZM156.855 94.7363C158.094 94.5684 159.348 93.8379 159.348 92.9551V92.627H159.98V92.9551C159.977 93.8105 161.242 94.5801 162.465 94.7363L162.238 95.2285C161.164 95.0684 160.105 94.5215 159.664 93.7441C159.223 94.5254 158.16 95.0684 157.09 95.2285L156.855 94.7363ZM157.91 98.9082H161.379V98.0176H157.91V98.9082ZM169.137 92.5488V99.4941H168.527V92.5488H169.137ZM163.863 97.7051V93.2363H164.465V97.1738C165.527 97.166 166.621 97.084 167.785 96.8379L167.871 97.3613C166.637 97.6191 165.539 97.7051 164.426 97.7051H163.863ZM175.699 92.5488V95.2988H176.863V95.8145H175.699V99.5098H175.09V92.5488H175.699ZM170.629 97.7676V93.2285H173.871V93.7363H171.238V97.252C172.496 97.248 173.383 97.1934 174.418 97.002L174.496 97.5332C173.406 97.7285 172.496 97.7676 171.176 97.7676H170.629ZM177.973 98.9082C177.699 98.9043 177.465 98.6777 177.473 98.4004C177.465 98.127 177.699 97.9004 177.973 97.9004C178.25 97.9004 178.477 98.127 178.473 98.4004C178.477 98.6777 178.25 98.9043 177.973 98.9082Z" fill="#484848"/>
</svg>
