<svg xmlns="http://www.w3.org/2000/svg" xmlns:xlink="http://www.w3.org/1999/xlink" fill="none" version="1.1" width="16" height="16" viewBox="0 0 16 16"><defs><clipPath id="master_svg0_1_414"><rect x="0" y="16" width="16" height="16" rx="0"/></clipPath></defs><g transform="matrix(1,0,0,-1,0,32)" clip-path="url(#master_svg0_1_414)"><g transform="matrix(1,0,0,-1,0,64.6875)"><g><path d="M8,32.34375Q10.1875,32.375,12,33.40625Q13.8125,34.46875,14.9375,36.34375Q16,38.25,16,40.34375Q16,42.43755,14.9375,44.34375Q13.8125,46.21875,12,47.28125Q10.1875,48.31255,8,48.34375Q5.8125,48.31255,4,47.28125Q2.1875,46.21875,1.0625,44.34375Q0,42.43755,0,40.34375Q0,38.25,1.0625,36.34375Q2.1875,34.46875,4,33.40625Q5.8125,32.375,8,32.34375ZM5.46875,42.87495Q6,43.31255,6.53125,42.87495L8,41.40625L9.46875,42.87495Q10,43.31255,10.5312,42.87495Q10.9688,42.34375,10.5312,41.8125L9.0625,40.34375L10.5312,38.875Q10.9688,38.34375,10.5312,37.8125Q10,37.375,9.46875,37.8125L8,39.28125L6.53125,37.8125Q6,37.375,5.46875,37.8125Q5.03125,38.34375,5.46875,38.875L6.9375,40.34375L5.46875,41.8125Q5.03125,42.34375,5.46875,42.87495Z" fill="#9CA3AF" fill-opacity="1" style="mix-blend-mode:passthrough"/></g></g></g></svg>