<?xml version="1.0" encoding="UTF-8"?>
<svg id="Layer_1" data-name="Layer 1" xmlns="http://www.w3.org/2000/svg" viewBox="0 0 252.28 158.74">
  <defs>
    <style>
      .cls-1 {
        fill: #e4effc;
      }

      .cls-1, .cls-2 {
        stroke-width: 0px;
      }

      .cls-2 {
        fill: #fff;
      }
    </style>
  </defs>
  <rect class="cls-2" x="0" width="252.28" height="158.74"/>
  <g>
    <path class="cls-1" d="m147.17,38.38l-3-2.48c-1.2-.99-2.7-1.53-4.26-1.53h-29.55c-2.66,0-5.06,1.58-6.12,4.01h0s-25.76,59.17-25.76,59.17c-5.66,13,3.87,27.54,18.05,27.54h0c7.83,0,14.92-4.64,18.05-11.83l17.69-40.65c1.77-4.07,6.95-5.31,10.38-2.48l62.68,51.82c2.45,2.03,5.53,3.14,8.71,3.14h0c12.82,0,18.59-16.05,8.71-24.22l-75.59-62.49Z"/>
    <rect class="cls-1" x="31.64" y="88.29" width="36.8" height="36.8" rx="5.67" ry="5.67"/>
  </g>
</svg>