<svg xmlns="http://www.w3.org/2000/svg" id="Layer_1" data-name="Layer 1" viewBox="0 0 252.28 158.74"><defs><style>.cls-1{fill:#e4effc;stroke-width:0}</style></defs><path d="M0 0h252.28v158.74H0z" style="stroke-width:0;fill:#fff"/><path d="m147.17 38.38-3-2.48a6.68 6.68 0 0 0-4.26-1.53h-29.55c-2.66 0-5.06 1.58-6.12 4.01S78.48 97.55 78.48 97.55c-5.66 13 3.87 27.54 18.05 27.54 7.83 0 14.92-4.64 18.05-11.83l17.69-40.65c1.77-4.07 6.95-5.31 10.38-2.48l62.68 51.82a13.65 13.65 0 0 0 8.71 3.14c12.82 0 18.59-16.05 8.71-24.22l-75.59-62.49Z" class="cls-1"/><rect width="36.8" height="36.8" x="31.64" y="88.29" class="cls-1" rx="5.67" ry="5.67"/></svg>