<svg xmlns="http://www.w3.org/2000/svg" width="163" height="73" fill="none"><circle cx="81.601" cy="21.837" r="21.814" fill="#FFA973"/><path fill="#fff" d="M80.613 27.574a1.08 1.08 0 0 1 .322.763 1.06 1.06 0 0 1-.323.763l-.468.46a5.3 5.3 0 0 1-1.74 1.142 5.4 5.4 0 0 1-2.053.397 5.44 5.44 0 0 1-2.98-.887 5.3 5.3 0 0 1-1.977-2.362 5.17 5.17 0 0 1-.305-3.042 5.23 5.23 0 0 1 1.469-2.695l3.179-3.12a5.4 5.4 0 0 1 2.447-1.374 5.46 5.46 0 0 1 2.818.033c.92.258 1.752.752 2.412 1.431.66.68 1.122 1.52 1.34 2.433a1.06 1.06 0 0 1-.126.826 1.09 1.09 0 0 1-.689.49 1.12 1.12 0 0 1-.838-.14 1.1 1.1 0 0 1-.485-.687 3.1 3.1 0 0 0-.793-1.436 3.2 3.2 0 0 0-1.425-.844 3.2 3.2 0 0 0-1.664-.02 3.2 3.2 0 0 0-1.444.811l-3.18 3.12a3.1 3.1 0 0 0-.867 1.592 3.06 3.06 0 0 0 .18 1.796c.239.568.645 1.054 1.165 1.395a3.2 3.2 0 0 0 1.76.525 3.2 3.2 0 0 0 1.213-.235 3.2 3.2 0 0 0 1.028-.676l.467-.46a1.1 1.1 0 0 1 .778-.317 1.12 1.12 0 0 1 .778.318m10.031-12.892a5.42 5.42 0 0 0-3.793-1.541 5.42 5.42 0 0 0-3.794 1.541l-.467.46a1.07 1.07 0 0 0 0 1.526 1.11 1.11 0 0 0 1.555 0l.468-.46a3.2 3.2 0 0 1 2.242-.911 3.2 3.2 0 0 1 2.241.911c.595.583.929 1.375.929 2.2s-.334 1.616-.929 2.2l-3.184 3.115c-.294.29-.643.52-1.028.676a3.2 3.2 0 0 1-1.213.235 3.2 3.2 0 0 1-1.967-.673 3.1 3.1 0 0 1-1.115-1.726 1.08 1.08 0 0 0-.49-.671 1.12 1.12 0 0 0-.829-.135c-.283.065-.53.238-.683.48a1.06 1.06 0 0 0-.137.814 5.26 5.26 0 0 0 1.887 2.924 5.43 5.43 0 0 0 3.33 1.142h.004a5.4 5.4 0 0 0 2.054-.398 5.3 5.3 0 0 0 1.74-1.144l3.18-3.12a5.3 5.3 0 0 0 1.162-1.708 5.18 5.18 0 0 0 0-4.029 5.3 5.3 0 0 0-1.163-1.708"/><path fill="#3C332B" d="M65.98 66.72c2.302.007 3.755.733 3.761 1.993-.006 1.23-1.459 1.969-3.761 1.969-2.28 0-3.75-.739-3.75-1.97 0-1.259 1.47-1.985 3.75-1.991m-4.747-.761v-1.055h3.727v-1.922h1.289v1.922h4.594v1.055zm1.102-4.324v-1.032h7.336v.88c.006.837.006 1.728-.293 2.812l-1.29-.117c.265-1.026.282-1.776.282-2.543zm1.207 7.078c-.012.621.908.96 2.438.96 1.535 0 2.46-.339 2.472-.96-.012-.645-.937-1.008-2.472-1.008-1.53 0-2.45.363-2.438 1.008m17.707-2.672v1.055h-2.355v3.597h-1.325v-3.597h-2.343v3.597H73.89v-3.597h-2.32V66.04zm-8.66-3.2c-.006-1.44 1.54-2.36 3.797-2.366 2.256.005 3.814.925 3.82 2.367-.006 1.424-1.564 2.32-3.82 2.32s-3.803-.896-3.797-2.32m1.336 0c-.006.81.967 1.284 2.46 1.29 1.5-.006 2.473-.48 2.473-1.29 0-.831-.972-1.312-2.472-1.312-1.494 0-2.467.48-2.461 1.313M90.249 60.1v4.218h1.629v1.079h-1.629v5.296H88.96V60.1zm-8.355 2.672v-1.044H84.4v-1.476h1.301v1.476h2.438v1.044zm.492 3.187c-.012-1.465 1.125-2.502 2.672-2.496 1.523-.006 2.654 1.031 2.66 2.496-.006 1.459-1.137 2.484-2.66 2.484-1.547 0-2.684-1.025-2.672-2.484m1.242 0c-.006.861.598 1.412 1.43 1.406.814.006 1.406-.545 1.418-1.406-.012-.861-.604-1.43-1.418-1.43-.832 0-1.436.569-1.43 1.43m17.543-5.86v10.594h-1.313V60.1zm-8.777 7.676c2.777-1.318 4.054-3.11 4.289-5.52h-3.75v-1.03h5.074c0 3.152-1.225 5.83-4.934 7.593z"/></svg>