<svg width="13" height="13" viewBox="0 0 13 13" fill="none" xmlns="http://www.w3.org/2000/svg">
<path d="M6.8965 0.810547C5.72179 0.810547 4.57345 1.15889 3.59671 1.81153C2.61997 2.46416 1.85869 3.39178 1.40915 4.47708C0.959605 5.56237 0.841983 6.7566 1.07116 7.90875C1.30033 9.06089 1.86601 10.1192 2.69666 10.9499C3.52731 11.7805 4.58563 12.3462 5.73777 12.5754C6.88991 12.8045 8.08414 12.6869 9.16944 12.2374C10.2547 11.7878 11.1824 11.0265 11.835 10.0498C12.4876 9.07306 12.836 7.92473 12.836 6.75001C12.836 5.17477 12.2102 3.66404 11.0963 2.55018C9.98247 1.43631 8.47175 0.810547 6.8965 0.810547ZM7.49045 10.3137H6.30256V9.1258H7.49045V10.3137ZM7.49045 7.93791H6.30256V3.18633H7.49045V7.93791Z" fill="#3C332B"/>
</svg>
