<svg xmlns="http://www.w3.org/2000/svg" width="13" height="13" fill="none"><path fill="#3C332B" d="M.96 6.179a.66.66 0 0 1 .152-.477.564.564 0 0 1 .436-.203h1.13c.156 0 .307.066.418.184s.173.276.173.442v5.94a.64.64 0 0 1-.173.441.58.58 0 0 1-.419.184h-.64a.57.57 0 0 1-.4-.165.64.64 0 0 1-.19-.407zm4.083-.25c0-.26.154-.495.377-.606.487-.243 1.318-.732 1.693-1.392.482-.852.573-2.39.588-2.743.002-.049.001-.098.007-.147.08-.61 1.195.102 1.622.856.232.41.262.947.238 1.367-.027.448-.151.882-.273 1.313l-.26.918h3.21c.09 0 .181.022.263.065a.6.6 0 0 1 .208.183.64.64 0 0 1 .098.547l-1.588 5.944a.63.63 0 0 1-.213.329.57.57 0 0 1-.357.127H5.634a.58.58 0 0 1-.418-.184.64.64 0 0 1-.173-.442z"/></svg>