<svg xmlns="http://www.w3.org/2000/svg" width="13" height="13" fill="none"><path fill="#3C332B" fill-rule="evenodd" d="M2.833.81c-.498 0-.975.188-1.327.522-.351.335-.549.788-.549 1.26v8.316c0 .472.198.925.55 1.26.351.334.828.522 1.326.522h3.751c.497 0 .974-.188 1.326-.522.352-.335.55-.788.55-1.26V2.592c0-.472-.198-.925-.55-1.26A1.93 1.93 0 0 0 6.584.811zm6.435 3.144a.64.64 0 0 1 .442-.174c.166 0 .325.063.442.174l2.5 2.376a.58.58 0 0 1 .184.42.58.58 0 0 1-.183.42l-2.5 2.376a.64.64 0 0 1-.44.166.64.64 0 0 1-.437-.174.58.58 0 0 1-.183-.414.58.58 0 0 1 .175-.418l1.434-1.362H5.334a.64.64 0 0 1-.443-.174.58.58 0 0 1-.183-.42.58.58 0 0 1 .183-.42.64.64 0 0 1 .443-.174h5.368L9.268 4.794a.58.58 0 0 1-.183-.42.58.58 0 0 1 .183-.42" clip-rule="evenodd"/></svg>