<svg width="15" height="14" viewBox="0 0 15 14" fill="none" xmlns="http://www.w3.org/2000/svg">
<path d="M4.47502 0.216797C3.36434 0.216797 2.40343 0.677654 1.80487 1.42598C1.20731 2.17481 0.957031 3.14477 0.957031 4.19012V5.74507H2.46474V4.19012C2.46474 3.39606 2.66024 2.77287 2.98289 2.3683C3.30605 1.96423 3.74177 1.72451 4.47502 1.72451C5.21029 1.72451 5.64501 1.95066 5.96716 2.35272C6.2888 2.75478 6.48531 3.38802 6.48531 4.19012V4.73993H7.99302V4.19012C7.99302 3.13874 7.72816 2.15772 7.1291 1.4104C6.53054 0.663079 5.58369 0.216797 4.47502 0.216797ZM5.48017 5.2425C4.64791 5.2425 3.97245 5.91796 3.97245 6.75021V11.7759C3.97245 12.6082 4.64791 13.2836 5.48017 13.2836H12.5162C13.3484 13.2836 14.0239 12.6082 14.0239 11.7759V6.75021C14.0239 5.91796 13.3484 5.2425 12.5162 5.2425H5.48017ZM8.99816 7.75535C9.26474 7.75535 9.5204 7.86125 9.7089 8.04975C9.8974 8.23825 10.0033 8.49391 10.0033 8.76049C10.0033 9.13139 9.80026 9.45002 9.50073 9.62441V10.7708C9.50073 11.0477 9.27507 11.2733 8.99816 11.2733C8.72124 11.2733 8.49559 11.0477 8.49559 10.7708V9.62441C8.19606 9.45002 7.99302 9.13189 7.99302 8.76049C7.99302 8.49391 8.09892 8.23825 8.28742 8.04975C8.47592 7.86125 8.73158 7.75535 8.99816 7.75535Z" fill="#3C332B"/>
</svg>
