<svg xmlns="http://www.w3.org/2000/svg" width="15" height="14" fill="none"><path fill="#3C332B" d="M4.475.217c-1.11 0-2.072.46-2.67 1.209S.957 3.145.957 4.19v1.555h1.508V4.19c0-.794.195-1.417.518-1.822.323-.404.759-.643 1.492-.643.735 0 1.17.226 1.492.628s.518 1.035.518 1.837v.55h1.508v-.55c0-1.051-.265-2.032-.864-2.78C6.531.663 5.584.217 4.475.217M5.48 5.243c-.832 0-1.508.675-1.508 1.507v5.026c0 .832.676 1.508 1.508 1.508h7.036c.832 0 1.508-.676 1.508-1.508V6.75c0-.832-.676-1.508-1.508-1.508zm3.518 2.512a1.005 1.005 0 0 1 1.005 1.005c0 .371-.203.69-.502.864v1.147a.503.503 0 0 1-1.005 0V9.624a.997.997 0 0 1-.209-1.574c.189-.189.445-.295.711-.295"/></svg>