<svg xmlns="http://www.w3.org/2000/svg" width="13" height="13" fill="none"><path fill="#3C332B" d="M6.897 10.71q.346 0 .586-.24t.238-.585q0-.345-.24-.586a.8.8 0 0 0-.585-.24.8.8 0 0 0-.586.24.8.8 0 0 0-.238.586.8.8 0 0 0 .24.586q.238.239.584.239m-.594-2.541h1.22q0-.594.132-.875.132-.28.561-.709.577-.578.817-.965.239-.389.24-.883 0-.875-.595-1.41-.594-.535-1.6-.537-.908 0-1.542.446-.636.446-.883 1.237l1.089.43a1.3 1.3 0 0 1 .462-.718q.346-.272.808-.273.445 0 .742.24t.297.635q0 .28-.181.594-.182.313-.61.693-.545.478-.752.916-.206.437-.205 1.179m-4.026 4.52a1.27 1.27 0 0 1-.932-.387 1.27 1.27 0 0 1-.388-.932V2.13q0-.544.388-.931.389-.388.932-.388h9.24q.543 0 .932.388.387.387.387.931v9.24q0 .544-.387.932-.388.388-.933.388z"/></svg>