<svg xmlns="http://www.w3.org/2000/svg" width="13" height="15" fill="none"><path fill="#3C332B" d="M6.897 11.357c.393 0 .771-.143 1.05-.398.278-.254.434-.6.434-.96s-.156-.705-.435-.96a1.56 1.56 0 0 0-1.05-.397c-.393 0-.771.143-1.05.397-.278.255-.434.6-.434.96s.156.706.435.96c.278.255.656.398 1.05.398m4.454-6.11c.394 0 .772.144 1.05.398.279.255.435.6.435.96v6.788c0 .36-.156.706-.435.96a1.56 1.56 0 0 1-1.05.398h-8.91c-.393 0-.77-.143-1.05-.398a1.3 1.3 0 0 1-.434-.96V6.605c0-.36.156-.705.435-.96a1.56 1.56 0 0 1 1.05-.397h.742V3.89c0-.9.391-1.763 1.088-2.4.696-.636 1.64-.994 2.624-.994.488 0 .97.088 1.421.258.45.171.86.421 1.204.736.345.315.618.69.805 1.101s.283.853.283 1.3v1.357zM6.896 1.855c-.59 0-1.157.214-1.574.596s-.653.9-.653 1.44v1.358h4.455V3.89c0-.54-.235-1.058-.653-1.44a2.34 2.34 0 0 0-1.575-.596"/></svg>