<svg width="45" height="45" viewBox="0 0 45 45" fill="none" xmlns="http://www.w3.org/2000/svg">
<circle cx="22.6816" cy="22.2197" r="21.8135" fill="#82BBFF"/>
<path d="M21.693 27.9564C21.7954 28.0565 21.8766 28.1754 21.932 28.3064C21.9874 28.4374 22.0159 28.5778 22.0159 28.7196C22.0159 28.8614 21.9874 29.0018 21.932 29.1328C21.8766 29.2638 21.7954 29.3827 21.693 29.4828L21.2246 29.9425C20.7273 30.4323 20.1361 30.8206 19.485 31.0847C18.8339 31.3489 18.1359 31.4837 17.4314 31.4815C16.3704 31.4819 15.3331 31.1733 14.4508 30.595C13.5685 30.0167 12.8808 29.1945 12.4748 28.2325C12.0687 27.2705 11.9625 26.212 12.1696 25.1907C12.3766 24.1695 12.8877 23.2315 13.6381 22.4954L16.8174 19.3752C17.4937 18.7116 18.3384 18.2375 19.264 18.0019C20.1897 17.7663 21.1627 17.7778 22.0823 18.0352C23.0019 18.2926 23.8347 18.7865 24.4945 19.4659C25.1542 20.1453 25.617 20.9853 25.8348 21.8992C25.8709 22.0381 25.8784 22.1827 25.8568 22.3245C25.8352 22.4663 25.7849 22.6025 25.709 22.725C25.6331 22.8475 25.5331 22.9539 25.4147 23.038C25.2964 23.1221 25.1621 23.1821 25.0198 23.2146C24.8775 23.2471 24.7301 23.2515 24.5861 23.2273C24.442 23.2032 24.3044 23.1511 24.1812 23.074C24.0579 22.997 23.9516 22.8966 23.8684 22.7788C23.7852 22.6609 23.7268 22.5279 23.6967 22.3876C23.5674 21.8482 23.2937 21.3524 22.9038 20.9516C22.5139 20.5507 22.022 20.2594 21.479 20.1076C20.9359 19.9558 20.3614 19.9492 19.8149 20.0883C19.2683 20.2274 18.7695 20.5072 18.3701 20.8989L15.1907 24.0191C14.7476 24.4537 14.4456 25.0075 14.3232 25.6104C14.2007 26.2134 14.2632 26.8385 14.5028 27.4066C14.7423 27.9747 15.1482 28.4604 15.669 28.8021C16.1898 29.1439 16.8021 29.3264 17.4286 29.3266C17.8449 29.3278 18.2573 29.2479 18.6419 29.0916C19.0265 28.9353 19.3757 28.7057 19.6692 28.4161L20.1368 27.9564C20.2388 27.8558 20.36 27.776 20.4936 27.7215C20.6271 27.667 20.7703 27.639 20.9149 27.639C21.0595 27.639 21.2027 27.667 21.3362 27.7215C21.4697 27.776 21.591 27.8558 21.693 27.9564ZM31.725 15.0653C30.7188 14.078 29.3542 13.5234 27.9314 13.5234C26.5085 13.5234 25.1439 14.078 24.1377 15.0653L23.6701 15.5241C23.4639 15.7265 23.348 16.001 23.348 16.2873C23.348 16.5736 23.4639 16.8481 23.6701 17.0505C23.8764 17.2529 24.1561 17.3666 24.4478 17.3666C24.7395 17.3666 25.0192 17.2529 25.2255 17.0505L25.6939 16.5908C26.2884 16.0073 27.0947 15.6796 27.9355 15.6796C28.7762 15.6796 29.5825 16.0073 30.177 16.5908C30.7715 17.1742 31.1055 17.9655 31.1055 18.7906C31.1055 19.6157 30.7715 20.407 30.177 20.9905L26.9922 24.1062C26.6986 24.3958 26.3494 24.6254 25.9648 24.7817C25.5802 24.938 25.1678 25.0179 24.7516 25.0167C24.0375 25.0162 23.3445 24.7789 22.785 24.3434C22.2255 23.908 21.8323 23.2998 21.6692 22.6175C21.6032 22.3391 21.4272 22.0978 21.18 21.9468C20.9328 21.7957 20.6345 21.7473 20.3508 21.8121C20.0672 21.8768 19.8214 22.0495 19.6675 22.2922C19.5135 22.5348 19.4642 22.8275 19.5302 23.1059C19.8056 24.2614 20.4708 25.2917 21.4177 26.0297C22.3646 26.7676 23.5378 27.17 24.747 27.1716H24.7516C25.4564 27.1735 26.1547 27.0382 26.8059 26.7736C27.4572 26.509 28.0485 26.1203 28.5457 25.6299L31.725 22.5097C32.2232 22.0209 32.6183 21.4407 32.8879 20.802C33.1575 20.1633 33.2963 19.4788 33.2963 18.7875C33.2963 18.0962 33.1575 17.4117 32.8879 16.773C32.6183 16.1343 32.2232 15.554 31.725 15.0653Z" fill="white"/>
</svg>
