<svg xmlns="http://www.w3.org/2000/svg" width="198" height="221" fill="none"><path fill="#FCE290" d="M145.719 81.776c16.202 0 29.336-13.952 29.336-31.164s-13.134-31.164-29.336-31.164-29.336 13.952-29.336 31.164c0 17.211 13.134 31.164 29.336 31.164"/><path fill="#fff" d="M127.907 55.137c2.426 0 4.393-2.09 4.393-4.667s-1.967-4.667-4.393-4.667c-2.427 0-4.393 2.09-4.393 4.667s1.966 4.667 4.393 4.667M127.907 67.31c2.426 0 4.393-2.09 4.393-4.667s-1.967-4.667-4.393-4.667c-2.427 0-4.393 2.09-4.393 4.667s1.966 4.667 4.393 4.667M127.907 42.314c2.426 0 4.393-2.09 4.393-4.667s-1.967-4.667-4.393-4.667c-2.427 0-4.393 2.09-4.393 4.667s1.966 4.667 4.393 4.667"/><path stroke="#FCE290" stroke-linecap="round" stroke-linejoin="round" stroke-width="2.667" d="m125.314 37.679 1.618 2.348 3.495-3.644"/><path stroke="#fff" stroke-linecap="round" stroke-miterlimit="10" stroke-width="1.333" d="M134.041 65.717h34.186M134.041 54.852h34.186M134.041 42.71h34.186"/><path fill="#FADED0" d="m112.085 128.117.456-5.982a19.6 19.6 0 0 1-5.083-3.476c-2.048-1.936-5.798-5.464-5.657-10.466.136-4.826 3.739-8.012 4.572-8.713l.269-14.9c.011-.58.216-1.142.597-1.558.464-.509 1.199-1.091 2.199-1.22 1.702-.219 3.469.969 4.195 2.955l.425 11.819c.399-.206 1.384-.639 2.64-.451 1.829.274 2.855 1.658 3.064 1.953.358-.21 1.397-.754 2.687-.5 1.476.29 2.698 1.51 3.206 3.154.423-.206 2.097-.967 3.441-.15.731.445 1.294 1.314 1.65 3.656.326 2.144.563 6.037-1.273 11.218a30 30 0 0 1-2.719 5.683l1.413 8.602-16.081-1.623z"/><path fill="url(#a)" d="M62.352 129.334c-3.505 3.961-5.883 4.449-7.411 4.155-1.846-.354-4.09-.055-7.78-4.438a2.43 2.43 0 0 0-1.845-.885c-2.511-.013-5.867.336-9.398 1.898-14.074 6.23-20.627 38.225-20.627 38.225-2.24 9.279-4.63 22.832-4.53 39.732.021 3.717 2.73 6.792 6.222 7.018a691.39 691.39 0 0 0 61.978 1.244c3.74-.092 6.66-3.465 6.451-7.433l-1.822-34.636c3.94 3.034 17.448 12.729 31.781 9.82 2.6-.527 6.982-1.481 10.313-5.275 4.134-4.71 4.228-11.039 4.316-15.079.214-9.795.718-20.978 1.559-34.979.087-1.448-.959-2.695-2.324-2.766l-16.697-.867c-1.12-.058-2.133.698-2.462 1.837l-6.317 21.924c-14.502-11.98-28.103-17.035-39.038-19.089a76 76 0 0 0-2.369-.405z"/><path fill="#F6D7C2" d="M44.093 131.959c0 1.495.937 2.833 2.363 3.378a21.6 21.6 0 0 0 7.93 1.425 21.6 21.6 0 0 0 7.506-1.429c1.421-.544 2.351-1.883 2.351-3.372V118.23c0-2.001-1.662-3.623-3.713-3.623H47.807c-2.051 0-3.714 1.622-3.714 3.623z"/><path fill="#000" d="M75.683 120.312c4.303 0 7.792-3.707 7.792-8.278s-3.489-8.278-7.792-8.278c-4.304 0-7.793 3.706-7.793 8.278 0 4.571 3.49 8.278 7.793 8.278"/><path fill="#000" d="M82.787 130.05c4.304 0 7.792-3.706 7.792-8.277 0-4.572-3.488-8.278-7.792-8.278-4.303 0-7.792 3.706-7.792 8.278 0 4.571 3.489 8.277 7.792 8.277"/><path fill="#000" d="M89.663 138.329c4.303 0 7.792-3.706 7.792-8.278s-3.489-8.278-7.792-8.278-7.792 3.706-7.792 8.278 3.489 8.278 7.792 8.278M31.554 124.907c4.304 0 7.792-3.706 7.792-8.277 0-4.572-3.488-8.278-7.792-8.278-4.303 0-7.792 3.706-7.792 8.278 0 4.571 3.489 8.277 7.792 8.277"/><path fill="#000" d="M25.278 135.269c4.303 0 7.792-3.706 7.792-8.278s-3.489-8.278-7.792-8.278c-4.304 0-7.792 3.706-7.792 8.278s3.488 8.278 7.792 8.278"/><path fill="#000" d="M20.222 144.914c4.303 0 7.792-3.707 7.792-8.278s-3.489-8.278-7.792-8.278c-4.304 0-7.793 3.706-7.793 8.278 0 4.571 3.49 8.278 7.793 8.278"/><path fill="#FADED0" d="M77.947 106.918c6.043-15.497-.885-33.265-15.474-39.684-14.588-6.42-31.313.94-37.356 16.438-6.042 15.498.885 33.265 15.474 39.684 14.588 6.42 31.313-.94 37.356-16.438"/><path fill="#000" d="M79.378 88.382c-3.47.729-10.006 1.587-17.733-.634-6.33-1.82-10.88-4.965-13.522-7.122a92.3 92.3 0 0 1-9.225 14.365 89 89 0 0 1-13.108 13.535c-1.217-2.76-4.15-10.383-2.21-19.64 2.252-10.759 10.271-19.83 20.818-22.747 10.414-2.88 21.165.832 27.929 8.314 4.644 5.136 6.367 10.898 7.05 13.929zM70.88 104.424c1.17-.103 1.987-1.881 1.824-3.971s-1.245-3.7-2.415-3.598-1.987 1.882-1.823 3.972c.163 2.09 1.244 3.701 2.414 3.597M56.346 105.993c1.17-.103 1.986-1.881 1.823-3.971s-1.244-3.701-2.414-3.598-1.987 1.881-1.824 3.971c.164 2.091 1.245 3.701 2.415 3.598"/><defs><linearGradient id="a" x1="72.579" x2="68.579" y1="139.117" y2="210.91" gradientUnits="userSpaceOnUse"><stop stop-color="#D9E5F5"/><stop offset=".88" stop-color="#8AC0E8"/></linearGradient></defs></svg>